<svg width="156" height="60" viewBox="0 0 156 60" fill="none" xmlns="http://www.w3.org/2000/svg">
<path d="M47.0384 51.6159C44.1381 52.2455 41.2308 52.8821 38.3235 53.5046C37.9628 53.5824 37.6161 53.7593 37.2271 53.6814C36.9088 53.6885 36.6187 53.5046 36.258 53.7805C35.9962 53.9785 35.6143 53.7734 35.4021 53.4268C35.3596 53.356 35.1474 53.0943 35.0767 53.5329C35.0271 53.8371 34.5532 53.929 34.2702 54.1129C33.9166 54.3393 34.4683 54.1978 34.3551 54.3252C34.1075 54.4879 33.8246 54.4808 33.5416 54.4949C33.0323 54.2686 32.6079 54.7142 32.1057 54.6576C31.7308 54.6152 31.3771 54.3464 30.9385 54.7425C30.7758 54.8911 30.026 55.4569 29.6086 54.7071C29.5733 54.6505 29.5025 54.7779 29.453 54.8203C28.399 55.7399 27.1823 55.6479 25.9374 55.3791C25.8171 55.3508 25.6686 55.4216 25.5624 55.2943C26.2698 55.4711 26.3052 55.5065 26.1496 55.9663C25.0319 56.2634 23.9001 56.3978 22.7683 56.3553C22.8037 56.4614 23.1574 56.4119 23.0866 56.6949L23.0159 56.7302L22.9381 56.7232C22.7259 56.8576 22.4924 56.7727 22.2731 56.7939C22.2236 56.7868 22.1741 56.7585 22.1458 56.7232C22.0963 56.6666 22.0751 56.5887 22.0185 56.5392C22.0256 56.617 22.1105 56.6453 22.1317 56.7161C22.1741 56.7585 22.1883 56.7939 22.1741 56.8293C22.16 56.8646 22.1458 56.8859 22.1317 56.8859C21.8134 57.0486 21.2687 57.1122 21.1555 57.0415C20.2359 56.4261 19.769 57.4305 19.0758 57.5437L19.09 57.5366C18.1987 57.4447 17.3569 58.0035 16.4444 57.6852C16.0695 57.5579 16.1473 58.1733 15.6804 58.2086C15.0508 58.2652 14.3718 58.3572 13.7776 58.6684C12.2921 59.0434 10.8207 59.6588 9.25743 59.0009C8.15392 58.534 7.35459 57.7418 7.07871 56.5958C5.84788 51.432 4.67363 46.254 3.48524 41.0831C3.47109 41.0053 3.48524 40.9274 3.48524 40.8426C3.40035 40.2342 3.53475 39.6329 3.50646 39.0246C3.48524 38.6214 3.57719 38.6002 4.08651 38.8336C3.16692 37.6523 1.8512 36.662 3.06081 34.9855C2.86275 35.1057 2.97592 35.3038 2.8203 35.3462C2.63638 35.3887 2.60102 35.2401 2.55858 35.1199C2.48784 34.9147 2.50199 34.6955 2.53736 34.4832C2.57272 34.2923 2.62224 34.08 2.43832 33.9669C1.79461 33.5354 1.84412 32.8846 1.84412 32.2409C1.84412 31.9721 1.85827 31.6962 1.66728 31.4769C1.27115 31.0312 1.44092 30.6705 1.81583 30.3239C1.26408 30.3805 1.11553 29.9207 0.882093 29.5811C0.019094 27.1619 1.03771 24.7427 3.37913 23.8655C8.82593 21.8424 14.2939 19.8618 19.7478 17.867C19.8186 17.8387 19.9034 17.8387 19.9812 17.8316C20.6816 17.676 21.3536 17.4284 22.0256 17.1879C22.4075 17.0464 22.7329 16.8837 23.0442 17.3152C23.122 17.4213 23.3342 17.386 23.5323 17.3365C23.2564 17.3294 22.9381 17.4284 22.8815 17.0818C22.832 16.7847 23.1432 16.813 23.313 16.721C23.4049 16.6715 23.5111 16.6432 23.5676 16.5442L23.5535 16.5583C24.1477 16.4239 24.7277 16.049 25.4846 16.5513C25.2371 16.3249 24.9683 16.3744 24.9895 16.0985C25.9303 15.6317 27.0055 15.5185 27.9039 14.9526L27.8968 14.9597C28.3283 14.804 28.8093 14.7687 29.1913 14.4786L29.1842 14.4857C29.8138 14.4008 30.4009 14.1533 30.9951 13.941C31.5256 13.9269 32.0632 13.7783 32.4735 13.5166C32.8838 13.262 33.2516 13.1983 33.669 13.2407C33.9378 13.269 34.1429 13.3468 34.1217 12.9436C34.1146 12.8517 34.2561 12.7244 34.3764 12.6536C35.1615 12.4555 35.8689 11.9462 36.7461 12.0877C37.1705 12.1584 37.0927 11.5996 37.4251 11.5077C38.0689 11.3379 38.6843 10.9771 39.3351 10.9701C40.1061 10.963 40.5164 10.4395 41.0752 10.1212L41.0681 10.1283C41.3511 10.0151 41.6836 10.1 41.9382 9.89485C42.8154 9.48457 43.8481 9.48457 44.6262 8.84086C44.8809 8.73475 45.1426 8.63572 45.3973 8.52961C46.1259 8.57205 46.7201 8.21836 47.3567 7.92127C48.5522 7.36244 49.8325 7.0229 51.0704 6.55603C51.2331 6.42871 51.5302 6.89557 51.6929 6.32967C51.7778 6.03965 52.5347 5.99721 52.9803 5.84866C53.5604 5.65767 54.1475 5.09884 54.7912 5.77792C54.8903 5.88402 55.1308 5.84866 55.152 5.62937C55.2227 4.81589 55.8877 4.78052 56.4465 4.61075C56.5172 4.68856 56.6233 4.731 56.6941 4.81588C56.6375 4.731 56.5314 4.70979 56.4819 4.6249C56.6516 4.28536 57.0973 4.43391 57.3024 4.15803H57.2953C57.6137 4.21462 57.8966 4.13681 58.123 3.8963C59.4104 3.41529 60.8534 3.9246 61.6669 5.14128C62.056 6.0255 61.8721 7.01583 62.1904 7.9142C62.2328 8.04152 62.2045 8.17592 62.0843 8.26788C61.9074 8.30325 61.773 8.28204 61.766 8.06275C61.7801 8.28204 61.865 8.50131 61.8508 8.62864C61.8508 8.51546 61.9782 8.374 62.1267 8.23959C62.7492 8.11934 62.6431 8.79842 62.9685 9.00356L62.9614 8.99648C63.0675 9.37139 62.8412 9.84534 63.2797 10.1283L63.2727 10.1212C63.3717 10.3405 63.3576 10.5739 63.3646 10.8003C63.3293 10.864 63.2797 10.9205 63.2373 10.9771C63.1949 11.0337 63.1949 11.1186 63.1524 11.1823C63.2444 11.1681 63.1807 11.0903 63.2019 11.0408C63.2444 10.9418 63.209 11.0762 63.2373 10.9701C63.4141 10.8215 63.4849 10.963 63.5627 11.0903C63.5768 11.1398 63.5981 11.1964 63.6122 11.2459C63.492 11.8755 63.9871 12.3848 63.9659 13.0002C63.9588 13.6369 64.171 14.2381 64.2701 14.8606C64.3762 14.8465 64.4469 14.6838 64.5742 14.7828C65.2958 17.0535 65.9465 19.3525 66.4912 21.6727C66.6256 22.4508 66.8449 23.2077 67.1491 23.9433C67.3118 24.1131 67.2906 24.3324 67.3047 24.5446C67.2481 25.4359 67.6372 26.2069 67.9626 26.9921L67.9484 26.978C67.9909 27.6571 68.578 28.2725 68.1889 29.0082C68.3446 28.9091 68.479 28.9091 68.5709 29.093C68.7478 29.4043 68.4224 29.9136 68.5073 29.9348C69.0236 30.0551 68.7336 30.5219 68.9317 30.7483C69.2783 31.1515 69.0024 31.7598 69.3985 32.1418C70.0847 34.0447 70.5162 36.0253 71.0821 37.9706C71.5065 39.4278 71.9097 40.8921 72.2917 42.3634C72.8647 44.5563 71.8107 46.3459 69.632 46.8553C68.4436 47.1311 67.234 47.3433 66.0385 47.5839C64.1569 47.8244 62.3319 48.3549 60.4644 48.6661C58.7596 48.9491 57.0902 49.4301 55.4066 49.8121C55.1803 50.0243 54.9044 50.0172 54.6285 49.9889C53.7372 50.0809 52.8601 50.2365 51.9971 50.5053C51.5373 50.6468 51.127 50.5053 50.7097 50.3143C50.7733 50.47 50.9997 50.3214 51.0421 50.477C51.1129 50.7388 50.8653 50.7105 50.7521 50.7317C49.6132 50.9863 48.4814 51.2834 47.3355 51.4956C47.2082 51.5169 47.095 51.5027 47.0384 51.6159Z" fill="#96A9B3"/>
<path d="M90.0913 43.5822C89.0373 43.9288 88.3017 43.66 87.7428 42.6838C87.5589 42.3655 87.4953 42.1745 87.0567 42.4362C82.5436 45.1738 77.7264 43.3346 75.3991 40.0099C72.6545 36.084 73.2911 30.8777 76.8917 27.7582C79.707 25.3177 83.6188 24.9216 86.8232 26.8103C87.5165 27.2206 87.4882 26.9022 87.4811 26.3788C87.474 24.3981 87.474 22.4175 87.4882 20.4439C87.4953 19.397 87.9267 18.7745 88.7968 18.4491C89.5891 18.152 90.2611 18.3854 90.827 18.9796C90.8624 19.015 90.8694 19.0787 90.8907 19.1211C90.9826 19.3475 91.0109 19.6092 91.216 19.779L91.209 19.7719C91.3363 20.0548 91.2726 20.3519 91.2726 20.642C91.2797 27.4257 91.2514 34.2024 91.3009 40.9861C91.3151 42.1038 90.9897 42.9455 90.0913 43.5822Z" fill="#96A9B3"/>
<path d="M120.83 35.956C119.09 35.956 117.35 35.956 115.61 35.956C114.754 35.956 114.683 36.0621 114.994 36.8756C115.794 38.9765 118.276 40.3983 120.632 40.1295C121.764 40.0022 122.818 39.7051 123.744 38.9977C124.374 38.5167 125.103 38.4743 125.782 38.8845C126.312 39.2099 126.553 39.7405 126.546 40.3842C126.539 40.943 126.192 41.2613 125.824 41.5726C121.707 45.1165 114.492 44.5435 111.662 38.6865C108.691 32.5394 113.162 25.4798 119.889 25.6212C124.268 25.7132 128.031 29.3208 128.3 33.6853C128.392 35.2416 127.769 35.9277 126.213 35.9418C124.416 35.9631 122.62 35.956 120.83 35.956Z" fill="#96A9B3"/>
<path d="M138.982 43.7661C132.092 43.7166 127.685 37.6827 129.609 31.868C131.576 25.9402 139.223 23.6837 144.089 27.5955C144.889 28.2392 145.101 29.3356 144.584 30.0996C143.962 31.0121 142.943 31.2668 142.003 30.6372C140.411 29.5761 138.713 29.088 136.839 29.6327C133.797 30.5169 132.128 33.7355 133.224 36.5155C134.419 39.536 137.921 40.8659 140.892 39.4228C141.224 39.2601 141.543 39.0621 141.861 38.8569C142.83 38.2344 143.92 38.4042 144.542 39.2884C145.129 40.109 144.931 41.2337 143.997 41.8916C142.307 43.1082 140.404 43.759 138.982 43.7661Z" fill="#96A9B3"/>
<path d="M148.661 34.9646C148.661 33.3872 148.64 31.8097 148.675 30.2323C148.689 29.6664 148.505 29.5037 147.947 29.5107C146.751 29.5319 145.966 29.0368 145.704 28.195C145.294 26.8722 146.206 25.5919 147.628 25.6485C148.477 25.6768 148.718 25.4433 148.682 24.5945C148.619 23.1019 148.626 21.5952 148.711 20.1026C148.802 18.5605 150.578 17.7895 151.816 18.702C152.431 19.1547 152.608 19.8126 152.601 20.5412C152.594 22.0125 152.622 23.4839 152.587 24.9552C152.573 25.4999 152.757 25.6767 153.273 25.6202C153.825 25.5636 154.348 25.6838 154.78 26.0446C155.388 26.561 155.735 27.1976 155.501 28.0252C155.268 28.8529 154.546 29.5107 153.599 29.4683C152.693 29.4329 152.573 29.7866 152.58 30.5718C152.622 33.3801 152.601 36.1884 152.587 38.9966C152.587 39.4918 152.608 39.796 153.231 39.9375C154.186 40.1567 154.752 41.2037 154.575 42.1162C154.377 43.1419 153.563 43.7785 152.509 43.7431C150.33 43.6724 148.675 41.8615 148.654 39.5272C148.64 38.0063 148.654 36.4784 148.654 34.9575C148.661 34.9646 148.661 34.9646 148.661 34.9646Z" fill="#96A9B3"/>
<path d="M104.838 27.7013C105.553 27.0293 106.352 26.5695 107.215 26.2158C108.121 25.8409 109.061 25.6641 110.031 25.6641C111.169 25.6641 111.962 26.3927 112.011 27.4467C112.054 28.3875 111.332 29.1868 110.306 29.3495C107.159 29.8376 104.704 32.7166 104.704 35.9281C104.704 37.8309 104.711 39.7267 104.704 41.6295C104.697 42.8675 103.898 43.7517 102.794 43.7587C101.669 43.7658 100.884 42.924 100.884 41.6366C100.877 37.0316 100.877 32.4337 100.884 27.8286C100.884 26.5978 101.485 25.8197 102.504 25.6853C103.593 25.5438 104.407 26.1804 104.711 27.4113C104.725 27.482 104.768 27.5457 104.838 27.7013Z" fill="#96A9B3"/>
<path d="M98.3086 34.8041C98.3086 37.1314 98.3228 39.4587 98.3016 41.7859C98.2945 42.7762 97.7427 43.4695 96.8868 43.6817C96.0097 43.901 95.1467 43.5119 94.7152 42.7197C94.503 42.3306 94.4817 41.8991 94.4817 41.4747C94.4747 36.9545 94.4747 32.4273 94.4817 27.9072C94.4817 26.7259 94.9345 26.0397 95.8187 25.7638C96.6534 25.5021 97.4103 25.7497 97.955 26.45C98.2945 26.8815 98.3157 27.3837 98.3157 27.9001C98.3086 30.1991 98.3086 32.5051 98.3086 34.8041Z" fill="#96A9B3"/>
<path d="M98.3106 20.6904C98.3814 21.5888 98.056 22.3598 97.1718 22.7489C96.4432 23.0743 95.7146 22.9752 95.0992 22.3881C94.2644 21.5888 94.2291 19.6506 95.0779 18.8654C95.6721 18.3136 96.3654 18.1439 97.1435 18.4834C98.1055 18.9078 98.3531 19.693 98.3106 20.6904Z" fill="#96A9B3"/>
<path d="M68.9005 6.34558C67.0047 6.3385 65.4556 4.88131 65.4768 3.13409C65.498 1.4081 67.1037 -0.0278839 68.9854 0.000411137C70.8104 0.0216324 72.3878 1.49298 72.3878 3.17653C72.3808 4.88838 70.775 6.35265 68.9005 6.34558Z" fill="#96A9B3"/>
<path d="M0.875 29.582C1.25698 29.7518 1.44091 30.2045 1.90777 30.2894C2.04925 30.3106 2.25438 30.6077 1.80874 30.5228C1.78752 30.7916 1.32065 31.0109 1.83703 31.3434C2.21194 31.591 2.04925 32.1357 2.04217 32.553C2.02802 33.0835 2.04217 33.5646 2.6293 33.8192C2.86273 33.9182 2.96884 34.0739 2.7637 34.378C2.6293 34.5761 2.7071 34.9156 2.82028 35.2057C2.84151 34.9793 2.86273 34.7529 2.8981 34.4063C3.26593 34.8591 3.08201 35.3118 2.94761 35.5594C2.41001 36.5072 2.99713 37.1439 3.47107 37.7947C3.78939 38.2332 4.34822 38.5374 4.07234 39.2589C3.97331 39.0679 3.88135 38.8911 3.78939 38.7143C3.74695 39.4499 3.7328 40.1644 3.4923 40.8505C2.79199 38.4242 2.29683 35.9413 1.73093 33.4797C1.42676 32.1852 1.01648 30.9119 0.875 29.582Z" fill="#96A9B3"/>
<path d="M26.1402 55.9264C26.2039 55.0988 25.4329 55.6717 25.1641 55.3181C26.7981 55.2119 28.6019 55.9052 29.7974 54.1933C30.0874 54.4904 29.67 54.6673 29.8398 54.9219C30.1157 54.8229 30.3562 54.5682 30.6957 54.639C30.8231 54.6673 30.8018 54.6248 30.915 54.349C30.9999 54.1367 31.198 54.1226 31.3819 54.257C31.7073 54.4904 32.1034 54.4692 32.4713 54.547C32.5986 53.7406 33.0867 54.5116 33.3625 54.356C33.3838 54.3419 33.4757 54.448 33.5394 54.5046C31.2616 55.0422 28.9839 55.5656 26.6708 55.9476C26.4939 56.0183 26.3171 56.0466 26.1402 55.9264Z" fill="#96A9B3"/>
<path d="M90.0898 43.5818C91.2853 42.6268 91.2216 41.304 91.2146 39.9529C91.1933 33.2258 91.2075 26.4986 91.2146 19.7715C91.4339 20.0261 91.356 20.3303 91.356 20.6133C91.3631 27.5526 91.356 34.492 91.3631 41.4314C91.3631 42.4075 91.1085 43.2139 90.0898 43.5818Z" fill="#96A9B3"/>
<path d="M41.0671 10.123C41.053 10.2504 41.0671 10.3919 41.0176 10.5121C40.9398 10.689 40.1405 10.3423 40.6639 11.0002C40.6993 11.0497 40.4517 11.1204 40.3244 11.1063C39.4472 11.0497 38.6338 11.3114 37.8132 11.5732C37.601 11.6439 37.3958 11.5095 37.4312 11.9693C37.4666 12.3584 36.7804 12.3867 36.5116 12.3371C35.9669 12.231 35.5567 12.2593 35.111 12.6201C34.9412 12.7616 34.6017 12.6908 34.3329 12.7191C34.2905 12.6838 34.2763 12.6484 34.2905 12.613C34.3046 12.5776 34.3188 12.5564 34.3329 12.5564C36.5611 11.7005 38.7823 10.8233 41.0671 10.123Z" fill="#96A9B3"/>
<path d="M57.2937 4.16602C57.1593 4.53385 56.7065 4.42067 56.5014 4.68948C55.985 4.95828 55.3979 5.02902 55.2493 5.83542C55.1362 6.46499 54.5844 5.92739 54.3085 5.78591C54.1458 5.70103 54.061 5.45344 53.8275 5.62321C53.1697 6.09008 52.3562 6.12545 51.6064 6.42255C51.7974 6.71257 52.0874 6.274 52.2501 6.62769C51.8469 6.88942 51.4437 6.79039 51.0405 6.61354C50.9131 6.71257 50.7929 6.71258 50.6797 6.59232C52.8513 5.68688 55.0584 4.88754 57.2937 4.16602Z" fill="#96A9B3"/>
<path d="M55.3867 49.8141C56.2639 49.2694 57.3391 49.4038 58.2587 49.0147C59.7583 48.371 61.4065 48.5479 62.9486 48.0386C63.8965 47.7273 64.9504 47.4302 66.0186 47.5929C62.4817 48.3852 58.9519 49.1916 55.3867 49.8141Z" fill="#96A9B3"/>
<path d="M62.9467 9.01267C62.4233 9.0056 62.5435 8.33359 62.1262 8.22041C62.112 7.64036 61.4683 7.23008 61.7301 6.551C61.8998 6.10536 61.3764 5.63848 61.6522 5.15039C62.5223 6.28927 62.5718 7.70402 62.9467 9.01267Z" fill="#96A9B3"/>
<path d="M13.7773 58.6761C14.3998 58.0536 15.3194 58.3295 15.9773 57.9192C15.8853 57.8697 15.6519 57.8131 15.6448 57.7283C15.6094 57.5019 15.8429 57.5585 15.9844 57.5302C16.3168 57.4595 16.6493 57.3604 16.9676 57.6009C17.1303 57.7212 17.3496 57.7141 17.4981 57.608C18.0216 57.226 18.5521 57.4665 19.0827 57.5514C17.3496 58.0466 15.5741 58.4073 13.7773 58.6761Z" fill="#96A9B3"/>
<path d="M34.3311 12.5566C34.3311 12.6132 34.3311 12.6628 34.3311 12.7193C34.1472 13.1155 34.3594 13.264 34.8475 13.2569C34.2746 13.8087 33.7652 13.2711 33.2842 13.4126C33.0508 13.4833 32.8315 13.3701 32.6688 13.7026C32.4495 14.1482 32.018 13.8511 31.6007 13.837C31.6785 13.9997 31.8129 14.2261 31.7917 14.2402C31.4238 14.509 31.2753 13.9785 30.964 13.9997C30.9216 13.9573 30.9004 13.9219 30.9145 13.8794C30.9287 13.837 30.9428 13.8158 30.957 13.8158C32.0463 13.3135 33.1923 12.9386 34.3311 12.5566Z" fill="#96A9B3"/>
<path d="M47.0391 51.6178C47.9657 51.0661 49.0622 51.1085 50.0525 50.7973C50.3213 50.7124 50.6184 50.6983 50.8872 50.5639C50.774 50.387 50.6042 50.486 50.4698 50.4577C50.3213 50.4294 50.0949 50.4577 50.1657 50.2172C50.2293 49.9909 50.392 50.1041 50.5406 50.1748C51.3328 50.5285 52.0827 50.4648 52.882 50.1041C53.3984 49.8706 54.0209 49.9555 54.6009 49.9838C52.5212 50.4507 50.4486 50.9175 48.3689 51.3703C47.9304 51.4834 47.4847 51.54 47.0391 51.6178Z" fill="#96A9B3"/>
<path d="M50.6857 6.5918C50.806 6.59887 50.9262 6.60594 51.0465 6.61302C50.2471 7.2638 49.1719 7.18599 48.3089 7.65993C47.7784 7.94996 46.9437 7.85799 46.9791 9.08175C46.6749 8.44511 46.4415 8.31072 46.1373 8.69977C45.7907 9.13835 45.6633 8.50171 45.3945 8.53C47.1347 7.80848 48.889 7.13648 50.6857 6.5918Z" fill="#96A9B3"/>
<path d="M34.3559 54.3263C34.2003 54.3263 34.0376 54.3263 33.7617 54.3263C34.1791 53.9018 34.5964 53.6755 35.0774 53.4562C34.9077 53.3854 34.7874 53.3359 34.6672 53.2864C34.7025 53.2511 34.7379 53.1944 34.7591 53.2015C35.035 53.2793 35.4099 52.9893 35.6009 53.3784C35.7282 53.6472 35.9404 53.6613 36.1739 53.6684C36.2588 53.6684 36.4144 53.725 36.4215 53.5906C36.4285 53.4703 36.1597 53.5199 36.2022 53.2652C36.5912 53.3006 36.9237 53.4633 37.2349 53.6826C36.2941 54.0009 35.325 54.1636 34.3559 54.3263Z" fill="#96A9B3"/>
<path d="M26.143 55.9258C26.3198 55.9329 26.4967 55.9399 26.6735 55.9399C25.4922 56.2724 24.3038 56.5624 23.0871 56.7039C22.9174 56.5836 22.7547 56.4634 22.5 56.2795C23.7733 56.1521 24.9617 56.039 26.143 55.9258Z" fill="#96A9B3"/>
<path d="M23.5637 16.5391C23.5283 16.8715 23.1463 16.822 23.0049 17.0413C23.4364 17.1828 23.4364 17.1828 23.8962 16.9635C23.6698 17.6001 23.3232 17.7628 22.8775 17.3384C22.6087 17.0837 22.4531 17.1686 22.1985 17.2535C21.4699 17.4869 20.7908 17.8901 19.9844 17.8406C21.1445 17.3172 22.3399 16.8857 23.5637 16.5391Z" fill="#96A9B3"/>
<path d="M19.0859 57.5525C19.567 57.2413 19.8358 56.5834 20.5431 56.64C20.7058 56.6542 21.1303 56.2651 20.9393 56.9017C20.8968 57.0503 21.1373 56.9442 21.2576 56.9371C21.5476 56.9159 21.8447 56.9088 22.1347 56.8947C21.1515 57.2413 20.1187 57.404 19.0859 57.5525Z" fill="#96A9B3"/>
<path d="M69.3793 32.1425C69.2378 32.1284 68.9407 32.1708 69.0043 31.994C69.2519 31.2725 68.5658 30.7419 68.7214 30.0558C68.3465 30.1053 68.5092 30.5368 68.1626 30.6429C68.0635 30.0487 68.5163 29.6172 68.5516 29.0938C68.9053 30.0912 69.2095 31.1027 69.3793 32.1425Z" fill="#96A9B3"/>
<path d="M44.6187 8.83594C44.4065 9.0623 44.1872 9.29573 43.9679 9.52209C43.8972 9.5999 43.7628 9.7343 43.7557 9.72723C43.0342 9.15425 42.539 10.1446 41.8811 9.98896C41.7114 10.1234 41.5487 10.1092 41.3789 9.98188C42.447 9.53624 43.501 9.09059 44.6187 8.83594Z" fill="#96A9B3"/>
<path d="M64.5598 14.7926C64.2556 14.92 64.5102 15.3868 64.0787 15.5071C64.298 14.6441 63.4846 13.9084 63.8948 13.0383C63.9514 12.9817 64.008 12.9747 64.0646 13.0313C64.3334 13.5901 64.482 14.1843 64.5598 14.7926Z" fill="#96A9B3"/>
<path d="M67.9403 27.0022C67.7422 27.1649 67.8554 26.3656 67.5371 26.8678C67.4664 26.981 67.3319 26.9527 67.3037 26.8324C67.2754 26.6839 67.2471 26.4151 67.3107 26.3868C67.8342 26.118 67.3885 25.828 67.3885 25.4248C67.2966 25.6511 67.2471 25.7643 67.1905 25.8987C66.957 25.4177 67.1905 24.9933 67.2824 24.5547C67.5654 25.354 67.8413 26.1534 67.9403 27.0022Z" fill="#96A9B3"/>
<path d="M27.8959 14.9473C27.5281 15.591 26.7783 15.5839 26.2124 15.8244C25.9011 15.9588 25.4343 16.072 25.024 16.0932C24.9391 16.1427 24.8684 16.1357 24.8047 16.0578C25.8162 15.6334 26.8278 15.209 27.8959 14.9473Z" fill="#96A9B3"/>
<path d="M24.806 16.0645C24.8767 16.0786 24.9546 16.0857 25.0253 16.0998C25.2517 16.2201 25.478 16.3403 25.6973 16.4535C24.9687 16.4323 24.2543 16.4323 23.5469 16.5525C23.9218 16.2767 24.3533 16.1423 24.806 16.0645Z" fill="#96A9B3"/>
<path d="M64.064 13.0314C64.0074 13.0314 63.9508 13.0314 63.8942 13.0385C63.8659 12.4301 63.1373 11.942 63.5971 11.2559C63.8235 11.8359 63.9933 12.423 64.064 13.0314Z" fill="#96A9B3"/>
<path d="M68.5556 29.1014C68.3576 29.0165 67.8907 29.2075 68.1241 28.6699C68.3859 28.0757 67.7492 27.5805 67.9261 26.9863C68.2656 27.6513 68.4212 28.3728 68.5556 29.1014Z" fill="#96A9B3"/>
<path d="M30.9552 13.8164C30.9552 13.8801 30.9623 13.9437 30.9623 14.0074C30.4317 14.3894 29.8375 14.5521 29.1797 14.4813C29.7527 14.1913 30.3256 13.9367 30.9552 13.8164Z" fill="#96A9B3"/>
<path d="M67.1344 23.9523C66.6393 23.2732 66.4907 22.4951 66.4766 21.6816C66.7524 22.4244 66.993 23.1742 67.1344 23.9523Z" fill="#96A9B3"/>
<path d="M63.2637 10.1377C62.3441 9.98911 62.9878 9.40199 62.9454 9.00586C63.1505 9.35247 63.2354 9.74152 63.2637 10.1377Z" fill="#96A9B3"/>
<path d="M29.1929 14.4668C28.8817 14.9549 28.3936 14.9549 27.8984 14.9478C28.2804 14.6578 28.7331 14.5588 29.1929 14.4668Z" fill="#96A9B3"/>
<path d="M58.1089 3.90469C57.9603 4.39986 57.734 4.63329 57.2812 4.16642C57.5288 3.98958 57.7976 3.86225 58.1089 3.90469Z" fill="#96A9B3"/>
<path d="M63.551 11.1058C63.452 11.0563 63.3529 10.9997 63.2539 10.9502C63.2539 10.6814 63.261 10.4055 63.261 10.1367C63.4591 10.4267 63.5439 10.7521 63.551 11.1058Z" fill="#96A9B3"/>
<path d="M41.384 9.98308C41.5538 9.98308 41.7165 9.99016 41.8862 9.99016C41.7094 10.5844 41.3203 9.97601 41.0586 10.1316C41.1364 10.0114 41.2496 9.96893 41.384 9.98308Z" fill="#96A9B3"/>
<path d="M91.22 19.779C90.9016 19.6658 90.8663 19.4111 90.8946 19.1211C91.1068 19.2838 91.2412 19.496 91.22 19.779Z" fill="#96A9B3"/>
<path d="M22.1321 56.8944C22.1321 56.8378 22.125 56.7812 22.125 56.7246C22.3938 56.7246 22.6697 56.7246 22.9385 56.7317C22.698 56.9298 22.415 56.9156 22.1321 56.8944Z" fill="#96A9B3"/>
<path d="M33.1965 37.8158C33.6351 38.601 34.293 39.1174 35.1206 39.4357C35.7997 39.4074 36.3939 39.7682 37.0659 39.8177C38.6292 39.945 40.0086 39.5135 41.3101 38.6859C42.1307 38.1695 43.213 38.2968 43.8142 38.9335C44.0548 39.1881 44.2528 39.4781 44.1609 39.8601C44.2882 40.7231 43.8779 41.3102 43.2271 41.8196C42.4702 42.4138 41.6143 42.824 40.7655 43.2555C40.5815 43.5102 40.3198 43.6375 40.0298 43.7012C38.8272 43.9558 37.6247 44.2105 36.3797 44.0407C36.0897 43.9558 35.7926 43.9134 35.4955 43.8851C35.1347 43.7931 34.7457 43.7648 34.491 43.4324C31.7323 42.4703 29.886 40.5604 28.7471 37.9148C28.4925 37.7309 28.3864 37.455 28.3156 37.1721C27.8841 35.4602 27.8771 33.7625 28.443 32.0719C28.4783 31.9729 28.5632 31.9021 28.634 31.8173C29.3838 29.7659 30.65 28.1035 32.4538 26.8515C33.437 25.9248 34.6184 25.5287 35.9624 25.5711C36.9315 25.5641 37.9006 25.5216 38.8555 25.6772C39.9661 25.6065 40.8928 26.0238 41.7204 26.7171C41.777 26.7595 41.8407 26.802 41.8973 26.8373C42.1095 26.8585 42.3005 26.9222 42.3712 27.1627C43.2554 27.9125 44.0477 28.7472 44.6914 29.7164C45.71 30.6289 45.8373 31.9021 46.0496 33.133C46.1203 33.5503 46.0779 33.9889 46.0708 34.4133C46.0566 35.2268 45.4837 35.8988 44.6348 36.1322C44.267 36.2313 43.8921 36.2454 43.5171 36.2313C40.7159 36.1322 37.9077 36.3374 35.1064 36.1605C34.8093 36.1393 34.5193 36.1959 34.2293 36.2171C32.7367 36.3515 32.7367 36.3515 33.1965 37.8158Z" fill="#F0F2F5"/>
<path d="M53.624 43.6892C50.9713 42.7979 49.0473 41.0861 47.8094 38.582C47.0313 37.1601 46.6634 35.6393 46.8686 34.0194C46.9605 33.2695 46.9534 32.4702 47.491 31.8407C48.0004 30.5391 48.7077 29.3578 49.599 28.2826C51.1906 26.2736 53.334 25.4318 55.8381 25.3682C56.0786 25.3611 56.3191 25.3894 56.5101 25.5592C56.6162 25.5662 56.7223 25.5733 56.8355 25.5733C57.3872 25.5662 57.9814 25.3823 58.42 25.9128C61.299 27.0729 63.2443 29.1243 64.1781 32.0812C65.6706 36.7923 63.0604 41.9278 58.3917 43.5548C58.2927 43.5902 58.2078 43.6468 58.1088 43.6963C57.9461 43.958 57.649 43.7175 57.458 43.8731L57.4721 43.8661C56.1706 44.0853 54.8831 44.1561 53.624 43.6892Z" fill="#F0F2F5"/>
<path d="M21.4585 26.1247C23.4463 27.0513 24.8822 28.5085 25.724 30.5458C26.2263 31.239 26.3465 32.0666 26.3607 32.866C26.4102 35.8299 26.3677 38.8009 26.3889 41.7718C26.396 42.7268 25.8584 43.3139 25.1652 43.7879C24.3163 44.3679 23.5524 44.0072 22.8521 43.4342C22.0527 42.7056 22.1164 41.6799 22.0881 40.7674C22.0386 39.2607 22.0386 37.754 22.1659 36.2402C22.2791 34.9457 22.3003 33.6087 22.1447 32.3001L22.1588 32.3071C21.791 31.6068 21.4727 30.8712 20.8573 30.3336C20.3055 29.8313 19.6618 29.5555 18.9049 29.5696C18.5866 29.5767 18.2683 29.704 17.95 29.5908C16.4786 29.7394 15.3185 30.8004 15.0356 32.2718C14.887 33.0145 14.979 33.7643 14.9719 34.5071C14.9577 36.8909 14.9648 39.2677 14.9648 41.6516C14.9648 42.2529 14.8729 42.8188 14.3565 43.222C13.6774 43.6959 12.9771 44.0708 12.1282 43.6959C11.336 43.3493 10.9116 42.7409 10.9116 41.8779C10.9045 37.0678 10.9045 32.2576 10.9116 27.4475C10.9116 26.6835 11.3077 26.1176 11.9726 25.7781C12.6729 25.4173 13.4935 25.4102 13.9957 25.9691C14.6253 26.6764 15.1346 26.4996 15.7642 26.1105C15.8986 26.0256 16.0471 25.962 16.1886 25.8912C16.5776 25.5871 17.0445 25.6154 17.5043 25.5729C17.6033 25.5659 17.6953 25.5588 17.7943 25.5517C18.1126 25.3536 18.438 25.3536 18.7634 25.5305C19.3293 25.6012 19.8952 25.672 20.4611 25.7427C20.8007 25.8629 21.2251 25.7427 21.4585 26.1247Z" fill="#F0F2F5"/>
<path d="M62.1276 8.22078C62.0356 8.56032 61.9436 8.89278 61.8446 9.23232C61.7951 9.22525 61.7526 9.21817 61.7031 9.2111C61.7031 8.73716 61.7031 8.26322 61.7031 7.75391C61.8729 7.87416 61.7951 8.26322 62.1276 8.22078Z" fill="#96A9B3"/>
<path d="M55.0593 49.5024C55.0381 49.3892 54.8046 49.2336 54.9249 49.2194C55.2927 49.1628 55.6393 48.9082 56.085 49.085C55.7596 49.3538 55.4413 49.5094 55.0593 49.5024Z" fill="#96A9B3"/>
<path d="M63.2492 10.9512C63.2067 11.2412 63.3482 11.5737 63.0723 11.9061C62.8177 11.4675 63.0157 11.2058 63.2492 10.9512Z" fill="#96A9B3"/>
<path d="M56.5039 4.68359C56.7727 4.74726 57.0557 4.7897 57.3103 5.0585C56.8293 5.24949 56.6878 4.93118 56.5039 4.68359Z" fill="#96A9B3"/>
<path d="M22.1247 56.7318C21.9266 56.6328 21.7215 56.5408 21.5234 56.4418C21.7852 56.4347 22.2308 56.1376 22.1247 56.7318Z" fill="#96A9B3"/>
<path d="M15.1434 57.7583C15.0302 57.8007 14.9666 57.8502 14.917 57.8431C14.8251 57.829 14.6907 57.8007 14.6695 57.737C14.6058 57.5956 14.7331 57.5743 14.8322 57.6026C14.917 57.6239 15.0019 57.6875 15.1434 57.7583Z" fill="#96A9B3"/>
<path d="M28.5469 15.1602C28.7096 15.1602 28.8723 15.1602 29.0774 15.1602C28.9006 15.3441 28.7379 15.2875 28.5469 15.1602Z" fill="#96A9B3"/>
<path d="M55.0595 49.5028C54.8755 49.715 54.6563 49.6937 54.3945 49.5947C54.6138 49.4249 54.8473 49.5381 55.0595 49.5028Z" fill="#96A9B3"/>
<path d="M43.2038 9.98175C43.225 10.1091 43.1543 10.1444 43.0765 10.1232C43.0128 10.1091 42.935 10.0596 42.9209 10.0101C42.8926 9.93224 42.9562 9.8615 43.0411 9.88272C43.1119 9.89687 43.1614 9.95346 43.2038 9.98175Z" fill="#96A9B3"/>
<path d="M82.5543 39.8754C79.7814 39.8825 77.5956 37.633 77.5744 34.7682C77.5532 31.8325 79.7177 29.5194 82.4906 29.4982C85.2423 29.477 87.4493 31.7901 87.4706 34.7116C87.4918 37.4633 85.1999 39.9815 82.5543 39.8754Z" fill="#F0F2F5"/>
<path d="M87.8122 20.1611C87.8122 22.4318 87.8122 24.6954 87.8122 26.9661C87.7839 26.9661 87.7556 26.9661 87.7344 26.9661C87.7344 24.6883 87.7344 22.4106 87.7344 20.1328C87.7556 20.1399 87.7839 20.147 87.8122 20.1611Z" fill="#96A9B3"/>
<path d="M119.816 32.9493C118.316 32.9493 116.817 32.9068 115.324 32.9634C114.546 32.9917 114.553 32.7088 114.786 32.1287C115.805 29.6246 118.762 28.3725 121.408 29.3416C122.893 29.8863 124.067 30.7988 124.81 32.2207C125.079 32.73 125.093 32.9705 124.393 32.9563C122.872 32.921 121.344 32.9493 119.816 32.9493Z" fill="#F0F2F5"/>
<path d="M152.274 39.6491C152.274 36.3103 152.274 32.9715 152.274 29.6327C152.302 29.6327 152.33 29.6327 152.351 29.6327C152.351 32.9786 152.351 36.3315 152.351 39.6774C152.323 39.6704 152.295 39.6633 152.274 39.6491Z" fill="#96A9B3"/>
<path d="M152.289 25.5376C152.289 23.7338 152.289 21.9229 152.289 20.1191C152.317 20.1191 152.346 20.1191 152.367 20.1191C152.367 21.9229 152.367 23.7268 152.367 25.5306C152.339 25.5306 152.317 25.5306 152.289 25.5376Z" fill="#96A9B3"/>
<path d="M104.421 34.6035C104.421 37.2208 104.421 39.831 104.421 42.4483C104.47 39.831 104.315 37.2067 104.421 34.6035Z" fill="#96A9B3"/>
<path d="M98.0895 27.383C98.0895 32.271 98.0895 37.166 98.0895 42.054C98.0612 42.054 98.0329 42.054 98.0117 42.054C98.0117 37.1519 98.0117 32.2498 98.0117 27.3477C98.0329 27.3618 98.0612 27.376 98.0895 27.383Z" fill="#96A9B3"/>
<path d="M68.9372 0.593782C70.4651 0.600856 71.7384 1.8034 71.7172 3.21815C71.696 4.59754 70.4156 5.76471 68.9372 5.77178C67.4022 5.77178 66.1289 4.60461 66.1289 3.17571C66.1289 1.74681 67.3951 0.586708 68.9372 0.593782Z" fill="#96A9B3"/>
<path d="M33.9862 30.2107C35.4081 29.0506 36.9855 28.7464 38.7186 29.3972C38.3437 29.7297 38.3437 29.7297 37.8697 29.6094C37.9334 30.0268 38.1597 30.0834 38.5559 29.9985C39.2562 29.8358 40.5365 30.5997 40.7912 31.2717C41.0388 31.9296 40.7204 32.4601 40.0272 32.5097C39.5533 32.545 39.0723 32.545 38.5983 32.4318C38.2234 32.3399 37.8556 32.347 37.5302 32.5804C37.2543 32.6582 36.9643 32.6228 36.6884 32.6299C35.5566 32.4672 34.4319 32.2126 33.3001 32.6441C33.0666 32.736 32.8898 32.5875 32.7766 32.3823C32.6564 32.1701 32.6847 31.972 32.8544 31.7952C33.1515 31.491 33.3567 31.0949 33.7457 30.8898C34.0357 30.7341 34.0782 30.5007 33.9862 30.2107Z" fill="#96A9B3"/>
<path d="M37.5547 32.4748C37.7245 31.923 38.1843 32.1211 38.4813 32.1989C38.9836 32.3262 39.4858 32.2979 39.9881 32.3121C40.2922 32.3262 40.653 32.3333 40.6601 31.9443C40.6671 31.6118 40.8228 31.1732 40.3418 30.9752C40.0164 30.8408 39.7546 30.6285 39.5849 30.2961C39.4717 30.0839 39.2595 30.0343 39.0331 30.0768C38.9553 30.0909 38.8846 30.1334 38.8067 30.1475C38.0923 30.2961 38.0357 30.2748 37.6679 29.5958C38.0428 29.5533 38.4177 29.6099 38.7289 29.3906C39.0897 29.5604 39.4434 29.7372 39.8041 29.907C39.981 30.0485 40.0305 30.4375 40.4054 30.2324C41.2896 30.6851 41.8555 31.4349 42.3083 32.2838C42.5841 32.8002 42.4568 32.9699 41.8909 32.8143C41.424 32.5455 40.9147 32.7436 40.4266 32.7224C39.6273 32.6799 38.8209 32.7224 38.0216 32.7012C37.8447 32.7012 37.5618 32.8355 37.5547 32.4748Z" fill="#96A9B3"/>
<path d="M33.989 30.2129C34.4205 30.3614 34.6115 30.6727 34.1234 30.8849C33.5858 31.1183 33.3736 31.6347 32.9351 31.9247C32.7299 32.0591 32.836 32.1935 32.8997 32.335C32.9704 32.4906 33.0695 32.5967 33.2675 32.4977C34.371 31.946 35.4745 32.236 36.578 32.4836C36.5144 32.8868 36.2102 32.7665 35.9626 32.7524C35.6231 32.7382 35.2835 32.625 34.9652 32.8231C34.2013 32.9363 33.4302 32.8797 32.6663 32.8797C32.2843 32.8797 32.1923 32.7524 32.3409 32.3987C32.7158 31.5357 33.1543 30.7222 33.989 30.2129Z" fill="#96A9B3"/>
<path d="M34.9727 32.8157C35.4395 32.3559 36.1115 32.8935 36.5855 32.4691C36.9038 32.4691 37.2292 32.4691 37.5475 32.4691C38.6793 32.8228 39.8465 32.5398 40.9924 32.6247C41.2966 32.6459 41.6503 32.7096 41.7847 32.2852C41.9615 32.4479 41.8625 32.6388 41.8837 32.8086C39.5848 32.8864 37.2787 32.9006 34.9727 32.8157Z" fill="#96A9B3"/>
<path d="M40.3966 30.2407C40.1844 30.3185 40.4673 30.6863 40.2268 30.6368C39.8944 30.5732 39.7741 30.2549 39.7953 29.9153C40.0641 29.9012 40.2622 30.0073 40.3966 30.2407Z" fill="#96A9B3"/>
<path d="M36.32 43.8574C36.03 43.8362 35.7046 43.9918 35.457 43.7088C35.7541 43.7018 36.0512 43.7088 36.32 43.8574Z" fill="#F0F2F5"/>
<path d="M53.2974 39.2253C53.0286 39.1405 52.7881 39.0131 52.6396 38.7656C52.5759 38.3694 52.201 38.2209 51.9888 37.9521L51.9958 37.9591C51.9251 37.1598 51.3521 36.5444 51.246 35.738C51.1682 35.1226 51.1328 34.5637 51.2885 33.9483C51.4512 33.2975 51.8544 32.7458 51.8544 32.0101C51.8544 31.4866 52.4769 31.1259 52.7881 30.6732C54.5919 29.2655 56.9121 29.2089 58.6027 30.5246C58.1429 31.14 58.5886 31.4371 59.0272 31.7272C59.8972 32.3072 60.0599 33.2056 60.1165 34.1535C60.1236 34.3232 60.0458 34.4789 59.8336 34.4647C59.6355 34.4576 59.6497 34.2737 59.6426 34.2454C60.2085 35.2711 59.8831 36.4595 59.876 37.6337C59.8336 37.6903 59.7982 37.754 59.7558 37.8106C59.6921 37.8672 59.6284 37.8672 59.5648 37.8177C59.3243 37.563 59.0908 37.6691 58.7937 37.8884C59.105 37.6974 59.3455 37.563 59.5789 37.853C59.4445 38.2562 59.2111 38.5038 58.7654 38.617C58.1571 38.7726 57.8883 39.4517 57.2092 39.6215C56.2189 39.862 55.271 39.9822 54.3443 39.5224C54.0048 39.3385 53.6157 39.4376 53.2974 39.2253Z" fill="#96A9B3"/>
<path d="M59.8908 37.6177C59.5583 37.2923 59.7847 36.8608 59.7635 36.5142C59.7069 35.6017 59.7564 34.675 59.4522 33.6917C59.8554 33.8686 59.5654 34.2647 59.9686 34.3284C59.8766 33.529 59.7988 32.7439 59.3107 32.1002C59.0773 31.796 58.6317 31.796 58.3558 31.3645C57.9879 30.7986 58.2921 30.7208 58.6104 30.5156C60.0252 31.3433 60.9306 33.522 60.6335 35.4673C60.5204 36.2242 60.393 36.9881 59.8908 37.6177Z" fill="#96A9B3"/>
<path d="M52.7939 30.6582C52.7161 30.9482 52.5534 31.1817 52.3624 31.408C52.129 31.6768 51.8106 31.8466 52.0865 32.3984C52.2351 32.6955 51.7399 33.3321 51.5277 33.8131C51.0042 35.0015 51.1882 36.0767 52.0512 37.0529C52.3058 37.3429 51.9167 37.6471 51.9946 37.9583C50.4525 35.7796 50.8698 32.0376 52.7939 30.6582Z" fill="#96A9B3"/>
<path d="M59.5611 37.7754C59.6318 37.7825 59.7025 37.7895 59.7733 37.7966C58.9103 39.4802 56.6042 40.3573 54.5175 39.7702C54.086 39.6499 53.6332 39.558 53.3008 39.2255C53.8101 39.2326 54.277 39.1265 54.7721 39.5368C55.2461 39.9258 55.9959 39.8268 56.5476 39.6641C57.7007 39.3175 58.6132 38.504 59.5611 37.7754Z" fill="#96A9B3"/>
<path d="M51.9883 37.9434C52.2854 38.1485 52.8796 38.1202 52.6391 38.7568C52.3207 38.5659 52.0802 38.3112 51.9883 37.9434Z" fill="#96A9B3"/>
<path d="M70.4648 4.64001C69.9767 4.82393 69.6301 4.73906 69.425 4.22974C69.3472 4.03875 69.2198 3.85483 69.0784 3.69213C68.9369 3.52236 68.7176 3.43747 68.4983 3.47992C68.2154 3.54358 68.2861 3.79824 68.2649 4.00338C68.2366 4.3217 68.4064 4.74612 67.8051 4.71076C67.2675 4.68246 67.4373 4.27926 67.4302 3.99631C67.409 3.33138 67.4443 2.65937 67.416 1.99443C67.4019 1.57001 67.5646 1.41439 67.9749 1.44268C68.4559 1.47805 68.944 1.41439 69.4108 1.49927C70.1465 1.63367 70.4224 2.31982 69.9414 2.87157C69.6796 3.16867 69.6938 3.28893 69.9343 3.56481C70.2031 3.86898 70.4082 4.22266 70.4648 4.64001Z" fill="#F0F2F5"/>
<path d="M59.5569 37.7736C59.3023 37.8231 59.0547 37.8868 58.8 37.908C58.6798 37.9222 58.51 37.8514 58.5383 37.6887C58.5737 37.4836 58.6939 37.6251 58.8071 37.6392C59.0617 37.6534 59.3801 37.2855 59.5569 37.7736Z" fill="#96A9B3"/>
<path d="M52.3789 37.6049C52.5628 37.421 52.7326 37.5624 52.9165 37.5837C52.7326 37.8737 52.5699 37.8171 52.3789 37.6049Z" fill="#96A9B3"/>
<path d="M60.4349 35.3343C60.3783 35.0019 60.3005 34.6906 60.449 34.3652C60.5764 34.726 60.5056 35.0443 60.4349 35.3343Z" fill="#96A9B3"/>
<path d="M68.6009 2.95681C68.3392 2.98511 68.2472 2.77997 68.2543 2.46165C68.2614 2.14333 68.3604 1.94526 68.7141 1.98063C69.0253 2.00893 69.3153 2.11504 69.3153 2.48287C69.3153 2.86486 69.0112 2.93559 68.6009 2.95681Z" fill="#96A9B3"/>
<path d="M68.5709 1.7416C67.8282 1.65672 67.6796 2.0387 67.7433 2.65411C67.807 3.26246 67.6584 3.88495 67.8777 4.50037C67.524 4.44378 67.6018 4.18912 67.5947 3.99106C67.5877 3.48174 67.6301 2.97244 67.5806 2.4702C67.5099 1.73453 67.7999 1.48695 68.5709 1.7416Z" fill="#96A9B3"/>
</svg>
