<svg width="80" height="63" viewBox="0 0 80 63" fill="none" xmlns="http://www.w3.org/2000/svg">
<path d="M73.7236 20.3823C72.9177 21.9805 72.13 23.5878 71.3013 25.1723C70.7185 26.2879 70.1129 27.3943 69.4481 28.4643C68.7378 29.5981 67.9956 30.7182 67.176 31.7791C66.4247 32.7489 65.596 33.6733 64.7263 34.5384C63.7565 35.5037 62.641 36.3142 61.316 36.7285C59.695 37.2339 58.2061 36.9562 56.9357 35.7587C55.7337 34.6249 55.1053 33.1815 54.6044 31.6516C54.1582 30.2993 53.712 28.9424 53.1793 27.622C52.428 25.7779 51.5628 23.9885 50.4792 22.3083C49.7871 21.2292 49.0312 20.2092 48.1297 19.294C47.4194 18.5746 46.6499 17.9508 45.7301 17.5183C44.8331 17.0903 43.8997 17.0083 42.9116 17.113C41.5092 17.2678 40.2799 17.8188 39.2007 18.6702C38.4585 19.2531 37.7938 19.9452 37.1381 20.6281C36.059 21.7574 35.253 23.0915 34.4517 24.421C34.0282 25.1222 33.6457 25.8553 33.3042 26.5975C32.471 28.4006 31.6605 30.2173 30.8591 32.0295C30.3674 33.136 29.8984 34.2515 29.2109 35.2532C28.4459 36.3642 27.5535 37.3568 26.3286 37.9852C25.6365 38.3404 24.9126 38.5544 24.1249 38.6044C22.217 38.7319 20.6188 37.9852 19.1299 36.9106C17.6592 35.8497 16.6347 34.4063 15.6467 32.9174C12.7098 28.4825 9.75474 24.0613 6.80422 19.6355C5.28343 17.3543 3.75352 15.0823 2.24184 12.8011C1.6317 11.8813 1.10352 10.9206 0.739263 9.87332C0.352235 8.76232 0.179214 7.60579 0.315812 6.44015C0.475177 5.06051 1.01246 3.82658 1.96409 2.77932C2.66074 2.01438 3.44845 1.37692 4.37732 0.921593C5.25155 0.489033 6.16676 0.188517 7.14116 0.0746849C8.27948 -0.0619132 9.40413 -0.0300414 10.4969 0.329667C11.3028 0.593756 12.0223 1.01721 12.6643 1.58182C13.4201 2.24659 13.8845 3.11627 14.4082 3.95407C15.5419 5.77538 16.662 7.61034 17.7913 9.4362C18.538 10.6428 19.2893 11.8494 20.036 13.0561C20.9831 14.5859 21.9165 16.1204 22.8727 17.6412C23.4555 18.5701 24.1021 19.4443 25.031 20.0726C25.5865 20.4506 26.2011 20.6782 26.8523 20.6737C27.731 20.6691 28.5279 20.3367 29.2564 19.845C30.0487 19.3031 30.7043 18.6201 31.3281 17.9007C32.4573 16.5894 33.3999 15.146 34.1967 13.6207C35.1483 11.8039 36.0225 9.94617 36.9469 8.11576C37.4067 7.20055 37.9759 6.35364 38.6725 5.59324C39.2554 4.95579 39.8928 4.39118 40.6578 4.00871C42.5201 3.0844 44.314 3.28474 45.9897 4.46404C46.9914 5.16524 47.7654 6.085 48.3892 7.14136C49.136 8.39806 49.5139 9.80502 50.0238 11.1528C50.6704 12.8603 51.317 14.5632 52 16.257C52.3824 17.2086 52.8013 18.1557 53.2703 19.0709C53.885 20.273 54.5361 21.4568 55.2328 22.6134C55.7564 23.483 56.3301 24.3345 56.9676 25.1313C57.6597 25.9964 58.5567 26.6385 59.5948 27.0574C60.3051 27.3442 61.0382 27.4945 61.8077 27.5582C63.4423 27.6903 64.9586 27.2941 66.4384 26.6567C67.6905 26.1148 68.8061 25.359 69.8533 24.503C70.9325 23.6196 71.9023 22.6179 72.7492 21.5024C73.0452 21.1108 73.3548 20.7329 73.6599 20.3458C73.6735 20.3458 73.7008 20.364 73.7236 20.3823Z" fill="#96A9B3"/>
<path d="M79.8023 7.48397C79.8206 9.67865 79.1831 11.2996 77.9583 12.6884C76.4967 14.3503 74.6207 15.1881 72.4352 15.1972C70.5683 15.2063 68.8882 14.5598 67.4949 13.2666C65.7737 11.6684 64.9632 9.68775 65.0816 7.34282C65.2592 3.79582 68.3646 0.294359 72.7357 0.440064C76.4694 0.567555 79.8524 3.74574 79.8023 7.48397Z" fill="#96A9B3"/>
<path d="M10.4208 55.9892C10.1021 56.9727 9.78333 57.9334 9.46916 58.8987C9.18685 59.7821 8.88178 60.6608 8.6359 61.5533C8.4993 62.045 8.22155 62.341 7.75256 62.473C7.65695 62.5004 7.55222 62.5049 7.45205 62.5049C6.56416 62.5095 5.67627 62.514 4.79294 62.5049C4.01433 62.5004 3.73203 62.1862 3.55445 61.6352C2.84414 59.4132 2.12928 57.1913 1.41897 54.9693C1.05926 53.84 0.708657 52.7063 0.353502 51.5725C0.0894127 50.7256 0.622149 50.1428 1.40986 50.1018C2.05187 50.0699 2.69389 50.0654 3.3359 50.1018C3.99613 50.1382 4.30575 50.4251 4.50154 51.0216C4.88857 52.2054 5.23917 53.4029 5.59888 54.5913C5.83565 55.3745 6.06786 56.1577 6.36382 56.9499C6.44123 56.745 6.52318 56.5447 6.58693 56.3352C7.12877 54.6642 7.66605 52.9977 8.20789 51.3266C8.23976 51.2219 8.26709 51.1172 8.30352 51.0125C8.53118 50.3067 8.83169 50.1337 9.542 50.1018C10.1339 50.0745 10.7259 50.1064 11.3132 50.0927C12.2649 50.0745 12.579 50.457 12.8067 51.2219C13.0981 52.1963 13.385 53.1707 13.6764 54.1451C13.9587 55.0876 14.2501 56.0302 14.5369 56.9773C14.546 57 14.5552 57.0228 14.6007 57.1184C14.7555 56.6221 14.8921 56.1895 15.0287 55.757C15.5387 54.1724 16.0395 52.5879 16.5586 51.0034C16.7908 50.2885 17.0868 50.1473 17.7789 50.1064C18.2888 50.0745 18.7988 50.0973 19.3088 50.1018C19.8643 50.1064 20.2968 50.416 20.4243 50.9533C20.4699 51.1445 20.4289 51.3722 20.3697 51.5634C20.0282 52.6562 19.6685 53.7444 19.3179 54.8372C18.6485 56.9272 17.9838 59.0171 17.3144 61.1025C17.2416 61.3302 17.1824 61.5624 17.0959 61.7855C16.8955 62.3046 16.4857 62.5004 15.9576 62.5049C15.1334 62.5095 14.3047 62.5049 13.4806 62.5049C12.6018 62.5049 12.2922 62.2727 12.0463 61.444C11.7321 60.374 11.4088 59.304 11.0856 58.2385C10.8761 57.4918 10.653 56.7496 10.4208 55.9892Z" fill="#96A9B3"/>
<path d="M32.8373 56.3123C32.8373 54.6594 32.8373 53.0112 32.8373 51.3583C32.8373 50.9394 32.9603 50.5524 33.3246 50.3247C33.5158 50.2018 33.7662 50.1107 33.9893 50.1107C35.7196 50.0925 37.4544 50.0698 39.1892 50.1107C40.414 50.1381 41.6252 50.3612 42.727 50.9258C44.3435 51.7545 45.418 53.0385 45.7823 54.8325C46.1511 56.6219 45.9553 58.343 44.8716 59.8775C44.2069 60.82 43.3099 61.4802 42.2353 61.9083C41.0788 62.3681 39.8767 62.5229 38.6382 62.5138C37.1174 62.5002 35.6012 62.4956 34.0804 62.5184C33.3655 62.5275 32.8282 62.0858 32.8282 61.2708C32.8374 59.6134 32.8373 57.9606 32.8373 56.3123ZM37.0719 53.3891C37.0719 55.3515 37.0719 57.2685 37.0719 59.1444C37.8824 59.1444 38.6792 59.2082 39.4578 59.1262C40.3047 59.0397 40.9786 58.5935 41.3656 57.7967C41.7618 56.9862 41.7845 56.1393 41.5432 55.2832C41.2928 54.3771 40.6963 53.8262 39.7993 53.5667C38.9114 53.3117 38.0008 53.4255 37.0719 53.3891Z" fill="#96A9B3"/>
<path d="M62.4152 62.5046C61.5 62.5046 60.5803 62.5046 59.6651 62.5046C59.0549 62.5046 58.5905 62.0447 58.5905 61.4437C58.5905 58.0196 58.595 54.5956 58.5859 51.1715C58.5859 50.534 59.1187 50.1106 59.6332 50.106C61.3953 50.0878 63.162 50.0605 64.9241 50.1106C66.2081 50.147 67.4785 50.3701 68.6213 51.0212C70.2286 51.9319 71.244 53.266 71.5628 55.1192C71.7585 56.2803 71.6902 57.4049 71.3032 58.5023C70.7249 60.146 69.5593 61.2388 67.9702 61.8945C66.8501 62.3589 65.6754 62.5182 64.4688 62.5091C63.7812 62.5 63.0982 62.5046 62.4152 62.5046ZM62.8159 59.1443C63.6173 59.1443 64.4005 59.2171 65.17 59.1261C66.0852 59.0168 66.7864 58.5114 67.1689 57.6326C67.4056 57.0908 67.4375 56.517 67.392 55.9433C67.3146 54.9917 66.9093 54.2267 66.0351 53.7532C65.6389 53.5392 65.2155 53.4436 64.7647 53.4481C64.1182 53.4527 63.4761 53.4481 62.8159 53.4481C62.8159 55.3377 62.8159 57.2501 62.8159 59.1443Z" fill="#96A9B3"/>
<path d="M54.1187 56.3071C54.1187 58.01 54.1187 59.7129 54.1187 61.4113C54.1187 62.0169 53.6406 62.4995 53.0396 62.4995C52.3793 62.4995 51.7145 62.4995 51.0543 62.4995C50.3713 62.4995 49.9069 62.0305 49.9069 61.3384C49.9069 57.9736 49.9115 54.6132 49.9023 51.2484C49.9023 50.6337 50.3531 50.0964 51.0543 50.0873C51.6963 50.0827 52.3383 50.0782 52.9804 50.0873C53.6315 50.0964 54.1278 50.5563 54.1232 51.2529C54.105 52.9467 54.1187 54.6269 54.1187 56.3071Z" fill="#96A9B3"/>
<path d="M24.2124 56.2972C24.2124 54.6171 24.2306 52.9324 24.2032 51.2522C24.1941 50.5556 24.6859 50.123 25.3233 50.1002C25.9836 50.0775 26.6484 50.0866 27.3086 50.0957C27.9233 50.1048 28.4241 50.6193 28.4241 51.2932C28.415 54.6262 28.4241 57.9592 28.4105 61.2922C28.4105 61.538 28.3057 61.7976 28.1919 62.0207C28.0189 62.3622 27.6865 62.4942 27.3177 62.4988C26.6256 62.5079 25.9335 62.5033 25.2368 62.4988C24.6859 62.4942 24.2032 62.0116 24.2032 61.4561C24.2124 59.7395 24.2124 58.0184 24.2124 56.2972Z" fill="#96A9B3"/>
<path d="M79.805 56.3219C79.805 58.043 79.805 59.7687 79.805 61.4899C79.805 62.0135 79.3497 62.4961 78.8215 62.5052C78.0885 62.5143 77.3554 62.5143 76.6177 62.5052C76.167 62.4961 75.7071 62.0772 75.6525 61.631C75.616 61.3624 75.5933 61.0892 75.5933 60.8205C75.5887 57.6924 75.5887 54.5598 75.5933 51.4317C75.5933 51.0538 75.6388 50.6622 75.9757 50.43C76.2034 50.2751 76.4903 50.134 76.7589 50.1158C77.3964 50.0702 78.0429 50.0976 78.6849 50.1021C79.3361 50.1067 79.805 50.5711 79.805 51.2177C79.805 52.916 79.805 54.619 79.805 56.3219Z" fill="#96A9B3"/>
</svg>
