<svg width="202" height="53" viewBox="0 0 202 53" fill="none" xmlns="http://www.w3.org/2000/svg">
<path d="M22.0053 0C25.0242 1.87252 28.0337 3.74504 31.5494 5.93283C29.6387 7.11749 28.0146 8.14929 26.3618 9.13332C23.2091 11.0249 20.1137 13.0503 16.8463 14.7127C13.6554 16.3368 10.9708 18.0565 12.3274 23.0626C7.91361 20.6837 4.245 18.7061 0.585938 16.738C0.585938 15.1712 0.585938 13.614 0.585938 12.0472C1.9139 10.939 3.13677 9.63966 4.59849 8.74162C9.46131 5.75132 14.4197 2.90432 19.3303 0C20.2283 0 21.1168 0 22.0053 0Z" fill="#96A9B3"/>
<path d="M0.583774 20.7617C6.81277 24.4399 12.9462 28.29 19.3472 31.6338C20.6178 32.293 22.9203 30.9842 25.1845 30.4874C25.1845 33.9553 25.4233 37.7768 25.089 41.541C24.8979 43.7192 21.0669 44.9707 18.602 43.6523C13.3093 40.8149 8.08342 37.8341 2.99131 34.6528C2.04549 34.0604 1.63468 32.2739 1.39584 30.9555C0.956366 28.4811 0.832168 25.9398 0.574219 23.4367C0.583772 22.5483 0.583774 21.6502 0.583774 20.7617Z" fill="#96A9B3"/>
<path d="M87.6151 52.2216C87.061 51.8968 86.3731 51.6962 85.9814 51.2376C85.1025 50.2154 83.6503 49.0021 83.7554 48.0085C83.8796 46.7856 85.198 44.9417 86.2871 44.7125C88.9048 44.1679 91.7423 44.0341 94.3791 44.4736C95.6115 44.6838 97.3312 46.5468 97.4076 47.741C97.4745 48.9065 95.7739 50.2345 94.723 51.3809C94.3218 51.8204 93.567 51.9446 92.9747 52.2121C91.1882 52.2217 89.4016 52.2216 87.6151 52.2216ZM90.4908 44.722C88.1979 44.8558 85.6852 45.1519 85.7426 48.104C85.7903 50.865 88.3794 51.209 90.443 51.2472C92.669 51.2854 95.3727 50.8173 95.4013 47.9894C95.43 45.1137 92.8314 44.808 90.4908 44.722Z" fill="#96A9B3"/>
<path d="M106.358 52.2218C106.205 49.6136 106.043 47.0055 105.871 44.1776C108.986 44.1776 111.699 43.7763 114.202 44.3209C115.816 44.6744 117.928 46.1743 118.386 47.6169C119.132 49.9671 116.8 50.8651 114.832 51.5148C114.231 51.7154 113.648 51.9829 113.055 52.2122C110.82 52.2218 108.594 52.2218 106.358 52.2218ZM107.677 44.9896C108.04 47.1488 108.374 49.0882 108.699 51.0275C111.021 50.6072 113.39 50.3492 115.625 49.6423C116.103 49.4894 116.6 47.3589 116.18 46.7953C114.164 44.0247 111.154 44.8272 107.677 44.9896Z" fill="#96A9B3"/>
<path d="M64.8516 52.2209C64.8516 49.6796 64.8516 47.1384 64.8516 44.234C67.5935 44.234 70.0774 44.0907 72.5327 44.3296C73.1824 44.3869 73.7365 45.5907 74.3288 46.2594C71.7015 48.5141 74.6441 50.2433 74.8925 52.2305C74.2237 52.2305 73.555 52.2305 72.8862 52.2305C72.0837 49.202 70.364 47.8071 67.0585 48.8485C66.9916 50.0522 66.9247 51.1414 66.8578 52.2305C66.1986 52.2209 65.5299 52.2209 64.8516 52.2209ZM67.4406 48.0268C69.0743 47.4345 70.6506 46.8613 72.2174 46.2976C71.3098 45.7817 70.45 44.9888 69.4755 44.8073C67.6508 44.4633 66.4757 45.1034 67.4406 48.0268Z" fill="#96A9B3"/>
<path d="M129.798 52.2188C126.435 50.2698 126.874 47.27 127.4 44.2415C127.706 44.1459 128.011 44.0408 128.327 43.9453C128.594 44.8338 129.139 45.751 129.072 46.6203C128.843 49.4005 129.597 51.2443 132.731 51.2825C136.075 51.3208 136.82 49.3336 136.524 46.4579C136.447 45.7223 136.667 44.958 137.575 43.9453C137.89 44.7001 138.329 45.4357 138.482 46.2286C139.065 49.133 137.966 51.1679 135.148 52.2188C133.371 52.2188 131.584 52.2188 129.798 52.2188Z" fill="#96A9B3"/>
<path d="M47.4429 52.2213C47.2901 49.6036 47.1468 46.9859 46.9844 44.1676C49.6499 44.1676 51.8567 43.9861 54.0063 44.2536C54.8948 44.3587 55.6782 45.4191 56.4998 46.0401C55.7069 46.8235 55.0381 47.9317 54.0828 48.3043C52.6688 48.8489 51.0542 48.8585 49.325 49.126C49.1531 50.0909 48.962 51.1513 48.7709 52.2213C48.341 52.2213 47.892 52.2213 47.4429 52.2213ZM49.5543 44.6071C49.2964 44.8937 49.0384 45.1803 48.7805 45.4764C49.2295 46.3267 49.6976 47.9126 50.118 47.9031C51.6561 47.8553 53.1847 47.2821 54.7133 46.9C54.6751 46.4032 54.6369 45.9159 54.5987 45.4191C52.9268 45.1516 51.2357 44.8746 49.5543 44.6071Z" fill="#96A9B3"/>
<path d="M188.048 52.2189C188.382 51.8177 188.679 51.1107 189.051 51.0725C190.685 50.8719 192.347 50.8719 194 50.7954C194.076 50.356 194.143 49.9165 194.22 49.477C193.006 49.0375 191.736 48.7223 190.618 48.1204C189.462 47.4899 188.468 46.5823 187.398 45.7893C188.574 45.1492 189.691 44.2703 190.952 43.9359C192.147 43.6206 193.484 43.869 194.831 44.5569C193.045 44.7671 191.258 44.9772 189.481 45.1779C189.433 45.5122 189.386 45.8371 189.328 46.1715C190.456 46.6109 191.621 46.9644 192.691 47.5185C193.885 48.1395 194.974 48.9516 196.111 49.6776C195.213 50.5279 194.306 51.3686 193.408 52.2189C191.612 52.2189 189.835 52.2189 188.048 52.2189Z" fill="#96A9B3"/>
<path d="M151.897 52.2219C149.948 51.0564 146.671 51.0373 147.12 47.6839C147.559 44.4357 150.54 44.3019 153.024 43.9389C154.591 43.7096 156.215 43.9007 157.849 44.6459C156.091 44.7223 154.218 44.4452 152.623 44.9994C151.285 45.4675 150.273 46.9005 149.126 47.9037C150.234 48.9164 151.199 50.3208 152.508 50.8462C153.855 51.3812 155.546 51.0086 157.075 51.171C157.39 51.2093 157.638 51.8589 157.925 52.2315C155.909 52.2219 153.903 52.2219 151.897 52.2219Z" fill="#96A9B3"/>
<path d="M171.977 52.2211C171.977 49.8995 171.977 47.578 171.977 45.18C170.324 44.9316 169.082 44.7501 167.84 44.5686C167.849 44.4253 167.869 44.282 167.878 44.1387C171.165 44.1387 174.441 44.1387 177.728 44.1387C177.747 44.2915 177.766 44.4539 177.795 44.6068C176.61 44.7501 175.416 44.8839 174.174 45.0367C173.887 47.4634 173.601 49.8422 173.324 52.2211C172.865 52.2211 172.426 52.2211 171.977 52.2211Z" fill="#96A9B3"/>
<path d="M55.9885 36.3808C53.0938 36.3808 50.5812 36.3808 47.6291 36.3808C47.6291 31.8906 47.6291 27.601 47.6291 23.3114C47.6291 19.7574 47.6864 16.1939 47.6004 12.6399C47.5526 10.8343 48.1163 9.96487 50.0462 10.0222C54.4886 10.1464 58.9502 9.97442 63.3831 10.2801C68.5038 10.6336 72.0769 14.3404 72.2298 18.9644C72.4113 24.7444 69.6407 28.2888 64.0996 29.3111C62.6857 29.569 61.2144 30.0371 59.8482 29.8556C56.4089 29.4066 55.4822 30.9543 55.9885 34.021C56.0745 34.6611 55.9885 35.3299 55.9885 36.3808ZM56.5618 15.9359C56.2465 16.2703 55.9408 16.5951 55.6255 16.9295C56.0841 19.0695 56.0076 21.6299 57.2305 23.168C57.8133 23.9037 61.0711 23.1203 62.6666 22.2222C63.4308 21.7923 63.7079 18.4867 63.2493 18.2288C61.2048 17.111 58.8164 16.6429 56.5618 15.9359Z" fill="#96A9B3"/>
<path d="M165.537 36.8661C162.528 36.5126 159.9 36.1973 157.273 35.8821C157.33 35.7005 157.388 35.5286 157.445 35.347C155.544 35.7961 153.652 36.5604 151.732 36.6368C146.726 36.8374 143.669 34.1146 143.401 29.1372C143.172 24.924 143.353 20.6917 143.353 16.0773C145.856 16.0773 148.302 16.0773 151.063 16.0773C151.063 19.2109 150.987 22.3063 151.092 25.3921C151.168 27.5512 151.474 30.0734 154.273 30.0161C156.891 29.9588 157.502 27.7805 157.445 25.4017C157.369 22.4018 157.426 19.3924 157.426 16.0391C160.111 16.0391 162.69 16.0391 165.537 16.0391C165.537 22.7171 165.537 29.4333 165.537 36.8661Z" fill="#96A9B3"/>
<path d="M104.223 36.7426C99.5413 36.6853 95.739 34.9752 93.5703 30.657C91.6596 26.8546 91.9939 22.9567 94.6881 19.7084C98.0701 15.6195 102.799 14.8361 107.748 15.8201C113.939 17.0525 117.005 21.6574 116.232 28.0297C115.592 33.2269 110.652 36.8095 104.223 36.7426ZM108.493 26.0712C108.111 23.5395 107.156 21.6574 104.29 21.8103C101.576 21.9536 100.812 23.7783 100.812 26.1667C100.812 28.7558 101.844 30.5996 104.633 30.571C107.49 30.5328 108.092 28.2781 108.493 26.0712Z" fill="#96A9B3"/>
<path d="M124.506 36.3428C124.506 30.8303 124.325 25.7095 124.573 20.6079C124.736 17.3883 123.723 16.0603 120.475 16.4998C119.3 16.6622 118.086 16.5285 116.691 16.5285C116.691 14.3216 116.691 12.4681 116.691 10.3281C124.64 10.3281 132.57 10.3281 140.738 10.3281C140.738 12.2484 140.738 14.0923 140.738 16.3183C138.321 16.4425 135.837 16.5667 133.038 16.7195C133.038 23.2829 133.038 29.703 133.038 36.3523C130.114 36.3428 127.516 36.3428 124.506 36.3428Z" fill="#96A9B3"/>
<path d="M29.246 40.0493C29.246 33.8681 29.2078 28.5371 29.2556 23.2157C29.2938 19.7191 29.953 15.9836 24.4883 15.1715C24.6029 14.8563 24.7176 14.5314 24.8418 14.2162C28.2524 12.2863 31.5867 10.1749 35.1215 8.51261C36.6979 7.77697 39.9939 10.815 40.0512 13.0506C40.2041 19.1841 40.2614 25.3175 40.0608 31.451C40.0226 32.6452 38.9239 34.1356 37.8825 34.8903C35.4559 36.6291 32.7618 37.9857 29.246 40.0493Z" fill="#96A9B3"/>
<path d="M185.619 17.8454C186.459 16.5557 187.644 15.371 188.084 13.9571C189.574 9.16115 195.87 6.14218 200.255 8.42551C200.742 8.67391 201.287 9.82991 201.096 10.1929C200.398 11.5305 199.615 13.4508 198.478 13.766C196.663 14.2819 195.688 14.6927 195.927 16.8232C197.284 16.9092 198.468 16.9761 199.882 17.062C199.882 18.8677 199.882 20.5778 199.882 22.5554C195.86 21.9058 195.679 24.2369 195.86 27.1221C196.042 30.0933 195.898 33.0931 195.898 36.3318C193.099 36.3318 190.51 36.3318 187.577 36.3318C187.577 32.625 187.701 29.0901 187.501 25.5744C187.443 24.5617 186.345 23.6541 185.953 22.6127C185.351 20.9982 184.95 19.3072 184.453 17.6544C184.835 17.7212 185.227 17.7786 185.619 17.8454Z" fill="#96A9B3"/>
<path d="M183.68 17.0059C183.68 18.8593 183.68 20.5121 183.68 22.5948C178.798 21.4961 178.998 24.6106 179.161 27.8684C179.295 30.6199 179.189 33.3809 179.189 36.3521C176.505 36.3521 174.126 36.3521 171.394 36.3521C171.394 32.9701 171.432 29.7887 171.384 26.5978C171.346 24.5055 171.909 21.9165 168.27 22.5852C168.27 20.6172 168.27 19.079 168.27 17.2925C169.139 17.1014 170.056 16.8912 171.155 16.6428C171.9 7.75792 177.709 7.28023 185.074 8.53177C184.071 11.0253 184.75 14.0825 180.861 14.1111C180.25 14.1207 179.648 15.4486 178.626 16.6524C180.766 16.8053 182.065 16.8912 183.68 17.0059Z" fill="#96A9B3"/>
<path d="M90.4467 22.4595C85.0967 22.7556 84.1986 23.7206 84.1795 28.9846C84.1795 30.2075 84.0266 31.459 84.1795 32.6628C84.5808 35.9493 83.1477 36.7518 80.0046 36.704C77.1289 36.6562 76.0684 36.0066 76.2309 32.9781C76.4792 28.421 76.2117 23.8352 76.3359 19.259C76.3646 18.103 77.0238 15.9916 77.4537 15.9821C79.5173 15.9152 81.6 16.3738 83.6636 16.7368C83.9693 16.7941 84.1986 17.3483 84.3324 17.5202C86.3195 16.6986 88.1252 15.9534 90.4467 14.998C90.4467 17.7877 90.4467 20.0042 90.4467 22.4595Z" fill="#96A9B3"/>
</svg>
