<svg width="188" height="62" viewBox="0 0 188 62" fill="none" xmlns="http://www.w3.org/2000/svg">
<path d="M72.7732 51.9902V48.7538L78.0095 42.0448H72.7732V38.2564H83.6516V41.355L78.3067 48.2064H83.7602V51.9874L72.7732 51.9902Z" fill="#6C757D"/>
<path d="M86.5088 45.1069C86.4883 43.9971 86.671 42.8945 87.0454 41.8682C87.4197 40.8419 87.9776 39.9141 88.6841 39.1431C89.3906 38.372 90.2304 37.7743 91.1509 37.3874C92.0714 37.0006 93.0527 36.8329 94.0332 36.8949C98.8014 36.8949 101.614 40.6921 101.614 45.1069C101.549 47.3217 100.724 49.4209 99.3146 50.9613C97.9053 52.5017 96.0215 53.3628 94.0611 53.3628C92.1006 53.3628 90.217 52.5017 88.8076 50.9613C87.3983 49.4209 86.5746 47.3217 86.5088 45.1069ZM97.0772 45.1069C97.0772 43.0296 95.9865 41.3086 94.0332 41.3086C92.1395 41.3086 91.0459 43.0296 91.0459 45.1069C91.0459 47.2174 92.1376 48.9373 94.0332 48.9373C95.9865 48.9384 97.0772 47.2174 97.0772 45.1069Z" fill="#6C757D"/>
<path d="M102.989 45.1069C102.967 43.9971 103.166 42.8945 103.575 41.8682C103.983 40.8419 104.592 39.9141 105.362 39.1431C106.133 38.372 107.049 37.7743 108.054 37.3874C109.058 37.0006 110.128 36.8329 111.198 36.8949C116.4 36.8949 119.468 40.6921 119.468 45.1069C119.396 47.3217 118.497 49.4209 116.959 50.9613C115.422 52.5017 113.367 53.3628 111.228 53.3628C109.09 53.3628 107.035 52.5017 105.497 50.9613C103.96 49.4209 103.061 47.3217 102.989 45.1069ZM114.519 45.1069C114.519 43.0296 113.328 41.3086 111.198 41.3086C109.132 41.3086 107.939 43.0296 107.939 45.1069C107.939 47.2174 109.13 48.9373 111.198 48.9373C113.329 48.9384 114.519 47.2174 114.519 45.1069Z" fill="#6C757D"/>
<path d="M31.274 61.802C25.1624 61.802 19.188 59.9896 14.1064 56.5942C9.02473 53.1988 5.06406 48.3727 2.72524 42.7263C0.386421 37.0799 -0.225501 30.8667 0.966819 24.8725C2.15914 18.8783 5.10217 13.3723 9.42375 9.05071C13.7453 4.72913 19.2513 1.78609 25.2455 0.593773C31.2397 -0.598548 37.4529 0.0133742 43.0993 2.3522C48.7458 4.69102 53.5718 8.65168 56.9672 13.7333C60.3627 18.815 62.175 24.7893 62.175 30.901C62.1641 39.0931 58.905 46.9465 53.1123 52.7392C47.3196 58.5319 39.4661 61.7911 31.274 61.802ZM31.274 4.00761C25.9563 4.00761 20.7579 5.58453 16.3364 8.53891C11.9149 11.4933 8.46866 15.6925 6.43364 20.6054C4.39863 25.5184 3.86618 30.9245 4.90363 36.14C5.94107 41.3556 8.50184 46.1464 12.2621 49.9066C16.0223 53.6668 20.8131 56.2276 26.0286 57.265C31.2442 58.3025 36.6503 57.77 41.5632 55.735C46.4762 53.7 50.6754 50.2538 53.6298 45.8323C56.5841 41.4107 58.1611 36.2124 58.1611 30.8946C58.1531 23.7662 55.3178 16.932 50.2772 11.8915C45.2366 6.85091 38.4025 4.01558 31.274 4.00761Z" fill="#6C757D"/>
<path d="M29.3103 46.4305C29.3106 46.5609 29.2841 46.6899 29.2324 46.8096C29.1807 46.9293 29.105 47.0371 29.0098 47.1263C28.9147 47.2154 28.8023 47.2841 28.6795 47.328C28.5567 47.3719 28.4262 47.39 28.2961 47.3813C24.2998 47.1243 20.5512 45.3556 17.8119 42.4345C15.0725 39.5133 13.548 35.6589 13.548 31.6543C13.548 27.6497 15.0725 23.7953 17.8119 20.8742C20.5512 17.953 24.2998 16.1843 28.2961 15.9273C28.4262 15.9186 28.5567 15.9368 28.6795 15.9806C28.8023 16.0245 28.9147 16.0931 29.0098 16.1823C29.105 16.2715 29.1807 16.3793 29.2324 16.499C29.2841 16.6187 29.3106 16.7477 29.3103 16.8781V46.4305Z" fill="#ADB5BD"/>
<path d="M45.9742 30.195C42.5352 29.9504 39.2998 28.4736 36.8619 26.0357C34.424 23.5978 32.9472 20.3624 32.7026 16.9234C32.6939 16.7933 32.7121 16.6628 32.756 16.5401C32.7998 16.4173 32.8685 16.3048 32.9577 16.2097C33.0468 16.1146 33.1546 16.0389 33.2743 15.9872C33.394 15.9355 33.523 15.9089 33.6534 15.9092H46.0328C46.1577 15.9092 46.2813 15.9338 46.3967 15.9816C46.512 16.0294 46.6169 16.0994 46.7052 16.1877C46.7934 16.276 46.8635 16.3808 46.9113 16.4961C46.959 16.6115 46.9836 16.7351 46.9836 16.86V29.241C46.9843 29.3712 46.9582 29.5002 46.907 29.6199C46.8558 29.7397 46.7805 29.8476 46.6859 29.937C46.5913 30.0265 46.4792 30.0955 46.3568 30.1399C46.2344 30.1843 46.1042 30.203 45.9742 30.195Z" fill="#CED4DA"/>
<path d="M46.952 34.1094C46.7078 37.5486 45.2311 40.7842 42.7932 43.2221C40.3552 45.6601 37.1196 47.1367 33.6805 47.381C33.5505 47.3895 33.4202 47.3711 33.2976 47.3272C33.175 47.2832 33.0628 47.2145 32.9678 47.1254C32.8729 47.0362 32.7973 46.9285 32.7457 46.8089C32.6941 46.6894 32.6676 46.5604 32.6678 46.4302V34.0508C32.6678 33.7986 32.768 33.5568 32.9464 33.3785C33.1247 33.2002 33.3665 33.1 33.6187 33.1H45.9981C46.1283 33.0993 46.2573 33.1254 46.377 33.1766C46.4967 33.2278 46.6046 33.3031 46.6941 33.3977C46.7835 33.4924 46.8526 33.6044 46.897 33.7268C46.9413 33.8492 46.9601 33.9795 46.952 34.1094Z" fill="#ADB5BD"/>
<path d="M70.9545 31.5086L72.9657 28.2661C73.5459 28.8353 74.2373 29.2785 74.9968 29.5681C75.7562 29.8576 76.5673 29.9872 77.3791 29.9487C78.9103 29.9487 81.072 29.2876 81.072 26.5261V25.4155C80.5683 26.0767 79.919 26.613 79.1746 26.9827C78.4301 27.3525 77.6105 27.5457 76.7793 27.5475C73.2359 27.5475 70.415 25.1156 70.415 20.2232C70.415 15.4495 73.1458 12.9285 76.7793 12.9285C77.6062 12.918 78.4243 13.0996 79.1692 13.4589C79.9141 13.8182 80.5654 14.3454 81.072 14.9991V13.2848H85.7022V26.5241C85.7022 32.4083 80.9888 33.6693 77.388 33.6693C75.0517 33.758 72.7636 32.9895 70.9545 31.5086ZM81.072 22.172V18.299C80.7287 17.9014 80.305 17.5811 79.8288 17.3593C79.3526 17.1375 78.8348 17.0193 78.3095 17.0123C77.4634 17.0272 76.6569 17.3737 76.0638 17.9773C75.4707 18.5809 75.1384 19.3933 75.1384 20.2395C75.1384 21.0857 75.4707 21.8981 76.0638 22.5017C76.6569 23.1053 77.4634 23.4519 78.3095 23.4667C78.8362 23.4592 79.3553 23.34 79.8324 23.1168C80.3095 22.8936 80.7337 22.5716 81.0769 22.172H81.072Z" fill="#6C757D"/>
<path d="M89.0615 27.7867V13.2864H93.6847V15.0571C94.2538 14.4074 94.9494 13.8806 95.729 13.5089C96.5086 13.1372 97.3558 12.9285 98.2189 12.8954V17.3386C97.8464 17.2427 97.4619 17.2024 97.0777 17.2188C96.4527 17.2028 95.8308 17.3113 95.2483 17.5382C94.6657 17.7651 94.1342 18.1057 93.6847 18.5402V27.7867H89.0615Z" fill="#6C757D"/>
<path d="M108.877 27.7859V26.3448C108.293 26.9421 107.591 27.4108 106.815 27.7208C106.04 28.0309 105.208 28.1754 104.373 28.1452C103.73 28.1689 103.089 28.0633 102.487 27.8344C101.886 27.6056 101.336 27.2582 100.871 26.813C100.407 26.3678 100.036 25.8337 99.7815 25.2426C99.527 24.6514 99.3938 24.0151 99.3899 23.3715C99.3899 19.8598 102.151 18.6889 104.373 18.6889C105.203 18.6352 106.034 18.7601 106.811 19.0552C107.588 19.3502 108.292 19.8086 108.877 20.3992V18.9581C108.877 17.6981 107.796 16.8271 105.934 16.8271C104.442 16.8542 103.006 17.4069 101.881 18.388L100.17 15.1751C102.032 13.6803 104.358 12.8841 106.745 12.9244C110.227 12.9244 113.5 14.2111 113.5 18.7186V27.7849L108.877 27.7859ZM108.877 24.0634V22.7766C108.551 22.4236 108.149 22.1486 107.702 21.9719C107.255 21.7953 106.774 21.7215 106.295 21.7562C105.093 21.7562 103.983 22.2966 103.983 23.4388C103.983 24.581 105.094 25.1214 106.295 25.1214C106.777 25.1502 107.259 25.07 107.706 24.8868C108.153 24.7036 108.553 24.4222 108.877 24.0634Z" fill="#6C757D"/>
<path d="M121.485 26.0747V33.3099H116.862V13.2867H121.485V14.9693C121.998 14.3247 122.652 13.8057 123.396 13.452C124.14 13.0983 124.955 12.9192 125.779 12.9284C129.411 12.9284 132.143 15.6295 132.143 20.523C132.143 25.4471 129.411 28.1443 125.779 28.1443C124.952 28.1517 124.135 27.9689 123.391 27.61C122.646 27.2512 121.994 26.7258 121.485 26.0747ZM127.43 20.52C127.473 20.0758 127.423 19.6274 127.282 19.2037C127.142 18.78 126.915 18.3902 126.615 18.0595C126.316 17.7288 125.95 17.4643 125.542 17.2831C125.134 17.1019 124.693 17.008 124.247 17.0073C123.719 17.0174 123.199 17.1405 122.723 17.3682C122.246 17.596 121.824 17.9232 121.485 18.3277V22.7411C121.829 23.1405 122.252 23.4641 122.727 23.6914C123.203 23.9187 123.72 24.0447 124.247 24.0615C126.049 24.0654 127.43 22.7143 127.43 20.522V20.52Z" fill="#6C757D"/>
<path d="M144.392 27.7859V19.349C144.392 17.5783 143.461 17.0072 141.99 17.0072C141.448 17.0144 140.915 17.1453 140.431 17.3899C139.947 17.6345 139.525 17.9863 139.197 18.4186V27.7849H134.574V7.76169H139.197V15.0564C139.831 14.3623 140.607 13.8128 141.472 13.4452C142.338 13.0775 143.272 12.9002 144.211 12.9253C147.513 12.9253 149.016 14.7861 149.016 17.4585V27.7859H144.392Z" fill="#6C757D"/>
<path d="M152.047 9.32461C152.047 8.61992 152.327 7.94409 152.825 7.44579C153.323 6.94749 153.999 6.66757 154.704 6.66757C155.409 6.66757 156.084 6.94749 156.583 7.44579C157.081 7.94409 157.361 8.61992 157.361 9.32461C157.361 10.0293 157.081 10.7052 156.583 11.2035C156.084 11.7018 155.409 11.9817 154.704 11.9817C153.999 11.9817 153.323 11.7018 152.825 11.2035C152.327 10.7052 152.047 10.0293 152.047 9.32461ZM152.376 27.788V13.2867H157V27.787L152.376 27.788Z" fill="#6C757D"/>
<path d="M159.434 20.5203C159.434 15.9871 162.8 12.9257 167.33 12.9257C170.481 12.9257 172.403 14.3064 173.273 15.5981L170.271 18.3903C169.97 17.9471 169.562 17.5876 169.084 17.3452C168.606 17.1029 168.075 16.9857 167.54 17.0046C166.934 16.9886 166.335 17.1287 165.799 17.4113C165.264 17.694 164.81 18.1097 164.482 18.6185C164.153 19.1273 163.961 19.712 163.924 20.3165C163.887 20.9209 164.007 21.5247 164.271 22.0697C164.535 22.6147 164.934 23.0826 165.431 23.4285C165.928 23.7743 166.506 23.9864 167.109 24.0443C167.712 24.1022 168.319 24.0041 168.873 23.7592C169.427 23.5144 169.908 23.1311 170.271 22.6463L173.274 25.4791C172.575 26.3741 171.669 27.0852 170.633 27.5509C169.598 28.0166 168.464 28.2227 167.331 28.1515C162.797 28.1455 159.434 25.0544 159.434 20.5203Z" fill="#6C757D"/>
<path d="M174.143 25.8965L176.064 22.5936C177.525 23.753 179.307 24.4341 181.169 24.5445C182.549 24.5445 183.119 24.1545 183.119 23.524C183.119 21.7236 174.684 23.5844 174.684 17.7002C174.684 15.1485 176.905 12.9265 180.899 12.9265C183.074 12.8998 185.201 13.5733 186.964 14.8476L185.193 18.1198C184.011 17.0916 182.497 16.5262 180.93 16.5282C179.849 16.5282 179.129 16.9489 179.129 17.518C179.129 19.1096 187.535 17.4586 187.535 23.4023C187.535 26.1647 185.103 28.1453 180.96 28.1453C178.496 28.2047 176.088 27.4102 174.143 25.8965Z" fill="#6C757D"/>
</svg>
