<svg width="51" height="56" viewBox="0 0 51 56" fill="none" xmlns="http://www.w3.org/2000/svg">
<path d="M25.0138 18.8542C26.3192 18.8542 27.4185 18.1728 27.5616 17.2968L28.8556 2.63947C28.8556 1.18805 27.1466 0 25.0138 0C22.8696 0 21.1719 1.18805 21.1719 2.63947L22.4773 17.2968C22.6148 18.1728 23.7083 18.8542 25.0138 18.8542Z" fill="#FFBC02"/>
<path d="M17.0746 23.4399C17.7214 22.2948 17.6842 21.0237 16.9858 20.4569L4.90486 12.0088C3.64821 11.276 1.76724 12.1491 0.690919 13.9985C-0.382628 15.845 -0.165084 17.9176 1.06589 18.6362L14.4407 24.8369C15.2967 25.1575 16.416 24.5621 17.0746 23.4284" fill="#FFBC02"/>
<path d="M32.9527 23.428C33.6367 24.5617 34.756 25.1571 35.5891 24.8537L48.964 18.6357C50.2065 17.9029 50.3926 15.8503 49.3419 14.0038C48.2684 12.1545 46.376 11.287 45.1222 12.0056L33.0384 20.445C32.3685 21.0204 32.32 22.2972 32.9668 23.4395" fill="#FFBC02"/>
<path d="M25.0138 37.1641C26.3192 37.1641 27.4185 37.8454 27.5616 38.7214L28.8556 53.3788C28.8556 54.8302 27.1466 56.0068 25.0138 56.0068C22.8696 56.0068 21.1719 54.8302 21.1719 53.3788L22.4773 38.7214C22.6148 37.8454 23.7083 37.1641 25.0138 37.1641Z" fill="#FFBC02"/>
<path d="M32.9527 32.5893C33.6367 31.4528 34.756 30.8459 35.5891 31.1751L48.964 37.3816C50.2065 38.1001 50.3926 40.1699 49.3419 42.0193C48.2684 43.8543 46.376 44.7274 45.1222 44.0089L33.0384 35.558C32.3685 34.9883 32.32 33.7173 32.9668 32.5893" fill="#FFBC02"/>
<path d="M17.0746 32.5771C17.7214 33.7194 17.6842 34.9876 16.9858 35.5601L4.90486 43.9967C3.64821 44.7296 1.76724 43.8536 0.690919 42.0185C-0.382628 40.172 -0.165084 38.0994 1.06589 37.3808L14.4407 31.1744C15.2967 30.848 16.416 31.4492 17.0746 32.5771Z" fill="#FFBC02"/>
</svg>
