<svg width="45" height="60" viewBox="0 0 45 60" fill="none" xmlns="http://www.w3.org/2000/svg">
<path d="M29.4689 42.6937C30.0583 43.036 30.7342 42.9546 31.2429 42.5329C32.7692 41.2679 35.483 38.9058 37.0937 37.6412C37.6868 37.22 37.6066 36.3712 37.1034 35.6899C35.7621 33.7319 34.3343 32.1976 34.3516 28.7192L34.4095 17.0962C34.4341 12.1755 34.7947 7.59587 31.1808 4.1842C28.3238 1.37019 23.6 0.413392 19.9692 0.395297C12.8765 0.359949 5.0107 2.95084 3.27798 11.7657C3.10445 12.6981 3.77783 13.1257 4.36804 13.2983L11.5414 14.0976C12.2169 14.101 12.6425 13.4244 12.8147 12.7465C13.421 9.69524 15.9613 8.26558 18.8322 8.27989C20.3521 8.28746 22.0378 8.88977 22.9599 10.2518C24.05 11.7844 23.8705 13.9046 23.8616 15.6862L23.857 16.6194C19.5482 17.107 13.8892 17.4181 9.82729 19.1796C5.17309 21.1926 1.85975 25.2485 1.82931 31.3569C1.79083 39.0773 6.66874 43.0043 12.9171 43.0355C18.1522 43.0615 21.1139 41.8037 25.1876 37.6668C26.5288 39.6248 27.0304 40.6454 29.4689 42.6937Z" fill="white"/>
<path d="M19.8036 34.2713C22.0085 32.2424 22.7195 29.8855 23.647 27.154L24.1652 25.6276C19.0481 23.8902 13.3092 23.196 11.2634 29.2212C10.2269 32.274 11.1168 34.9057 13.8353 35.8287C15.8342 36.5074 18.0023 35.8996 19.8036 34.2713Z" fill="#231F20"/>
<path fill-rule="evenodd" clip-rule="evenodd" d="M39.5152 49.0948C35.2623 53.1231 28.6868 55.7959 22.8214 56.5126C14.6041 57.5167 6.86634 55.385 0.639595 51.0268C0.166088 50.6821 0.468664 50.0987 1.04513 50.3446C7.50993 53.1207 15.2184 54.3069 22.9256 53.3651C28.111 52.7315 33.7033 50.9554 38.7001 48.0728C39.4554 47.6642 40.211 48.4346 39.5152 49.0948Z" fill="#F8981D"/>
<path fill-rule="evenodd" clip-rule="evenodd" d="M41.2044 46.6095C40.5159 45.9172 37.1924 46.7259 35.7149 47.1078C35.2684 47.2199 35.135 46.8335 35.5254 46.4983C37.9853 44.2708 42.4465 44.3009 43.0327 44.8619C43.6189 45.423 43.5074 49.923 41.2417 52.328C40.8831 52.6881 40.494 52.5631 40.612 52.1173C41.0056 50.6313 41.8964 47.3302 41.2044 46.6095Z" fill="#F8981D"/>
</svg>
