<svg width="153" height="32" viewBox="0 0 153 32" fill="none" xmlns="http://www.w3.org/2000/svg">
<path d="M18.6075 30.7601C18.6075 27.5001 18.6075 24.2501 18.6075 19.6801C15.8875 22.6101 13.9775 24.6701 11.9575 26.8402C10.0275 24.5801 8.24745 22.5001 5.52744 19.3101C5.52744 24.0201 5.52744 27.3801 5.52744 30.9101C-0.142576 29.0901 -1.03257 24.3801 0.97744 7.57007C3.35745 9.74008 5.23747 11.2801 6.89747 13.0301C8.61748 14.8301 10.1175 16.8301 11.9175 18.9801C15.3875 15.2001 18.7175 11.5601 22.0475 7.92008C22.4975 8.21008 22.9475 8.50006 23.3975 8.78006C23.3975 14.8801 23.6275 20.9901 23.2375 27.0701C23.1375 28.6201 21.0575 30.0501 19.8875 31.5301C19.4775 31.2701 19.0375 31.0201 18.6075 30.7601Z" fill="#96A9B3"/>
<path d="M101.018 31.5806C97.7683 27.1105 94.5183 22.6305 91.2683 18.1605C90.4583 18.7705 89.6583 19.3805 88.8483 20.0005C87.2883 23.6005 90.4983 29.4706 83.7383 31.0906C83.7383 23.5105 83.7383 16.2105 83.7383 6.98047C88.5983 11.7805 92.5683 15.7005 96.7883 19.8705C98.3483 15.8105 95.1583 10.0005 102.068 8.48047C102.068 16.0905 102.068 23.4005 102.068 30.7106C101.718 31.0006 101.368 31.2906 101.018 31.5806Z" fill="#96A9B3"/>
<path d="M140.728 8.38087C146.958 8.39087 152.208 13.5609 152.268 19.7309C152.328 26.1209 146.918 31.361 140.418 31.231C134.048 31.101 129.208 26.0709 129.278 19.6609C129.338 13.3109 134.358 8.37087 140.728 8.38087ZM140.168 26.0409C144.498 26.0009 146.638 23.7409 147.058 20.0109C147.438 16.6409 144.418 13.6709 140.878 13.6609C136.938 13.6509 134.548 15.7109 134.418 19.6309C134.288 23.5609 136.638 25.6309 140.168 26.0409Z" fill="#96A9B3"/>
<path d="M115.459 21.3401C117.129 16.5401 120.959 16.93 125.509 17.32C125.509 20.51 125.919 23.6901 125.339 26.6801C125.049 28.1901 123.209 29.9801 121.659 30.5701C115.409 32.9501 108.559 29.1901 106.739 22.7301C105.019 16.6 108.859 10.03 115.319 8.70001C118.469 8.05001 121.789 8.22 125.419 8C124.749 13.21 121.409 13.18 118.069 13.49C112.409 14.02 109.739 19.0801 112.709 23.3601C112.899 23.6301 113.069 24.0401 113.339 24.1201C115.309 24.7201 117.289 25.3201 119.299 25.7101C119.509 25.7501 119.979 24.5001 120.339 23.8501C118.859 23.1101 117.399 22.3501 115.459 21.3401Z" fill="#96A9B3"/>
<path d="M66.8688 8.20998C65.8988 16.09 58.2888 11.42 54.6888 16.07C57.3088 16.51 59.0888 16.94 60.8888 17.09C66.0288 17.53 69.2888 20.48 69.0488 24.62C68.8188 28.63 65.7188 31.25 60.6588 31.23C56.8288 31.22 52.1788 32.53 50.2188 26.07C53.9888 26.07 57.2388 26.21 60.4588 25.99C61.5388 25.92 62.5688 24.96 63.6188 24.41C62.6488 23.75 61.7388 22.93 60.6788 22.48C59.9688 22.18 59.0388 22.45 58.2088 22.39C53.2488 22.03 50.2988 19.28 50.4188 15.15C50.5288 11.21 53.4088 8.50998 58.0588 8.23997C60.8488 8.07997 63.6488 8.20998 66.8688 8.20998Z" fill="#96A9B3"/>
<path d="M47.8665 30.9094C39.3664 32.1094 40.3364 24.2894 36.3664 20.6394C35.5764 22.1294 34.7864 23.6094 33.8764 25.3194C35.2664 25.8594 36.3664 26.2894 37.8664 26.8694C35.1264 33.1594 30.1064 30.8194 25.0664 31.3394C29.0164 23.4194 32.5964 16.2393 36.5765 8.2793C40.5465 16.2493 44.1065 23.3793 47.8665 30.9094Z" fill="#96A9B3"/>
<path d="M73.4862 11.6699C75.0962 11.6699 76.4062 11.6699 77.9762 11.6699C77.9762 17.9899 77.9762 24.23 77.9762 30.46C72.5462 31.09 72.8862 28.11 73.4862 11.6699Z" fill="#96A9B3"/>
<path d="M75.6966 0C77.6567 2.81001 79.7166 4.48004 79.5866 5.96004C79.4566 7.45005 77.1566 8.76005 75.8166 10.1501C74.3466 8.72005 72.0266 7.46003 71.6766 5.79003C71.4166 4.53002 73.6766 2.75001 75.6966 0Z" fill="#96A9B3"/>
</svg>
