<svg width="133" height="57" viewBox="0 0 133 57" fill="none" xmlns="http://www.w3.org/2000/svg">
<path d="M36.2746 33.8363C32.9283 31.0477 28.4665 29.9322 24.2836 32.442C28.8848 29.2351 32.51 23.5184 34.0438 18.4989C31.9523 20.172 29.8609 21.1481 27.7694 21.9847C25.3991 22.9607 23.5865 23.7973 22.471 25.4704C22.1922 25.1916 21.6344 24.9127 21.2161 24.9127C22.471 22.6818 24.8414 21.7058 27.3511 20.5903C29.7214 19.4749 32.3706 18.3594 34.7409 15.9891C35.2987 12.7822 34.7409 10.133 32.6495 9.43588C30.4186 10.6908 28.1877 13.2005 27.3511 15.4314C27.3511 15.5708 27.3511 15.5708 27.2116 15.7103C27.2116 15.8497 27.2116 15.8497 27.2116 15.9891C27.2116 16.1286 27.2117 16.1285 27.0722 16.268C26.6539 17.1046 26.0962 17.9411 25.399 18.6383C25.2596 18.22 24.8413 17.9412 24.423 17.8017C24.9807 17.244 25.5385 16.6863 25.9568 15.8497C25.9568 15.7103 26.0962 15.5708 26.0962 15.4314C26.3751 14.4554 26.375 13.3399 25.8173 11.9456C26.2356 11.9456 26.7934 11.6668 27.0722 11.3879C27.2117 11.8062 27.3511 12.3639 27.4905 12.7822C28.606 11.2485 30.0003 9.71474 31.534 8.73872C31.1157 6.22897 30.4185 4.27694 28.6059 3.85865C22.8893 7.34442 19.6824 11.9456 20.1007 15.9891C20.2401 17.244 19.6824 18.3595 18.5669 18.9172C18.1486 19.0566 17.8698 19.196 17.4515 19.196C17.1726 19.196 17.0332 19.196 16.7543 19.0566C16.1966 18.9172 15.6389 18.3594 15.2206 17.6623C15.6389 17.6623 16.1966 17.3834 16.4754 17.1046C16.7543 17.5229 17.0332 17.6623 17.1726 17.8017C17.312 17.8017 17.5909 17.9411 17.8698 17.6623C18.4275 17.3834 18.7064 16.6863 18.7064 15.9891C18.2881 11.6668 21.495 6.92612 26.9328 3.16149C24.8413 1.07003 22.7499 0.372875 20.7979 1.76718C20.519 3.30092 19.8218 4.83465 18.8458 5.81067C18.0092 6.50782 17.1727 6.92612 16.1967 6.92612H16.0572C15.6389 7.34441 15.2206 8.04157 15.2206 8.32043C14.6629 8.32043 14.2446 8.59929 13.9657 9.01758V8.87814C13.6868 7.90213 14.384 6.92611 15.0811 6.08953C15.9177 4.83465 16.4755 4.1375 15.9178 3.44035C15.6389 3.02206 15.0811 2.7432 14.384 2.88263C13.6868 2.88263 13.1292 3.02205 12.7109 3.30091C12.432 2.88262 12.1531 2.60376 11.5954 2.3249C12.2925 1.76717 13.1291 1.48833 14.2446 1.48833C15.36 1.48833 16.3361 1.9066 16.8938 2.60376C17.591 3.57977 17.4515 4.55579 17.0332 5.39237C17.3121 5.25294 17.7304 5.11352 18.0092 4.83466C18.9852 3.99807 19.543 2.46434 19.8218 0.791172C19.6824 0.651741 19.4035 0.512306 19.1247 0.372875C17.8698 -0.324279 15.2206 0.0940006 13.8263 0.512293C9.92225 1.9066 7.55192 3.30093 6.15762 4.9741C8.10965 5.39239 8.52789 7.06556 8.80675 8.45987C9.08561 9.43588 9.22511 10.4119 9.92227 11.109C9.36454 11.2485 8.94618 11.6668 8.80675 12.0851C7.97017 10.9696 7.6913 9.71474 7.41244 8.73872C7.13358 7.20498 6.85472 6.3684 5.32098 6.22896C3.78724 9.15701 4.62386 12.6428 5.87874 16.4074C7.13362 15.7103 8.38849 15.7103 9.36451 15.9891C11.0377 16.6863 12.1531 18.4989 12.8503 21.8452C12.7108 21.8452 12.5714 21.8452 12.432 21.8452C12.0137 21.8452 11.5954 21.9846 11.3166 22.1241C10.6194 19.4749 9.7828 17.8017 8.66735 17.3834C7.9702 17.1046 7.13363 17.244 6.15762 17.8017C8.8068 25.4704 12.7109 35.5094 3.64788 50.2891L0.162109 55.8663C8.80682 45.409 22.6104 61.8619 34.4621 55.3086C42.549 51.4045 43.6645 39.8318 36.2746 33.8363ZM24.5625 19.4749C24.5625 19.8932 24.2836 20.172 23.8653 20.172C23.4471 20.172 23.1682 19.8932 23.1682 19.4749C23.1682 19.196 23.447 18.9172 23.7259 18.7777H23.8653C24.2836 18.7777 24.5625 19.0566 24.5625 19.4749ZM25.6779 10.9696C25.5385 10.9696 25.3991 10.9696 25.2597 10.8302C24.8414 10.6908 24.5625 10.2725 24.5625 9.85417V9.71473C24.7019 9.29644 25.1202 8.87814 25.5384 8.87814C26.0962 8.87814 26.5145 9.29645 26.5145 9.85417C26.5145 9.9936 26.5145 10.133 26.3751 10.2724C26.3751 10.6907 25.9568 10.9696 25.6779 10.9696ZM22.0527 26.5859C22.1921 26.7253 22.1922 27.0042 22.1922 27.1436C22.1922 27.7013 21.7739 28.259 21.0767 28.259C20.3796 28.259 19.9612 27.8407 19.9612 27.1436C19.9612 26.7253 20.2401 26.307 20.6584 26.1676C20.7978 26.1676 20.9373 26.0281 21.0767 26.0281C21.495 26.0281 21.7738 26.307 22.0527 26.5859ZM11.3166 23.6578C11.456 23.379 11.8743 23.2395 12.1531 23.2395C12.432 23.2395 12.5715 23.3789 12.7109 23.5184C12.9897 23.6578 13.1292 23.9367 13.1292 24.355C13.1292 24.9127 12.7108 25.331 12.1531 25.331C11.5954 25.331 11.1771 24.9127 11.1771 24.355C11.1771 23.9367 11.1771 23.7972 11.3166 23.6578ZM14.9417 16.8257C14.8023 16.8257 14.6629 16.8257 14.5235 16.8257C14.1052 16.6863 13.8263 16.268 13.8263 15.8497C13.8263 15.292 14.2446 14.8737 14.8023 14.8737C15.3601 14.8737 15.7783 15.292 15.7783 15.8497C15.7783 15.9891 15.7783 16.1285 15.6389 16.268C15.6389 16.5468 15.2206 16.8257 14.9417 16.8257ZM15.0811 9.5753C15.36 9.5753 15.4995 9.71474 15.6389 9.85417C15.7783 9.9936 15.7783 10.133 15.7783 10.2724C15.7783 10.6907 15.4994 10.9696 15.0811 10.9696C14.6628 10.9696 14.384 10.6907 14.384 10.2724V10.133C14.5234 9.71474 14.8023 9.5753 15.0811 9.5753ZM9.36451 12.9216C9.36451 12.5034 9.64337 12.2245 10.0617 12.2245C10.3405 12.2245 10.48 12.3639 10.6194 12.5034C10.7588 12.6428 10.7588 12.7822 10.7588 12.9216C10.7588 13.3399 10.48 13.6188 10.0617 13.6188C9.7828 13.6188 9.64334 13.4794 9.5039 13.2005C9.36447 13.0611 9.36451 13.0611 9.36451 12.9216ZM11.7348 4.41636C11.7348 4.97408 11.3165 5.39237 10.7588 5.39237C10.2011 5.39237 9.78278 4.97408 9.78278 4.41636C9.78278 3.85864 10.2011 3.44035 10.6194 3.44035H10.7588C11.1771 3.44035 11.5954 3.71921 11.7348 4.1375C11.7348 4.1375 11.7348 4.27693 11.7348 4.41636ZM31.6734 48.6159C27.4905 54.8903 19.1247 47.0822 12.0137 49.1737C15.4995 44.9907 16.4755 42.0627 17.3121 37.7403C17.4515 36.6249 18.2881 35.7883 19.4035 35.9277C28.4665 37.4615 33.2072 38.8558 33.0677 44.5724C32.9283 46.1062 32.51 47.5005 31.6734 48.6159Z" fill="#ADB5BD"/>
<path d="M16.3348 17.1058C16.0559 17.3846 15.6376 17.6635 15.0799 17.6635C14.9405 17.524 14.9405 17.3846 14.8011 17.2452C14.6617 17.1058 14.6616 16.8269 14.5222 16.6875C14.6616 16.6875 14.8011 16.6875 14.9405 16.6875C15.3588 16.6875 15.6377 16.4086 15.9165 16.1298C16.056 16.2692 16.056 16.548 16.1954 16.6875C16.1954 16.8269 16.1954 17.1058 16.3348 17.1058Z" fill="#6C757D"/>
<path d="M27.2111 16.1298C27.2111 16.2704 27.2111 16.2704 27.2111 16.4111C27.0704 16.2704 27.2111 16.2704 27.2111 16.1298Z" fill="#6C757D"/>
<path d="M22.4675 25.6089C22.3281 25.7483 22.3281 25.8878 22.1887 26.0272C22.0492 26.1666 22.0492 26.3061 21.9098 26.5849C21.7704 26.3061 21.3521 26.0272 21.0732 26.0272C20.9338 26.0272 20.7943 26.0272 20.6549 26.1666C20.7943 26.0272 20.7943 25.7483 20.9338 25.6089C21.0732 25.4695 21.0732 25.1906 21.2126 25.0512C21.6309 25.0512 22.1887 25.33 22.4675 25.6089Z" fill="#6C757D"/>
<path d="M15.9165 9.29389L15.777 9.85163C15.6375 9.7122 15.4982 9.57275 15.2193 9.57275C14.9404 9.57275 14.6616 9.85163 14.5221 10.1305C14.3827 9.99106 14.2433 9.85162 14.1039 9.71219C13.9644 9.57276 13.825 9.43333 13.825 9.29389C14.1039 8.8756 14.5221 8.59674 15.0798 8.59674V8.73618C15.0798 8.73618 15.0799 8.87562 15.4982 9.15448C15.4982 9.15448 15.6376 9.15446 15.9165 9.29389C15.777 9.29389 15.777 9.29389 15.9165 9.29389C15.9165 9.29389 15.777 9.29389 15.9165 9.29389Z" fill="#6C757D"/>
<path d="M25.3998 18.7794C25.2603 18.9188 25.1209 19.0583 24.9815 19.1977C24.8421 19.3371 24.7026 19.4765 24.5632 19.4765C24.5632 19.0582 24.2843 18.7794 23.8661 18.7794H23.7266L23.5872 18.5005C23.7266 18.3611 23.866 18.3611 24.0054 18.2217C24.1449 18.0822 24.2843 17.9428 24.5632 17.8034C24.8421 17.9428 25.2603 18.2217 25.3998 18.7794Z" fill="#6C757D"/>
<path d="M25.676 8.87869C25.1183 8.87869 24.6999 9.29699 24.6999 9.71529C24.5605 9.57586 24.5605 9.43643 24.4211 9.15757L25.5365 8.46042C25.5365 8.59985 25.5365 8.73926 25.676 8.87869Z" fill="#6C757D"/>
<path d="M26.9327 11.3894C26.6539 11.6682 26.2356 11.9471 25.6779 11.9471C25.6779 11.8077 25.5384 11.6682 25.399 11.3894C25.2596 11.2499 25.2596 10.9711 25.1201 10.8316C25.2596 10.8316 25.399 10.9711 25.5384 10.9711C25.9567 10.9711 26.2356 10.6922 26.5144 10.4133C26.6539 10.5528 26.6539 10.8316 26.7933 10.9711C26.7933 11.1105 26.9327 11.2499 26.9327 11.3894Z" fill="#6C757D"/>
<path d="M10.7649 12.2234L10.6256 12.5023C10.4861 12.3629 10.3467 12.2234 10.0678 12.2234C9.6495 12.2234 9.37064 12.5023 9.37064 12.9206C9.37064 13.06 9.3706 13.1994 9.51004 13.1994C9.23117 13.06 9.09179 12.9206 8.95236 12.7811C8.81293 12.6417 8.67352 12.5023 8.53409 12.3629C8.67352 11.8051 9.09179 11.5263 9.64952 11.3868C9.78895 11.5263 9.92836 11.6657 10.0678 11.8051C10.2072 11.9446 10.4861 12.084 10.7649 12.2234Z" fill="#6C757D"/>
<path d="M12.8599 23.3782C12.7205 23.2388 12.4416 23.0994 12.3022 23.0994C11.8839 23.0994 11.6051 23.2388 11.4656 23.5177C11.4656 23.3782 11.3262 23.0994 11.3262 22.96C11.3262 22.8205 11.1867 22.5417 11.1867 22.4022C11.4656 22.1234 11.8839 22.1234 12.3022 22.1234C12.4416 22.1234 12.5811 22.1234 12.7205 22.1234C12.7205 22.2628 12.8599 22.5417 12.8599 22.6811C12.7205 22.96 12.8599 23.0994 12.8599 23.3782Z" fill="#6C757D"/>
<path d="M15.9336 9.29524C15.9336 9.29524 15.7941 9.29524 15.9336 9.29524C15.7941 9.29524 15.7941 9.29524 15.9336 9.29524C15.7941 9.15581 15.6547 9.15581 15.5153 9.01638C15.3759 9.01638 15.3758 9.01638 15.2364 9.01638C14.8181 9.01638 14.3998 9.29524 14.121 9.71353C14.121 9.85297 13.9815 9.99239 13.9815 10.2712C13.9815 10.9684 14.5392 11.3867 15.0969 11.3867C15.7941 11.3867 16.3518 10.829 16.3518 10.2712C16.3518 9.85296 16.2124 9.43467 15.9336 9.29524ZM15.0969 10.9684C14.6786 10.9684 14.3998 10.6895 14.3998 10.2712V10.1318C14.3998 9.85297 14.6786 9.5741 15.0969 9.5741C15.3758 9.5741 15.5153 9.71354 15.6547 9.85297C15.7941 9.9924 15.7941 10.1318 15.7941 10.2712C15.7941 10.5501 15.5152 10.9684 15.0969 10.9684Z" fill="#6C757D"/>
<path d="M15.0929 8.59814C14.3958 8.59814 13.9775 8.87701 13.6986 9.2953C13.5592 9.57416 13.4198 9.85302 13.4198 10.2713C13.4198 11.2473 14.1169 11.9445 15.0929 11.9445C16.069 11.9445 16.7661 11.2473 16.7661 10.2713C16.9056 9.29529 16.069 8.59814 15.0929 8.59814ZM14.5353 10.2713V10.1319C14.5353 9.85303 14.8141 9.57416 15.2324 9.57416C15.5113 9.57416 15.6507 9.7136 15.7901 9.85303C15.9295 9.99247 15.9296 10.1319 15.9296 10.2713C15.9296 10.6896 15.6507 10.9685 15.2324 10.9685C14.8141 10.9685 14.5353 10.5502 14.5353 10.2713Z" fill="#6C757D"/>
<path d="M10.077 11.6665C9.37987 11.6665 8.96159 12.0848 8.96159 12.782V12.9214C8.96159 13.6186 9.5193 14.0369 10.077 14.0369C10.7742 14.0369 11.3319 13.4792 11.3319 12.9214C11.3319 12.2243 10.7742 11.6665 10.077 11.6665ZM10.077 13.6186C9.79816 13.6186 9.6587 13.4792 9.51927 13.2003C9.51927 13.0609 9.37987 13.0609 9.37987 12.9214C9.37987 12.5031 9.65873 12.2243 10.077 12.2243C10.3559 12.2243 10.4953 12.3637 10.6348 12.5031C10.7742 12.6426 10.7742 12.782 10.7742 12.9214C10.7742 13.2003 10.4953 13.6186 10.077 13.6186Z" fill="#6C757D"/>
<path d="M10.0731 11.2483C9.93369 11.2483 9.79427 11.2483 9.65484 11.3877C9.09712 11.5272 8.67885 11.9454 8.53941 12.3637C8.53941 12.5032 8.39993 12.782 8.39993 12.9215C8.39993 13.8975 9.0971 14.5946 10.0731 14.5946C11.0491 14.5946 11.7463 13.8975 11.7463 12.9215C11.7463 11.9455 11.0491 11.2483 10.0731 11.2483ZM10.0731 13.6186C9.79426 13.6186 9.65479 13.4792 9.51536 13.2003C9.51536 13.0609 9.37597 13.0609 9.37597 12.9215C9.37597 12.5032 9.65483 12.2243 10.0731 12.2243C10.352 12.2243 10.4914 12.3637 10.6309 12.5032C10.7703 12.6426 10.7703 12.782 10.7703 12.9215C10.7703 13.2003 10.4914 13.6186 10.0731 13.6186Z" fill="#6C757D"/>
<path d="M22.2085 26.03C21.9296 25.7512 21.5114 25.6117 21.0931 25.6117H20.9536C20.117 25.6117 19.5593 26.3089 19.5593 27.1455C19.5593 27.9821 20.2565 28.6792 21.0931 28.6792C21.9297 28.6792 22.6268 27.9821 22.6268 27.1455C22.7662 26.7272 22.4874 26.3089 22.2085 26.03ZM21.0931 28.2609C20.5353 28.2609 19.9776 27.8426 19.9776 27.1455C19.9776 26.7272 20.2564 26.3089 20.6747 26.1695C20.8141 26.1695 20.9536 26.03 21.0931 26.03C21.5114 26.03 21.7902 26.1695 21.9296 26.5878C22.0691 26.7272 22.069 27.0061 22.069 27.1455C22.2084 27.7032 21.6508 28.2609 21.0931 28.2609Z" fill="#6C757D"/>
<path d="M22.4834 25.6112C22.2045 25.3324 21.6468 25.0535 21.2285 25.0535H21.0891C19.9736 25.0535 18.9976 26.0295 18.9976 27.145C18.9976 28.2604 19.9736 29.2364 21.0891 29.2364C22.2045 29.2364 23.1805 28.2604 23.1805 27.145C23.1805 26.5873 22.9017 26.0295 22.4834 25.6112ZM22.2045 27.145C22.2045 27.7027 21.7862 28.2604 21.0891 28.2604C20.3919 28.2604 19.9736 27.8421 19.9736 27.145C19.9736 26.7267 20.2524 26.3084 20.6707 26.169C20.8102 26.169 20.9497 26.0295 21.0891 26.0295C21.5074 26.0295 21.7862 26.169 21.9256 26.5873C22.0651 26.7267 22.2045 27.0055 22.2045 27.145Z" fill="#6C757D"/>
<path d="M25.6896 8.31894C24.853 8.31894 24.1558 9.0161 24.1558 9.85269C24.1558 10.6893 24.7135 11.247 25.5501 11.3864H25.6896C26.1078 11.3864 26.5261 11.247 26.805 10.8287C27.0838 10.5498 27.2233 10.271 27.2233 9.85269C27.2233 9.0161 26.5261 8.31894 25.6896 8.31894ZM25.6896 10.9681C25.5501 10.9681 25.4107 10.9681 25.2713 10.8287C24.853 10.6893 24.5741 10.271 24.5741 9.85269V9.71325C24.7136 9.29495 25.1318 8.87665 25.5501 8.87665C26.1078 8.87665 26.5261 9.29496 26.5261 9.85269C26.5261 9.99212 26.5261 10.1315 26.3867 10.271C26.3867 10.6893 25.9684 10.9681 25.6896 10.9681Z" fill="#6C757D"/>
<path d="M25.6856 7.9007C24.5701 7.9007 23.5941 8.87672 23.5941 9.99217C23.5941 11.1076 24.5701 12.0836 25.6856 12.0836H25.825C26.2433 12.0836 26.801 11.8048 27.0799 11.5259C27.4982 11.1076 27.777 10.6893 27.777 9.99217C27.6376 8.73729 26.801 7.9007 25.6856 7.9007ZM25.6856 10.9682C25.5461 10.9682 25.4067 10.9682 25.2673 10.8288C24.849 10.6893 24.5701 10.271 24.5701 9.85275V9.71331C24.7096 9.29502 25.1278 8.87671 25.5461 8.87671C26.1038 8.87671 26.5221 9.29502 26.5221 9.85275C26.5221 9.99218 26.5221 10.1316 26.3827 10.271C26.3827 10.6893 25.9644 10.9682 25.6856 10.9682Z" fill="#6C757D"/>
<path d="M14.9492 14.1759C14.1126 14.1759 13.4155 14.873 13.4155 15.7096C13.4155 16.5462 14.1127 17.2434 14.8098 17.2434C15.2281 17.2434 15.6464 16.9645 15.9253 16.6856C16.2041 16.4068 16.3435 16.1279 16.3435 15.7096C16.483 14.873 15.7858 14.1759 14.9492 14.1759ZM14.9492 16.8251C14.8098 16.8251 14.6704 16.8251 14.5309 16.8251C14.1127 16.6856 13.8338 16.2673 13.8338 15.849C13.8338 15.2913 14.2521 14.873 14.8098 14.873C15.3676 14.873 15.7858 15.2913 15.7858 15.849C15.7858 15.9885 15.7858 16.1279 15.6464 16.2673C15.6464 16.5462 15.2281 16.8251 14.9492 16.8251Z" fill="#6C757D"/>
<path d="M14.9453 13.7576C13.8299 13.7576 12.8539 14.5942 12.8539 15.8491C12.8539 16.9646 13.6904 17.9406 14.9453 17.9406C15.0848 17.9406 15.0848 17.9406 15.2242 17.9406C15.6425 17.9406 16.2002 17.6617 16.479 17.3829C16.8973 16.9646 17.0368 16.5463 17.0368 15.9885C16.8974 14.5942 16.0608 13.7576 14.9453 13.7576ZM14.9453 16.8251C14.8059 16.8251 14.6665 16.8251 14.527 16.8251C14.1088 16.6857 13.8299 16.2674 13.8299 15.8491C13.8299 15.2914 14.2482 14.8731 14.8059 14.8731C15.3636 14.8731 15.7819 15.2914 15.7819 15.8491C15.7819 15.9885 15.7819 16.128 15.6425 16.2674C15.6425 16.5463 15.2242 16.8251 14.9453 16.8251Z" fill="#6C757D"/>
<path d="M12.7234 22.6804C12.584 22.6804 12.4445 22.5409 12.305 22.5409C11.8867 22.5409 11.6079 22.6804 11.3291 22.9592C11.0502 23.2381 10.7713 23.6564 10.7713 24.0747C10.7713 24.9113 11.4684 25.6084 12.305 25.6084C13.1416 25.6084 13.8388 24.9113 13.8388 24.0747C13.6994 23.517 13.2811 22.9592 12.7234 22.6804ZM12.1656 25.1901C11.6079 25.1901 11.1896 24.7718 11.1896 24.2141C11.1896 24.0747 11.1896 23.7958 11.3291 23.6564C11.4685 23.3775 11.8868 23.2381 12.1656 23.2381C12.4445 23.2381 12.584 23.3775 12.7234 23.517C13.0022 23.6564 13.1417 23.9353 13.1417 24.3535C13.2811 24.7718 12.8628 25.1901 12.1656 25.1901Z" fill="#6C757D"/>
<path d="M12.5818 22.1229C12.4423 22.1229 12.3029 22.1229 12.1635 22.1229C11.7452 22.1229 11.3269 22.2624 11.0481 22.4018C10.4903 22.8201 10.072 23.3778 10.072 24.075C10.072 25.1904 11.048 26.1664 12.1635 26.1664C13.2789 26.1664 14.2549 25.1904 14.2549 24.075C14.2549 23.099 13.5578 22.4018 12.5818 22.1229ZM12.1635 25.1904C11.6058 25.1904 11.1875 24.7721 11.1875 24.2144C11.1875 24.075 11.1875 23.7961 11.3269 23.6567C11.4664 23.3778 11.8846 23.2384 12.1635 23.2384C12.4423 23.2384 12.5818 23.3778 12.7212 23.5172C13.0001 23.6567 13.1395 23.9355 13.1395 24.3538C13.2789 24.7721 12.8606 25.1904 12.1635 25.1904Z" fill="#6C757D"/>
<path d="M12.033 3.71922C11.7541 3.30092 11.3358 3.02208 10.9175 2.88264C10.778 2.88264 10.7781 2.88264 10.6387 2.88264C9.80209 2.88264 9.10488 3.57979 9.10488 4.41637C9.10488 5.25296 9.80209 5.95012 10.6387 5.95012C11.4753 5.95012 12.1724 5.25296 12.1724 4.41637C12.1724 4.13751 12.1724 3.85865 12.033 3.71922ZM10.6387 5.39238C10.0809 5.39238 9.66264 4.97409 9.66264 4.41637C9.66264 3.85865 10.0809 3.44036 10.4992 3.44036H10.6387C11.057 3.44036 11.4752 3.71922 11.6146 4.13751C11.6146 4.27694 11.6146 4.27694 11.6146 4.41637C11.754 4.97409 11.3358 5.39238 10.6387 5.39238Z" fill="#6C757D"/>
<path d="M12.4473 3.43987C12.1684 3.02158 11.8896 2.74272 11.3318 2.46386C11.053 2.32443 10.9135 2.32442 10.6347 2.32442C9.51924 2.32442 8.54322 3.30043 8.54322 4.41588C8.54322 5.53133 9.51924 6.50734 10.6347 6.50734C11.7501 6.50734 12.7261 5.53133 12.7261 4.41588C12.7261 3.99759 12.5867 3.71873 12.4473 3.43987ZM11.7501 4.41588C11.7501 4.9736 11.3318 5.39189 10.7741 5.39189C10.2164 5.39189 9.79805 4.9736 9.79805 4.41588C9.79805 3.85816 10.2164 3.43987 10.6347 3.43987H10.7741C11.1924 3.43987 11.6107 3.71873 11.7501 4.13702C11.7501 4.13702 11.7501 4.27645 11.7501 4.41588Z" fill="#6C757D"/>
<path d="M24.9823 19.0575C24.8429 18.6392 24.4246 18.2209 23.8669 18.2209C23.1697 18.2209 22.7514 18.7786 22.7514 19.3363C22.7514 20.0335 23.3092 20.5912 23.8669 20.5912C24.564 20.5912 24.9823 20.0335 24.9823 19.3363C25.1217 19.3363 24.9823 19.1969 24.9823 19.0575ZM23.8669 20.0335C23.4486 20.0335 23.1697 19.7546 23.1697 19.3363C23.1697 19.0575 23.4485 18.7786 23.7274 18.6392H23.8669C24.2852 18.6392 24.564 18.918 24.564 19.3363C24.564 19.7546 24.2852 20.0335 23.8669 20.0335Z" fill="#6C757D"/>
<path d="M25.3957 18.7787C25.2563 18.3604 24.838 18.0815 24.4197 17.9421C24.2803 17.9421 24.1409 17.8027 23.862 17.8027C22.886 17.8027 22.1889 18.4998 22.1889 19.4758C22.1889 20.4519 22.886 21.149 23.862 21.149C24.8381 21.149 25.5351 20.4519 25.5351 19.4758C25.5351 19.197 25.5352 18.9181 25.3957 18.7787ZM23.862 20.0336C23.4438 20.0336 23.1649 19.7547 23.1649 19.3364C23.1649 19.0575 23.4437 18.7787 23.7226 18.6392H23.862C24.2803 18.6392 24.5592 18.9181 24.5592 19.3364C24.5592 19.7547 24.2803 20.0336 23.862 20.0336Z" fill="#6C757D"/>
<path d="M68.4219 17.9692C69.5353 18.1954 70.4225 18.726 71.0835 19.561C71.762 20.3786 72.1012 21.3441 72.1012 22.4574C72.1012 24.0057 71.5793 25.2321 70.5355 26.1367C69.5092 27.0239 68.0131 27.4675 66.0473 27.4675H58.1408V9.04504H65.8908C67.7521 9.04504 69.1786 9.45384 70.1702 10.2715C71.1792 11.0891 71.6837 12.2372 71.6837 13.7159C71.6837 14.864 71.3792 15.8034 70.7704 16.5341C70.1789 17.2647 69.3961 17.7431 68.4219 17.9692ZM61.8201 16.7689H65.134C66.056 16.7689 66.7519 16.5689 67.2216 16.1687C67.7087 15.7512 67.9522 15.1598 67.9522 14.3943C67.9522 13.6289 67.7174 13.0374 67.2477 12.6199C66.778 12.2024 66.056 11.9937 65.0818 11.9937H61.8201V16.7689ZM65.3167 24.4667C66.2909 24.4667 67.0389 24.2579 67.5608 23.8404C68.0827 23.4055 68.3436 22.7793 68.3436 21.9616C68.3436 21.144 68.074 20.5178 67.5347 20.0829C67.0128 19.6306 66.2648 19.4044 65.2906 19.4044H61.8201V24.4667H65.3167Z" fill="#6C757D"/>
<path d="M84.2816 27.4675L79.9761 20.2916H78.3583V27.4675H74.679V9.04504H81.6983C83.838 9.04504 85.4646 9.56692 86.5779 10.6107C87.7087 11.6545 88.274 13.0287 88.274 14.7336C88.274 16.1253 87.8826 17.2908 87.0998 18.2302C86.3344 19.1696 85.221 19.7958 83.7598 20.109L88.3523 27.4675H84.2816ZM78.3583 17.7605H81.3852C83.4901 17.7605 84.5426 16.8298 84.5426 14.9684C84.5426 14.0812 84.2816 13.3941 83.7598 12.907C83.2553 12.4025 82.4637 12.1502 81.3852 12.1502H78.3583V17.7605Z" fill="#6C757D"/>
<path d="M101.979 23.7621H94.5943L93.2896 27.4675H89.4016L96.1861 9.25379H100.387L107.146 27.4675H103.258L101.979 23.7621ZM100.987 20.9701L98.2736 13.194L95.5598 20.9701H100.987Z" fill="#6C757D"/>
<path d="M112.811 9.04504V27.4675H109.131V9.04504H112.811Z" fill="#6C757D"/>
<path d="M131.743 27.4675H128.064L119.818 14.9423V27.4675H116.139V9.04504H119.818L128.064 21.6746V9.04504H131.743V27.4675Z" fill="#6C757D"/>
<path d="M70.0425 47.4172C70.0425 48.3071 69.82 49.1312 69.375 49.8893C68.93 50.6309 68.2708 51.2324 67.3974 51.6939C66.5239 52.1388 65.4609 52.3613 64.2084 52.3613C62.9723 52.3613 61.8681 52.1553 60.8958 51.7433C59.9234 51.3148 59.1406 50.705 58.5473 49.914C57.9705 49.1229 57.6409 48.2 57.5585 47.1453H61.2666C61.349 47.8539 61.6292 48.4472 62.1071 48.9251C62.6015 49.3866 63.2525 49.6173 64.0601 49.6173C64.7852 49.6173 65.3373 49.4278 65.7163 49.0488C66.1119 48.6532 66.3096 48.1506 66.3096 47.5408C66.3096 46.9969 66.1531 46.552 65.84 46.2059C65.5268 45.8433 65.1313 45.5549 64.6534 45.3406C64.1754 45.1264 63.5162 44.8792 62.6757 44.599C61.588 44.2364 60.698 43.8821 60.0058 43.536C59.3137 43.1734 58.7204 42.6543 58.226 41.9786C57.748 41.3029 57.509 40.4212 57.509 39.3335C57.509 37.8338 58.0447 36.6554 59.1159 35.7984C60.2036 34.9249 61.6374 34.4882 63.4173 34.4882C65.2631 34.4882 66.7299 34.9332 67.8176 35.8231C68.9218 36.7131 69.5481 37.8997 69.6964 39.3829H65.9388C65.84 38.7567 65.5763 38.2458 65.1478 37.8502C64.7193 37.4382 64.1342 37.2322 63.3926 37.2322C62.7499 37.2322 62.2307 37.4053 61.8352 37.7514C61.4397 38.081 61.2419 38.5671 61.2419 39.2099C61.2419 39.7208 61.3902 40.1493 61.6869 40.4954C62 40.825 62.3873 41.0969 62.8487 41.3111C63.3267 41.5254 63.9694 41.7644 64.777 42.028C65.8976 42.4236 66.8041 42.7944 67.4962 43.1405C68.2049 43.4866 68.8064 44.0057 69.3009 44.6979C69.7953 45.3901 70.0425 46.2965 70.0425 47.4172Z" fill="#6C757D"/>
<path d="M80.7927 34.4882C82.4243 34.4882 83.8993 34.8673 85.2178 35.6254C86.5527 36.3835 87.5992 37.4465 88.3573 38.8143C89.1319 40.1658 89.5192 41.6984 89.5192 43.4124C89.5192 45.1264 89.1319 46.6673 88.3573 48.0352C87.5992 49.4031 86.5527 50.4661 85.2178 51.2242C83.8993 51.9823 82.4243 52.3613 80.7927 52.3613C79.1612 52.3613 77.6779 51.9823 76.343 51.2242C75.0246 50.4661 73.978 49.4031 73.2035 48.0352C72.4454 46.6673 72.0663 45.1264 72.0663 43.4124C72.0663 41.6984 72.4454 40.1658 73.2035 38.8143C73.978 37.4465 75.0246 36.3835 76.343 35.6254C77.6779 34.8673 79.1612 34.4882 80.7927 34.4882ZM80.7927 37.7019C79.7709 37.7019 78.8728 37.9326 78.0982 38.3941C77.3236 38.8556 76.7138 39.523 76.2688 40.3965C75.8403 41.2535 75.6261 42.2588 75.6261 43.4124C75.6261 44.566 75.8403 45.5796 76.2688 46.4531C76.7138 47.3101 77.3236 47.9693 78.0982 48.4307C78.8728 48.8922 79.7709 49.1229 80.7927 49.1229C81.8145 49.1229 82.7127 48.8922 83.4873 48.4307C84.2619 47.9693 84.8634 47.3101 85.2919 46.4531C85.7369 45.5796 85.9594 44.566 85.9594 43.4124C85.9594 42.2588 85.7369 41.2535 85.2919 40.3965C84.8634 39.523 84.2619 38.8556 83.4873 38.3941C82.7127 37.9326 81.8145 37.7019 80.7927 37.7019Z" fill="#6C757D"/>
<path d="M95.5026 34.7354V44.9698C95.5026 46.3377 95.7992 47.3677 96.3925 48.0599C97.0023 48.7356 97.8758 49.0735 99.0129 49.0735C100.134 49.0735 100.991 48.7356 101.584 48.0599C102.194 47.3677 102.499 46.3377 102.499 44.9698V34.7354H105.959V44.9698C105.959 46.5849 105.655 47.9528 105.045 49.0735C104.451 50.1777 103.619 51.0017 102.548 51.5456C101.493 52.0894 100.29 52.3613 98.9388 52.3613C96.8457 52.3613 95.173 51.7351 93.9204 50.4826C92.6679 49.23 92.0417 47.3925 92.0417 44.9698V34.7354H95.5026Z" fill="#6C757D"/>
<path d="M112.501 49.5184H118.36V52.1883H109.015V34.7354H112.501V49.5184Z" fill="#6C757D"/>
<path d="M132.424 47.4172C132.424 48.3071 132.201 49.1312 131.756 49.8893C131.311 50.6309 130.652 51.2324 129.779 51.6939C128.905 52.1388 127.842 52.3613 126.59 52.3613C125.354 52.3613 124.249 52.1553 123.277 51.7433C122.305 51.3148 121.522 50.705 120.929 49.914C120.352 49.1229 120.022 48.2 119.94 47.1453H123.648C123.73 47.8539 124.011 48.4472 124.488 48.9251C124.983 49.3866 125.634 49.6173 126.441 49.6173C127.167 49.6173 127.719 49.4278 128.098 49.0488C128.493 48.6532 128.691 48.1506 128.691 47.5408C128.691 46.9969 128.534 46.552 128.221 46.2059C127.908 45.8433 127.513 45.5549 127.035 45.3406C126.557 45.1264 125.898 44.8792 125.057 44.599C123.969 44.2364 123.079 43.8821 122.387 43.536C121.695 43.1734 121.102 42.6543 120.607 41.9786C120.129 41.3029 119.89 40.4212 119.89 39.3335C119.89 37.8338 120.426 36.6554 121.497 35.7984C122.585 34.9249 124.019 34.4882 125.799 34.4882C127.644 34.4882 129.111 34.9332 130.199 35.8231C131.303 36.7131 131.929 37.8997 132.078 39.3829H128.32C128.221 38.7567 127.958 38.2458 127.529 37.8502C127.101 37.4382 126.516 37.2322 125.774 37.2322C125.131 37.2322 124.612 37.4053 124.217 37.7514C123.821 38.081 123.623 38.5671 123.623 39.2099C123.623 39.7208 123.772 40.1493 124.068 40.4954C124.381 40.825 124.769 41.0969 125.23 41.3111C125.708 41.5254 126.351 41.7644 127.158 42.028C128.279 42.4236 129.185 42.7944 129.878 43.1405C130.586 43.4866 131.188 44.0057 131.682 44.6979C132.177 45.3901 132.424 46.2965 132.424 47.4172Z" fill="#6C757D"/>
</svg>
