<svg width="105" height="63" viewBox="0 0 105 63" fill="none" xmlns="http://www.w3.org/2000/svg">
<path d="M17.2342 40.9418C16.8719 40.6296 16.5763 40.4214 16.4098 41.1334C16.0226 42.8113 15.4647 44.4559 15.2232 46.1505C15.04 47.4703 14.4279 48.1323 13.2038 48.3447C11.3635 48.6653 9.49824 49.0983 7.80367 47.8742C7.24575 47.4703 7.52054 46.8708 7.59132 46.3379C8.21586 41.683 8.77794 37.0156 9.5149 32.3774C9.68144 31.3323 9.50241 30.5037 9.14017 29.6086C6.38805 22.8053 3.64009 15.9978 0.804688 8.98221C3.37362 8.7782 5.776 8.52838 8.11177 8.96972C10.714 9.46103 12.2212 11.3638 12.9915 13.8328C13.9075 16.7806 14.786 19.7409 15.727 22.8553C16.9094 21.8976 17.434 20.6194 18.1876 19.5202C19.978 16.9013 21.7225 14.2533 23.5004 11.6261C24.9118 9.54012 26.8104 8.36184 29.4043 8.41181C31.5486 8.45344 33.6928 8.42013 35.9411 8.42013C35.9037 9.10712 35.3124 9.59425 34.8878 10.148C31.1947 14.9778 27.4974 19.7992 23.7876 24.6206C23.567 24.9079 23.3838 25.1744 23.4795 25.5491C23.6378 26.3235 23.0215 26.6733 22.5802 27.0563C18.6956 30.4288 16.7762 34.5716 17.509 39.776C17.5673 40.1882 17.5673 40.6088 17.2342 40.9418Z" fill="#96A9B3"/>
<path d="M87.657 35.9775C85.1005 36.2731 82.6315 36.9185 79.996 38.1592C85.2213 28.9202 85.5419 17.7202 83.4892 12.3658C83.1728 19.548 82.0653 26.4471 79.2674 32.9964C77.5353 37.0475 75.2245 40.7032 71.8687 43.6052C71.1942 44.1881 70.4697 45.5995 69.3414 44.3838C68.3629 43.3304 69.5745 42.66 70.1741 41.998C71.8104 40.2035 73.1885 38.2175 74.5625 36.2231C75.0039 35.5861 75.0247 35.1281 74.5584 34.4203C69.3664 26.522 69.8785 20.1267 76.178 13.0195C78.6553 10.2257 81.0993 7.41533 82.3318 3.78052C82.7273 2.61472 83.0104 1.42811 83.2019 0C84.4011 0.520447 84.9007 1.42811 85.4128 2.26499C88.6937 7.61519 90.9295 13.3568 91.7081 19.6105C91.7706 20.1143 91.9538 20.5223 92.1828 20.9386C92.7199 26.8509 91.3126 31.968 86.5911 35.4654C86.7701 35.4237 87.2698 35.4945 87.657 35.9775Z" fill="#96A9B3"/>
<path d="M42.6901 30.8017C42.8358 31.3887 42.9857 31.9758 43.1772 32.7502C45.5255 28.545 48.7897 25.4848 53.1449 23.6903C56.0011 22.5161 58.9739 22.0165 62.0674 22.462C64.7862 22.8534 67.4009 23.6861 68.267 26.5423C69.158 29.4693 67.9838 32.1715 66.0061 34.3615C63.4206 37.2219 59.8732 38.2295 56.2134 38.8207C54.6479 39.0747 53.0491 39.2079 51.4628 39.2329C50.1887 39.2537 50.272 39.8366 50.6758 40.6485C51.2837 41.8685 52.4121 42.0975 53.6362 42.1849C56.9587 42.4139 60.0189 41.4146 63.0458 40.0864C62.7877 44.9037 60.9516 47.1395 56.5507 47.9681C53.3364 48.576 50.0805 48.8633 46.8828 47.9931C44.0682 47.227 41.8824 45.6656 41.3536 42.5221C41.2537 41.9351 41.0122 41.8227 40.5417 42.1849C39.863 40.9108 40.3668 39.5993 40.6541 38.4127C41.2828 35.8646 41.6784 33.2457 42.6901 30.8017Z" fill="#96A9B3"/>
<path d="M42.6907 30.8025C42.7615 34.7454 40.9003 38.322 40.5464 42.1816C40.5423 44.4924 39.6304 46.6325 39.3057 48.8766C39.1891 49.6885 38.7811 49.7551 38.1607 49.5386C37.0532 49.1556 35.7833 48.9557 35.0172 48.0398C33.993 46.8157 33.2269 46.6783 31.6197 47.3444C26.2404 49.5803 20.2531 47.5776 17.8549 43.0768C17.501 42.4106 17.1013 41.7444 17.2387 40.9325C15.6024 34.2916 18.467 29.4785 23.4841 25.5356C27.3229 22.7293 31.5406 21.5635 36.1663 23.0541C39.8719 24.2532 42.1869 26.8138 42.6907 30.8025Z" fill="#96A9B3"/>
<path d="M58.1551 57.9851C58.4549 55.845 58.7588 54.242 58.8795 52.6182C59.0003 51.0028 60.0828 51.2401 61.1029 51.2734C62.6226 51.3234 61.7524 52.4392 61.6941 52.9388C61.3902 55.4703 60.9322 57.9809 60.5117 60.4957C60.4076 61.1244 60.6532 62.0654 59.6373 62.0904C58.6839 62.1112 57.6013 62.5275 56.9018 61.2785C55.8485 59.3924 54.6452 57.5854 53.2879 55.387C52.9423 57.5229 52.58 59.2342 52.4093 60.962C52.2553 62.5275 51.1769 62.132 50.2984 62.107C49.0244 62.0695 49.6406 61.0745 49.7072 60.5623C50.0652 57.7602 50.5399 54.9707 50.9354 52.1727C51.0145 51.6065 51.1811 51.2068 51.7931 51.2817C52.7341 51.3983 53.8166 50.8112 54.5161 52.0978C55.532 53.9589 56.7353 55.7118 58.1551 57.9851Z" fill="#96A9B3"/>
<path d="M5.92198 57.4788C5.9428 53.7982 9.13626 50.8254 12.9959 50.8837C15.9895 50.9295 18.1088 52.9571 18.0671 55.7342C18.013 59.369 14.7404 62.5125 11.0265 62.4959C7.908 62.4834 5.90532 60.514 5.92198 57.4788Z" fill="#96A9B3"/>
<path d="M35.0832 58.5815C34.5086 57.8238 33.0014 59.0728 33.0722 57.3533C33.1388 55.7295 34.2629 55.9835 35.283 55.9918C35.4912 55.9918 35.7035 55.9585 35.9034 55.9959C36.8693 56.1833 38.2891 55.4006 38.718 56.3957C39.101 57.2825 38.3391 58.4649 37.7687 59.4267C36.8277 61.0089 35.4454 61.9249 33.6842 62.3329C29.4915 63.303 26.5686 60.3594 27.5679 56.1791C28.6046 51.8407 33.6467 49.3883 37.0067 51.5992C37.7604 52.0947 38.5931 52.7567 38.414 53.6893C38.2641 54.4679 37.1691 54.3722 36.5238 54.7302C35.6994 55.1882 35.7035 54.3846 35.3621 54.0349C34.2754 52.9274 32.5226 53.1356 31.3693 54.4721C29.9745 56.0834 29.937 58.669 31.2943 59.6932C32.4851 60.5884 33.934 60.172 35.0832 58.5815Z" fill="#96A9B3"/>
<path d="M26.7551 61.9038C23.2077 63.2361 22.554 60.5131 21.5714 58.2398C20.8178 58.9643 20.9927 59.7803 20.9927 60.4798C20.9927 62.0703 20.0892 62.2452 18.8276 62.1369C17.2371 62.0037 18.0948 60.8545 18.1614 60.2841C18.4654 57.6819 18.9359 55.1005 19.3605 52.5107C19.4355 52.0569 19.3605 51.3532 19.9809 51.3491C21.9628 51.3283 24.0362 50.7912 25.9015 51.7321C27.7168 52.6481 27.6461 55.6917 25.6017 56.9283C24.182 57.7901 24.4901 58.3606 25.1895 59.3473C25.7766 60.1717 26.2513 61.071 26.7551 61.9038Z" fill="#96A9B3"/>
<path d="M37.7461 62.1049C39.653 58.5534 41.4184 55.2225 43.2254 51.9208C43.8915 50.7009 45.0948 51.4337 46.0483 51.2921C47.0226 51.1464 46.8893 52.079 47.0059 52.5787C47.6471 55.26 48.2383 57.9538 48.7588 60.656C48.8462 61.1098 49.4208 62.0758 48.3258 62.0716C47.5222 62.0675 46.4063 62.7794 45.9026 61.3347C45.4321 59.9857 42.1095 59.461 41.5433 60.7185C40.7397 62.513 39.4323 62.0883 37.7461 62.1049Z" fill="#96A9B3"/>
<path d="M83.2752 51.8535C82.5799 52.857 82.3051 54.3808 80.4814 53.3941C79.9443 53.1026 79.1491 53.3358 78.8909 53.9936C78.5703 54.8138 79.3115 55.0637 79.8902 55.2468C81.7222 55.8298 83.3127 56.5126 82.6215 58.9774C82.0053 61.1799 80.0359 62.6247 77.6294 62.4082C76.4636 62.3041 75.3144 62.0293 74.3984 61.1924C75.0022 59.6436 75.6933 58.5819 77.5669 59.9059C78.2622 60.3972 79.2698 60.0183 79.6112 59.0982C79.9568 58.1572 79.0741 57.9157 78.4579 57.7242C76.8758 57.2287 75.3519 56.7874 75.7849 54.5682C76.2054 52.4239 77.7376 51.0083 79.9027 50.9209C81.0935 50.8751 82.2135 51.1499 83.2752 51.8535Z" fill="#96A9B3"/>
<path d="M74.5397 54.5015C72.8617 53.4398 71.1755 53.2649 69.7807 54.8554C68.8272 55.9421 68.3068 57.3369 69.3227 58.6484C70.6217 60.3263 72.2206 59.6935 73.7611 58.8399C73.7528 61.8377 73.3364 62.3665 71.0381 62.4456C68.4692 62.5289 66.1459 60.6303 65.9335 58.2612C65.6463 55.0969 67.6489 52.2531 70.8882 51.2414C74.2274 50.1922 75.2475 51.079 74.5397 54.5015Z" fill="#96A9B3"/>
<path d="M87.6584 35.9781C86.9714 35.9781 86.2886 35.9781 85.6016 35.9781C87.063 34.7415 88.3037 33.3841 89.3196 31.8436C90.9018 29.4371 91.6304 26.7641 91.747 23.8912C91.7886 22.9044 91.339 21.8177 92.1842 20.9434C94.8697 23.4457 95.5484 26.5684 94.4866 29.9284C93.4499 33.1968 91.2557 35.4576 87.6584 35.9781Z" fill="#96A9B3"/>
<path d="M65.915 52.1782C65.4445 55.3675 64.9948 58.2154 64.6118 61.0758C64.4244 62.4831 63.4002 62.0625 62.5758 62.1292C61.335 62.2333 61.6973 61.3381 61.7847 60.7469C62.1927 57.8906 62.6674 55.0428 63.0921 52.1907C63.3127 50.721 64.4369 51.383 65.203 51.283C66.2938 51.1498 65.915 51.97 65.915 52.1782Z" fill="#96A9B3"/>
<path d="M67.8136 46.783C67.7304 48.182 66.0108 49.7683 64.845 49.6226C63.9873 49.5143 63.4877 48.9814 63.5168 48.1029C63.5585 46.8496 65.253 45.3966 66.4896 45.4673C67.4473 45.5256 67.7637 46.1085 67.8136 46.783Z" fill="#96A9B3"/>
<path d="M92.1475 44.8825C92.1849 45.3238 92.0475 45.6652 91.6603 45.6985C91.4563 45.7152 91.0941 45.507 91.0316 45.3238C90.5445 43.8374 90.099 42.3385 89.6868 40.8313C89.6327 40.6356 89.7867 40.2609 89.9616 40.1568C90.278 39.9653 90.6985 40.086 90.8151 40.4441C91.2939 41.9305 91.7186 43.4335 92.1475 44.8825Z" fill="#96A9B3"/>
<path d="M99.6861 24.2658C99.378 24.295 99.0116 24.2658 98.895 23.8703C98.7285 23.3165 99.1781 23.1666 99.5654 23.0459C100.873 22.6379 102.184 22.2465 103.496 21.8634C103.895 21.7469 104.366 21.6886 104.537 22.1882C104.716 22.7211 104.262 22.9002 103.871 23.0209C102.497 23.4456 101.118 23.8453 99.6861 24.2658Z" fill="#96A9B3"/>
<path d="M78.2419 43.1044C77.8839 43.042 77.5258 42.9046 77.6382 42.4799C77.7381 42.0968 77.9505 41.7179 78.192 41.3974C78.8165 40.5771 78.7999 39.2531 80.0822 38.9658C80.1697 38.945 80.4611 39.2614 80.4361 39.3697C80.1405 40.7145 79.3411 41.8137 78.6083 42.942C78.5459 43.0378 78.3668 43.0545 78.2419 43.1044Z" fill="#96A9B3"/>
<path d="M95.2152 12.6772C94.5989 13.7348 93.9661 14.859 93.2957 15.9498C93.1417 16.1996 92.8294 16.183 92.5671 16.0164C92.2882 15.8416 92.2299 15.5668 92.3714 15.3128C92.9627 14.2427 93.5705 13.1852 94.2034 12.1401C94.3491 11.8987 94.6614 11.8071 94.907 12.0111C95.0361 12.1277 95.0736 12.365 95.2152 12.6772Z" fill="#96A9B3"/>
<path d="M98.4087 33.3535C99.5786 34.0572 100.753 34.7525 101.91 35.4811C101.994 35.5352 102.002 35.9141 101.919 35.9891C101.731 36.1473 101.377 36.3596 101.232 36.2847C100.128 35.7226 99.0499 35.1147 97.9882 34.4777C97.7925 34.3611 97.5926 34.0697 97.8591 33.7949C97.9923 33.6533 98.163 33.5492 98.4087 33.3535Z" fill="#96A9B3"/>
<path d="M98.8233 17.8612C98.4236 18.6273 97.7325 19.156 96.8914 19.435C96.6374 19.5183 96.1461 19.1977 96.3418 18.798C96.7082 18.0527 97.4036 17.5905 98.1447 17.2699C98.5402 17.1034 98.7609 17.3948 98.8233 17.8612Z" fill="#96A9B3"/>
<path d="M85.5953 41.7521C85.3538 42.2351 85.9075 43.251 84.9291 43.3592C84.188 43.4425 84.1796 42.6806 84.3212 42.1476C84.4794 41.5606 84.1671 40.5821 85.1497 40.5571C85.7368 40.5363 85.7368 41.1733 85.5953 41.7521Z" fill="#96A9B3"/>
<path d="M100.521 28.3509C101.05 28.6132 102.057 27.997 102.165 29.0587C102.232 29.6957 101.582 29.7415 101.083 29.6333C100.45 29.4959 99.4965 29.7332 99.3716 28.8588C99.2758 28.2135 100.029 28.3759 100.521 28.3509Z" fill="#96A9B3"/>
<path d="M95.1685 37.5312C95.793 37.9851 96.3967 38.5388 96.6799 39.3174C96.8173 39.6922 96.351 40.1085 96.1261 39.9753C95.3683 39.5298 94.6564 38.9594 94.5356 37.9892C94.4898 37.6395 94.8104 37.577 95.1685 37.5312Z" fill="#96A9B3"/>
<path d="M51.3281 33.9665C52.4273 31.6099 53.5432 29.5864 55.6832 28.4039C57.0114 27.6711 58.452 27.3048 59.6136 28.6288C60.4131 29.5406 59.6303 31.4767 58.1106 32.4343C56.1287 33.6792 53.8971 33.9581 51.3281 33.9665Z" fill="#F0F2F5"/>
<path d="M28.7264 41.4655C25.6328 41.4821 23.5177 39.4961 23.4886 36.5441C23.4511 32.7428 27.0526 29.1995 30.9872 29.1662C34.0224 29.1413 36.2583 31.2106 36.2874 34.0793C36.3249 37.789 32.5902 41.4405 28.7264 41.4655Z" fill="#F0F2F5"/>
<path d="M11.0905 59.6888C9.83723 59.5889 8.93373 58.7479 8.88793 57.0949C8.83381 55.2463 10.595 53.481 12.4645 53.6059C14.0175 53.71 15.0833 54.5302 15.125 56.1873C15.1666 57.9651 13.2722 59.7138 11.0905 59.6888Z" fill="#F0F2F5"/>
<path d="M22.7895 53.3867C23.5972 53.4658 24.1718 53.8281 24.0927 54.6649C24.0094 55.5268 23.4015 55.9223 22.5438 56.0556C21.5737 56.2055 21.7194 55.5976 21.8027 55.0563C21.911 54.3735 21.6195 53.4159 22.7895 53.3867Z" fill="#F0F2F5"/>
<path d="M42.9258 57.9229C43.4879 56.8113 43.9417 55.9161 44.4247 54.9668C45.7071 57.8355 45.5863 58.1061 42.9258 57.9229Z" fill="#F0F2F5"/>
</svg>
