<svg width="164" height="42" viewBox="0 0 164 42" fill="none" xmlns="http://www.w3.org/2000/svg">
<path d="M1.49781 8.85886C1.47351 8.5915 1.46744 8.33022 1.71657 8.14185C2.27559 7.88057 2.82246 7.70434 3.25388 8.35451C3.58201 8.98645 3.25996 9.56979 3.10198 10.1531C2.33636 12.9604 2.13584 15.8041 2.51257 18.6843C2.22091 19.614 2.81639 20.5984 2.34243 21.5159C1.9657 22.1296 1.48566 22.2207 0.908407 21.7954C0.598514 21.5341 0.726121 21.0905 0.495221 20.7928C0.476992 20.574 0.343314 20.4829 0.136719 20.4829C0.136719 19.6869 0.136719 18.8909 0.136719 18.0949C0.410154 16.8432 0.410154 15.5915 0.136719 14.3397C0.136719 13.5437 0.136719 12.7477 0.136719 11.9517C1.15754 11.7573 0.549902 10.6696 1.09677 10.2139C1.77732 9.9222 1.07247 9.22344 1.49781 8.85886Z" fill="#96A9B3"/>
<path d="M9.01172 0.662337C9.27908 0.315986 9.88673 0.504336 10.0508 0C10.2817 0 10.5065 0 10.7374 0C11.5334 0.273435 12.3355 0.273435 13.1315 0C13.5872 0 14.0429 0 14.4987 0C15.1549 0.81423 16.2304 0.704864 17.0629 1.14844C18.3207 1.82291 19.5846 2.45484 20.3623 3.7248C20.3259 4.1623 20.1983 4.53295 19.6757 4.59371C19.5116 4.56941 19.3719 4.50256 19.2382 4.39926C18.7764 3.82809 18.187 3.45136 17.4761 3.26299C15.8415 2.44269 14.1037 1.98089 12.2808 1.86544C11.2539 1.30642 9.89279 1.6224 9.01172 0.662337Z" fill="#96A9B3"/>
<path d="M163.554 19.4625C162.728 19.0007 163.584 17.828 162.661 17.3176C162.521 17.2447 162.691 16.1995 163.554 16.3879C163.554 17.4148 163.554 18.4417 163.554 19.4625Z" fill="#96A9B3"/>
<path d="M0.136719 14.3418C0.653208 15.5935 0.671437 16.8452 0.136719 18.097C0.136719 16.8452 0.136719 15.5935 0.136719 14.3418Z" fill="#96A9B3"/>
<path d="M13.1285 0C12.3325 0.461802 11.5304 0.492184 10.7344 0C11.5365 0 12.3325 0 13.1285 0Z" fill="#96A9B3"/>
<path d="M11.7613 41.9995C11.737 41.9083 11.7248 41.8111 11.7188 41.7139C11.8099 41.5255 11.9496 41.3858 12.1319 41.2886C12.8307 41.1367 13.5295 40.9848 14.1007 41.6106C14.1189 41.7382 14.1311 41.8658 14.1493 41.9934C13.3594 41.9995 12.5634 41.9995 11.7613 41.9995Z" fill="#96A9B3"/>
<path d="M38.3915 4.36915C39.1146 3.16603 40.2145 3.67644 41.1198 3.90126C43.1554 4.41775 44.559 6.36218 44.6016 8.61651C44.6502 11.3934 44.6866 14.1764 44.6016 16.9472C44.4983 20.1798 45.513 22.8048 48.5694 24.2084C51.565 25.5817 54.2022 24.6824 56.499 22.507C56.8029 22.3491 57.1188 22.2154 57.3254 21.9176C57.7568 21.626 57.3133 21.1398 57.5624 20.8056C57.4773 20.2892 57.7994 19.8942 57.9513 19.4506C58.2429 16.6191 57.9999 13.7753 58.085 10.9377C58.1093 10.2024 57.9634 9.46112 58.2065 8.73804C59.2638 7.97242 60.394 8.21548 60.3758 9.35176C60.2846 13.8969 61.348 18.5817 58.9478 22.8838C58.4495 23.4428 57.7508 23.8499 57.6049 24.6702C56.657 25.9037 55.2838 26.5296 53.8619 26.8638C52.6953 27.1433 52.4765 27.7205 52.5069 28.7657C52.5676 30.9167 52.519 33.0738 52.519 35.2309C52.519 36.0269 52.3732 36.7803 51.4071 36.8289C50.3741 36.8776 50.0703 36.1666 50.0763 35.2552C50.0824 33.0434 50.0277 30.8316 50.0946 28.6198C50.125 27.5929 49.7847 27.1858 48.776 26.8638C45.5009 25.8186 43.1493 23.8013 42.4992 20.2284C42.1832 16.9533 42.4505 13.666 42.3533 10.3847C42.329 9.65558 42.5052 8.91424 42.2136 8.19724C41.849 7.3344 41.2474 6.67818 40.4636 6.17384C39.9896 5.88218 39.4427 5.75457 38.9445 5.52367C38.4219 5.29277 38.0816 4.99501 38.3915 4.36915Z" fill="#96A9B3"/>
<path d="M139.643 33.4578C136.368 30.6444 136.082 24.72 138.203 21.2808C140.804 17.0638 145.713 15.168 150.222 16.7357C150.854 17.2461 151.674 17.3311 152.367 17.6896L152.318 17.6471C152.434 17.951 152.829 18.0968 152.798 18.4856C152.519 19.0811 152.185 19.6462 151.68 20.0959C151.377 20.2356 151.055 20.2539 150.733 20.2174C150.417 20.2053 150.119 20.1141 149.815 20.0169C147.767 19.3971 145.762 19.5429 143.781 20.3085C143.678 20.3511 143.568 20.3936 143.453 20.3875C140.737 20.3268 140.737 20.3268 140.925 23.0551C140.026 25.4248 139.759 27.7521 141.095 30.0976C141.831 31.3857 142.937 32.2243 144.097 33.0264C144.687 33.3059 145.227 33.7251 145.938 33.634C146.096 33.6097 146.254 33.6279 146.406 33.6644C146.996 33.871 147.621 33.792 148.223 33.8892C148.393 33.9378 148.551 34.0046 148.703 34.0776C149.857 34.7034 149.973 35.5237 149.177 36.5263L149.049 36.5932L148.91 36.5688C147.731 36.8058 146.558 36.8058 145.379 36.5628L145.404 36.5749C144.45 35.9977 143.313 35.9612 142.305 35.5359L142.323 35.548C141.496 35.1105 141.661 33.5125 140.239 33.7737C140.038 33.7008 139.813 33.634 139.643 33.4578Z" fill="#96A9B3"/>
<path d="M131.416 33.7948C130.511 34.6151 129.581 35.3989 128.451 35.9033C127.928 35.9337 127.406 35.9458 126.98 36.3104C126.652 36.4441 126.209 36.1888 125.954 36.602L125.996 36.5717C124.89 36.7661 123.778 36.7844 122.672 36.5535C119.112 36.2375 115.666 33.4424 114.573 29.754C113.369 25.695 114.062 22.0371 117.313 19.084C117.781 18.8592 118.255 18.6586 118.638 19.2116C118.935 19.643 118.79 20.1534 118.486 20.4147C117.805 21.0041 118.152 21.5753 118.352 22.1768C118.267 23.4711 117.574 24.6134 117.538 25.9381C117.435 29.8755 119.355 32.4702 123.195 33.4059C123.632 33.5153 124.076 33.6125 124.526 33.6429C125.206 33.6429 125.875 33.7948 126.555 33.813C127.661 34.0561 127.855 33.1082 128.287 32.4762C129.053 31.7896 129.763 31.0604 130.377 30.2401C130.76 29.7297 131.143 29.2254 131.902 29.3894C133.257 30.0153 132.583 31.109 132.522 32.063C132.066 32.5856 131.72 33.175 131.416 33.7948Z" fill="#96A9B3"/>
<path d="M73.5985 34.332C77.0498 32.977 78.2043 31.2574 78.2104 27.4597C78.2165 24.3911 78.2104 21.3226 78.2226 18.254C78.2286 17.3183 78.2469 16.2792 79.5533 16.3278C80.726 16.3703 80.7442 17.3365 80.7442 18.2236C80.7442 21.1767 80.7442 24.1298 80.7442 27.0829C80.7442 32.4909 79.213 34.6905 74.1575 36.5681C72.8997 36.7929 71.6358 36.7929 70.378 36.5681C69.9527 36.5681 69.4969 36.6957 69.1627 36.2947C68.9136 35.8876 68.6948 35.4744 68.865 34.97C68.9865 34.7087 69.1931 34.5447 69.4666 34.4596C69.8858 34.411 70.2929 34.5751 70.7061 34.5386C71.733 35.3529 72.7174 35.5351 73.5985 34.332Z" fill="#96A9B3"/>
<path d="M86.2886 35.8498C86.1489 36.0807 86.0091 36.3055 85.8694 36.5364C85.2192 36.9618 84.7574 36.5121 84.2652 36.1961C84.1862 36.1658 84.168 36.1111 84.2105 36.0382C83.9796 31.9305 83.9614 27.823 84.2166 23.7154C84.3078 18.271 90.6818 14.6252 95.8771 17.0375C96.3754 17.6816 97.2321 18.0887 97.1775 19.0852C97.0377 19.4923 97.0195 19.9723 96.5334 20.1789C94.2912 18.5079 91.9032 18.3196 89.3876 19.4862C88.8772 19.7353 87.9536 19.4923 88.0933 20.5435C87.7287 21.4002 86.8477 21.935 86.6228 22.8829C86.2461 26.4254 86.5682 29.974 86.4466 33.5165C86.4284 34.2943 86.6411 35.0902 86.2886 35.8498Z" fill="#96A9B3"/>
<path d="M96.5391 20.1743C96.5451 19.7064 96.5452 19.2385 96.5512 18.7767C97.3472 18.3392 97.9852 18.9772 98.7083 19.0745C100.379 20.5935 100.95 22.5744 100.975 24.7376C101.011 28.3105 100.999 31.8894 100.975 35.4623C100.969 36.2705 101.072 37.0361 101.4 37.7774C101.364 38.3911 101.977 38.3182 102.257 38.5917C102.67 39.0413 103.253 38.616 103.685 38.859C104.548 39.3512 105.459 39.8677 104.305 40.9675C103.636 41.2531 102.956 41.2106 102.281 40.9979C100.057 40.5847 98.5807 38.774 98.5503 36.2766C98.5078 32.8799 98.4713 29.4832 98.5625 26.0865C98.6233 23.8322 98.1189 21.8392 96.5391 20.1743Z" fill="#96A9B3"/>
<path d="M109.967 26.6263C109.967 29.4578 109.967 32.2955 109.967 35.1271C109.967 35.9656 109.9 36.8223 108.8 36.8284C107.767 36.8345 107.512 36.075 107.512 35.1939C107.512 29.47 107.512 23.74 107.512 18.0161C107.512 17.1472 107.694 16.3451 108.733 16.3208C109.948 16.2965 109.973 17.2322 109.973 18.1255C109.967 20.957 109.973 23.7947 109.967 26.6263Z" fill="#96A9B3"/>
<path d="M65.5235 33.4617C64.1989 32.052 63.7857 30.2959 63.7614 28.4487C63.7189 25.046 63.7492 21.6371 63.7432 18.2344C63.7432 17.2743 63.7918 16.2778 65.0921 16.3386C66.3256 16.3933 66.198 17.4141 66.198 18.2587C66.2041 21.2665 66.2406 24.2743 66.1859 27.2821C66.1494 29.2873 66.5869 31.1041 67.8872 32.6657C67.6138 34.4278 66.5201 33.8081 65.5235 33.4617Z" fill="#96A9B3"/>
<path d="M117.742 22.1842C117.037 21.5584 117.116 20.9507 117.742 20.3066C118.355 19.6747 118.282 19.219 117.328 19.0914C121.867 14.4126 130.253 15.555 133.133 21.2363C133.485 22.3605 132.841 22.6704 132.003 22.3119C131.401 22.0506 130.879 21.8683 130.247 22.0141C129.603 21.8926 129.189 21.3822 128.679 21.048C125.538 19.0124 122.372 19.1643 119.443 21.5037C118.957 21.8987 118.592 22.6764 117.742 22.1842Z" fill="#96A9B3"/>
<path d="M21.0046 4.7832C21.6791 6.50281 22.5662 7.69985 24.8023 7.40819C25.8657 7.26843 26.9898 8.03407 27.8648 8.83615C27.9863 9.49847 27.5245 9.60783 27.0445 9.6929C26.4247 9.71113 25.8778 9.43768 25.3067 9.26146C24.8509 9.01841 24.3891 8.7936 23.8423 8.86044C23.7086 8.8969 23.5749 8.93336 23.4412 8.97589C23.1556 9.18249 22.9065 9.41339 22.7424 9.73544C22.4447 10.2702 22.6999 11.0358 22.0497 11.4186C21.1869 11.7589 20.9438 10.7684 20.3119 10.6286C19.7468 10.6833 19.4308 11.1087 19.1027 11.4733C18.3492 12.3239 18.4039 12.968 19.6313 13.2536C19.9838 13.442 20.1965 13.7215 20.2329 14.1225C19.7225 15.7692 18.4525 15.9698 17.0003 15.8118C15.0802 14.4324 14.831 12.5123 16.3927 10.5618C17.0611 9.72327 17.8024 8.93337 18.7017 8.30143C19.2485 7.91862 19.8744 7.55401 19.8987 6.75193C20.5124 6.24152 19.6921 4.91081 21.0046 4.7832Z" fill="#96A9B3"/>
<path d="M149.193 36.5168C148.877 35.8363 149.175 34.9612 148.489 34.4022C148.379 33.9343 148.604 33.6123 148.999 33.4543C151.077 32.6158 152.62 31.1939 153.745 29.2738C153.89 29.0247 154.176 28.9214 154.468 28.8788C155.574 28.6176 156.406 28.8849 156.765 30.0637C155.464 33.6427 152.991 35.8606 149.193 36.5168Z" fill="#96A9B3"/>
<path d="M130.475 21.5117C131.071 21.2018 131.624 21.1411 132.183 21.6333C132.705 22.089 132.973 21.7548 133.131 21.2383C134.717 23.2982 134.911 25.6497 134.553 28.0985C134.455 28.7486 134.225 29.3806 134.061 30.0186C132.39 29.8485 131.83 28.6028 131.442 27.2417C131.29 26.7131 131.314 26.1419 131.259 25.5889C131.199 24.7261 130.81 23.9666 130.488 23.1827C130.269 22.6541 129.801 22.0768 130.475 21.5117Z" fill="#96A9B3"/>
<path d="M152.608 18.4408C152.511 18.1734 152.414 17.906 152.316 17.6387C155.999 19.814 157.724 23.0101 157.348 27.3C156.169 27.4094 155.889 25.7688 154.674 25.945C153.659 25.0032 153.659 23.5206 152.821 22.4937C152.596 22.1352 152.322 21.807 152.11 21.4364C151.988 21.1751 151.958 20.9017 152.006 20.6221C152.128 19.8747 152.067 19.0788 152.608 18.4408Z" fill="#96A9B3"/>
<path d="M65.5234 33.4622C66.3073 33.1706 67.2066 33.2374 67.8932 32.6602C69.5581 34.0273 71.4236 34.7018 73.605 34.3311C73.2404 34.9327 73.7508 36.0021 72.5781 36.1844C71.4661 36.3546 70.9436 35.7166 70.5729 34.8294C70.342 35.0299 70.1111 35.0421 69.8802 34.8294C69.6554 34.8294 69.4305 34.8294 69.1996 34.8294C68.7196 35.0299 68.993 35.7287 68.4887 35.9171C67.2066 35.4553 66.2587 34.5864 65.5234 33.4622Z" fill="#96A9B3"/>
<path d="M24.751 31.6585C22.8977 34.7028 20.6373 37.3885 17.824 39.5942C17.3196 39.6793 17.034 39.4544 16.9186 38.9744C16.9064 38.6281 17.0766 38.3425 17.2467 38.0569C17.751 37.4249 18.4377 36.9206 18.6382 36.076C18.7233 35.9301 18.8387 35.8086 18.9724 35.7053C20.3213 35.0977 21.093 33.925 21.8222 32.734C22.205 32.1142 22.5514 31.4823 23.1894 31.0752C23.3474 31.0022 23.5053 30.9536 23.6755 30.9233C24.1859 30.9354 24.988 30.5405 24.751 31.6585Z" fill="#96A9B3"/>
<path d="M155.037 25.6125C156.653 24.8834 156.653 24.8834 157.352 27.3078C157.473 28.2922 157.224 29.2037 156.762 30.0665C156.033 29.8235 155.298 29.5804 154.569 29.3313C153.73 28.0431 153.888 26.767 155.037 25.6125Z" fill="#96A9B3"/>
<path d="M30.2363 13.3187C30.7041 14.9107 30.5644 16.5028 30.218 18.0948C29.9142 19.1703 29.7198 20.2761 29.2337 21.297C29.0331 21.7223 28.8812 22.1902 28.2797 21.7527C27.7146 20.6286 28.3587 19.5531 28.4802 18.4776C28.6989 16.5635 28.7658 14.6738 28.4012 12.778C28.3708 12.3891 28.3708 12.0123 28.626 11.6842C30.1816 11.2163 29.6955 12.7719 30.2363 13.3187Z" fill="#96A9B3"/>
<path d="M132.187 25.2715C132.291 27.0579 132.764 28.7046 134.053 30.0232C133.712 31.2628 133.117 32.3443 132.126 33.1889C131.774 32.8365 131.823 32.4719 132.096 32.1013C131.573 31.36 132.303 30.3878 131.646 29.6707C130.869 28.2246 131.1 26.3409 132.187 25.2715Z" fill="#96A9B3"/>
<path d="M110.009 9.57513C109.949 10.5716 109.432 11.1975 108.436 11.1975C107.524 11.1975 106.929 10.6081 106.892 9.71487C106.856 8.72443 107.427 8.13503 108.46 8.12896C109.414 8.12288 109.9 8.6576 110.009 9.57513Z" fill="#96A9B3"/>
<path d="M28.4592 21.8387C29.3585 20.7389 29.4618 19.2624 30.2152 18.0957C29.9783 21.2615 29.0061 24.2024 27.487 26.9732C26.5148 26.7849 26.7031 26.001 26.6484 25.3387C27.1771 24.1356 26.8125 22.4707 28.4592 21.8387Z" fill="#96A9B3"/>
<path d="M27.0848 25.4955C27.2185 25.9877 27.3582 26.4798 27.4919 26.972C26.7871 28.6552 25.985 30.2776 24.7515 31.6508C24.4841 31.1951 24.0588 31.3774 23.682 31.3835C23.4633 30.9338 23.5423 30.4963 23.7975 30.1135C24.6239 28.8496 25.3166 27.5128 26.07 26.2125C26.2888 25.8297 26.5197 25.4104 27.0848 25.4955Z" fill="#96A9B3"/>
<path d="M14.1118 41.6162C13.4555 41.6101 12.7993 41.604 12.143 41.5919C11.6265 41.1908 10.8488 41.3366 10.3991 40.7776C10.2472 40.5406 10.2411 40.3098 10.4174 40.0849C10.7819 39.7507 11.2377 39.7993 11.6751 39.7932C13.3218 40.2247 14.7255 38.9669 16.3357 39.137C16.7793 39.2403 17.2836 39.2829 17.235 39.9391C16.4998 41.0754 15.2237 41.1969 14.1118 41.6162Z" fill="#96A9B3"/>
<path d="M86.2874 35.8517C86.2874 32.2423 86.2813 28.633 86.2813 25.0236C86.2813 24.2945 86.2145 23.5471 86.6277 22.8848C86.6034 26.6096 86.5852 30.3404 86.5366 34.0652C86.5305 34.6607 86.7492 35.3109 86.2874 35.8517Z" fill="#96A9B3"/>
<path d="M42.2083 8.20312C42.822 9.62499 42.4878 11.1137 42.5121 12.572C42.5607 15.1241 42.506 17.6762 42.4999 20.2282C41.8801 18.6909 42.2326 17.0868 42.1961 15.5191C42.1414 13.0824 42.2022 10.6397 42.2083 8.20312Z" fill="#96A9B3"/>
<path d="M84.2202 23.709C84.2202 27.8166 84.2141 31.9242 84.2141 36.0318C83.892 31.9242 83.8799 27.8166 84.2202 23.709Z" fill="#96A9B3"/>
<path d="M58.2117 8.73828C58.2299 11.7643 58.2482 14.7964 58.2664 17.8224C58.2725 18.3875 58.2421 18.9465 57.9565 19.457C57.9565 16.3702 57.9565 13.2834 57.9687 10.1966C57.9687 9.70443 57.8471 9.17578 58.2117 8.73828Z" fill="#96A9B3"/>
<path d="M30.238 13.318C29.6972 12.8136 29.527 11.9994 28.8282 11.6166C27.7163 11.4708 27.3213 10.8327 27.5583 9.76331C27.8378 9.39873 28.172 9.28326 28.5913 9.52024C29.6728 10.5593 30.1893 11.8353 30.238 13.318Z" fill="#96A9B3"/>
<path d="M98.7066 19.0729C97.9106 19.5165 97.1389 19.796 96.5495 18.7752C96.1363 18.2647 96.0208 17.645 95.875 17.0312C97.0781 17.3594 97.9774 18.0946 98.7066 19.0729Z" fill="#96A9B3"/>
<path d="M140.306 33.4609C141.218 32.434 141.722 33.0234 142.05 33.947C142.226 34.4514 142.251 35.0104 142.348 35.5512C142.123 35.4236 141.904 35.296 141.68 35.1684C141.309 34.5243 140.258 34.4332 140.306 33.4609Z" fill="#96A9B3"/>
<path d="M21.0043 4.78166C20.658 5.55336 21.138 6.34939 20.9375 7.12716C20.6884 7.24869 20.4635 7.17575 20.2509 7.036C19.6554 6.41621 19.7344 5.55336 19.4609 4.81812C19.4913 4.65406 19.5764 4.53254 19.7162 4.44747C19.9349 4.2105 20.1536 3.97352 20.3724 3.73047C20.7309 3.98568 21.0408 4.27733 21.0043 4.78166Z" fill="#96A9B3"/>
<path d="M38.3915 4.36719C38.7682 5.32725 40.342 4.92012 40.4635 6.17792C39.3151 6.09893 37.8932 6.32985 38.3915 4.36719Z" fill="#96A9B3"/>
<path d="M88.0991 20.538C87.5097 18.9399 88.4333 19.189 89.3934 19.4807C88.962 19.8331 88.5305 20.1855 88.0991 20.538Z" fill="#96A9B3"/>
<path d="M158.376 16.7409C158.181 16.6741 157.902 16.6619 157.805 16.5222C157.635 16.267 157.866 16.1211 158.103 16.1029C158.583 16.0664 159.214 15.8538 159.494 16.2791C159.804 16.7531 159.208 16.668 158.947 16.7531C158.753 17.0083 158.558 17.0083 158.376 16.7409Z" fill="#96A9B3"/>
<path d="M142.324 35.5371C143.442 35.6283 144.609 35.5857 145.423 36.5761C144.281 36.5701 143.236 36.248 142.324 35.5371Z" fill="#96A9B3"/>
<path d="M57.6074 24.6712C57.4433 23.62 57.8869 23.0184 58.9503 22.8848C58.8288 23.7172 58.2333 24.2033 57.6074 24.6712Z" fill="#96A9B3"/>
<path d="M57.5639 20.8105C57.8434 21.1751 58.451 21.3514 58.3538 21.9286C58.2809 22.36 57.892 22.2689 57.5761 22.1899C57.2601 22.0562 57.017 21.88 57.2176 21.485C57.333 21.2663 57.4485 21.0354 57.5639 20.8105Z" fill="#96A9B3"/>
<path d="M160.819 16.7285C161.597 17.0141 161.439 17.9924 162.065 18.3995C162.381 18.6061 162.314 18.8917 162.041 19.0557C161.707 19.2562 161.561 18.9889 161.445 18.7215C161.263 18.3205 161.075 17.9256 160.886 17.5306C160.595 17.2875 160.619 17.0141 160.819 16.7285Z" fill="#96A9B3"/>
<path d="M140.303 33.4636C140.759 34.0348 141.214 34.5999 141.67 35.1711C140.813 34.8126 140.145 34.2293 139.641 33.4636C139.859 33.4576 140.084 33.4636 140.303 33.4636Z" fill="#96A9B3"/>
<path d="M68.4883 35.9184C68.622 35.4931 68.2513 34.7335 69.1992 34.8308C69.1871 35.3169 69.1749 35.803 69.1628 36.2891C68.9379 36.1676 68.7131 36.0399 68.4883 35.9184Z" fill="#96A9B3"/>
<path d="M70.3789 36.5605C71.6367 36.5605 72.9006 36.5605 74.1584 36.5605C72.8945 37.0284 71.6367 37.0406 70.3789 36.5605Z" fill="#96A9B3"/>
<path d="M145.395 36.5547C146.573 36.5547 147.746 36.5607 148.925 36.5607C147.746 36.9557 146.573 36.9861 145.395 36.5547Z" fill="#96A9B3"/>
<path d="M132.095 32.0996C132.107 32.4642 132.113 32.8227 132.125 33.1873C131.979 33.4972 131.833 33.807 131.414 33.7949C131.438 33.1508 131.341 32.452 132.095 32.0996Z" fill="#96A9B3"/>
<path d="M122.688 36.5605C123.793 36.5666 124.905 36.5727 126.011 36.5788C124.899 36.992 123.787 36.9677 122.688 36.5605Z" fill="#96A9B3"/>
<path d="M102.256 38.5896C101.843 38.5046 101.35 38.9846 101.034 38.4803C100.961 38.3648 101.271 38.0124 101.399 37.7754C101.685 38.0427 101.97 38.3162 102.256 38.5896Z" fill="#96A9B3"/>
<path d="M160.817 16.7285C160.841 16.9959 160.859 17.2632 160.883 17.5306C160.756 17.9985 160.981 18.5393 160.519 19.1287C160.416 18.199 160.057 17.4091 160.817 16.7285Z" fill="#96A9B3"/>
<path d="M158.371 16.7422C158.559 16.7422 158.754 16.7483 158.942 16.7483C158.9 17.4714 158.851 18.1944 158.809 18.9175C158.711 18.9236 158.614 18.9297 158.517 18.9297C158.468 18.2005 158.42 17.4713 158.371 16.7422Z" fill="#96A9B3"/>
<path d="M152.368 17.6883C151.547 17.6033 150.757 17.4575 150.223 16.7344C151.049 16.8012 151.754 17.1475 152.368 17.6883Z" fill="#96A9B3"/>
<path d="M28.5935 9.52666C28.314 9.69072 28.0406 9.86086 27.7611 10.0249C27.1595 10.1161 26.722 9.98848 26.7646 9.24717C27.1292 9.10742 27.4937 8.97374 27.8583 8.83398C28.2047 8.95551 28.4477 9.19246 28.5935 9.52666Z" fill="#96A9B3"/>
<path d="M17.2277 39.9398C16.8995 39.8243 16.5653 39.7149 16.2372 39.5994C16.1704 38.7791 16.6079 38.7305 17.2277 38.9554C17.4282 39.1619 17.6226 39.3746 17.8231 39.5812C17.7198 39.8668 17.5497 40.0309 17.2277 39.9398Z" fill="#96A9B3"/>
<path d="M84.2617 36.1895C84.7964 36.3049 85.3311 36.4204 85.8659 36.5297C85.1732 37.1677 84.6628 36.9429 84.2617 36.1895Z" fill="#96A9B3"/>
<path d="M57.2188 21.4922C57.3403 21.7292 57.4557 21.9601 57.5773 22.1971C57.2188 22.3004 56.8663 22.4097 56.5078 22.513C56.7448 22.1727 56.9818 21.8325 57.2188 21.4922Z" fill="#96A9B3"/>
<path d="M126.969 36.1724C127.376 35.5952 127.892 35.6316 128.451 35.9111C128.251 36.1663 127.971 36.221 127.668 36.2149C127.431 36.3972 127.194 36.3972 126.969 36.1724Z" fill="#96A9B3"/>
<path d="M102.285 41.0031C102.96 40.9909 103.634 40.9848 104.309 40.9727C103.646 41.5195 102.966 41.3312 102.285 41.0031Z" fill="#96A9B3"/>
<path d="M126.966 36.1738C127.203 36.186 127.434 36.1981 127.671 36.2103C127.16 36.5992 126.565 36.6174 125.957 36.6113C126.297 36.4655 126.631 36.3197 126.966 36.1738Z" fill="#96A9B3"/>
<path d="M7.29423 38.6323C4.53557 35.4605 3.24739 31.6142 2.22656 27.6463C2.31771 27.1663 2.10504 26.4979 2.95573 26.5039C3.73958 26.8199 3.93401 27.5734 4.1163 28.2539C4.72393 30.484 5.70831 32.5439 6.77167 34.5794C6.87497 34.8043 6.97826 35.023 7.06941 35.2539C7.42791 35.9527 7.96262 36.5421 8.27859 37.2712C8.39404 37.6115 8.38796 37.9457 8.21782 38.2738C7.993 38.5959 7.64666 38.6141 7.29423 38.6323Z" fill="#96A9B3"/>
<path d="M0.833664 21.5098C1.16786 21.5462 1.50814 21.5827 1.84234 21.6191C2.62011 21.4308 2.82063 21.9837 2.93001 22.5367C3.12445 23.5575 3.53763 24.5905 2.97861 25.6295C2.67479 26.0123 2.26768 26.0913 1.80588 26.0306C1.47168 24.87 1.13141 23.7033 0.797208 22.5428C0.602765 22.1842 0.572382 21.844 0.833664 21.5098Z" fill="#96A9B3"/>
<path d="M7.29297 38.6333C7.56033 38.4875 7.82769 38.3416 8.09505 38.1958C9.08549 37.6003 9.46829 38.5422 10.0577 38.9675C10.3068 39.3199 10.6228 39.6481 10.4527 40.1402C10.5438 40.3104 10.635 40.4745 10.72 40.6446C10.7261 41.2218 10.4284 41.2097 10.0334 40.9909C8.84852 40.5231 7.99782 39.6663 7.29297 38.6333Z" fill="#96A9B3"/>
<path d="M10.0352 40.9928C10.2661 40.8774 10.497 40.7619 10.7218 40.6465C11.4206 40.8045 12.1133 40.9685 12.9093 41.1508C12.5994 41.327 12.3685 41.4607 12.1376 41.5944C11.9978 41.6369 11.8581 41.6734 11.7244 41.7159C11.1167 41.5762 10.5091 41.4425 10.0352 40.9928Z" fill="#96A9B3"/>
<path d="M1.80859 26.0252C2.04557 25.8794 2.27647 25.7396 2.51345 25.5938C3.01779 25.8064 3.21223 26.1285 2.87804 26.6328C2.66536 26.9731 2.45269 27.3134 2.23395 27.6536C1.76607 27.1918 1.81467 26.6024 1.80859 26.0252Z" fill="#96A9B3"/>
<path d="M0.834008 21.51C0.821855 21.8502 0.809704 22.1905 0.797552 22.5308C0.457276 21.99 0.439053 21.4006 0.499817 20.793C0.609191 21.036 0.718558 21.273 0.834008 21.51Z" fill="#96A9B3"/>
<path d="M2.87269 5.79707C3.88744 3.85872 5.22423 2.24847 7.33272 1.41602C7.74591 1.51324 8.16518 1.59829 8.32317 2.07832C8.35962 2.24845 8.35962 2.41253 8.31708 2.58266C8.01327 3.37259 7.26588 3.62173 6.61572 3.99846C5.58274 4.58787 5.01764 5.57831 4.43431 6.54445C4.09404 7.11562 3.75984 7.63209 2.96991 7.24321C2.52634 6.79356 2.59925 6.30748 2.87269 5.79707Z" fill="#96A9B3"/>
<path d="M8.06899 2.07879C7.82594 1.86004 7.5829 1.64132 7.33984 1.42257C7.83203 1.02153 8.34243 0.663034 9.0169 0.66911C10.1957 0.650881 11.3381 0.851371 12.444 1.24633C11.1679 2.47983 9.74606 2.9477 8.06899 2.07879Z" fill="#96A9B3"/>
<path d="M2.87109 5.79688C2.98047 6.24652 3.08985 6.69616 3.19922 7.1458C3.29644 7.56507 3.30252 7.94788 2.84072 8.17271C2.46399 8.31854 2.08724 8.29424 1.72266 8.13625C1.97786 7.29772 2.26954 6.47135 2.87109 5.79688Z" fill="#96A9B3"/>
<path d="M1.4987 8.85938C1.33464 9.30295 2.44053 10.1232 1.09766 10.2144C1.09766 9.7222 1.17057 9.24826 1.4987 8.85938Z" fill="#96A9B3"/>
<path d="M2.83972 8.17663C2.96124 7.83636 3.07669 7.49001 3.19822 7.14973C4.38918 6.0803 4.73554 4.28775 6.31538 3.55859C6.94732 3.69227 6.90478 4.12369 6.76503 4.5855C6.60097 5.12021 6.43082 5.64889 6.41867 6.21399C6.39437 6.68794 6.33361 7.16189 6.3883 7.648C6.58274 10.516 6.26677 13.384 6.61312 16.246C6.7711 17.4552 6.67997 18.5793 5.68952 19.4725C3.75117 21.2225 2.22601 20.6513 1.62445 18.7859C1.19303 15.1462 1.64875 11.6219 2.83972 8.17663Z" fill="#96A9B3"/>
<path d="M1.625 18.7825C3.94009 20.6723 6.18225 19.1289 5.605 16.3945C6.92964 16.4249 6.70482 17.4822 6.74735 18.2478C6.88711 21.0794 6.72911 23.9109 6.71696 26.7425C6.7048 28.9968 6.45568 31.2633 7.00863 33.4994C7.0937 33.8518 6.99041 34.1678 6.77166 34.4534C6.64406 34.6053 6.47999 34.7086 6.29162 34.7694C4.68747 32.2538 3.66665 29.489 2.87672 26.6332C3.15016 26.147 2.6762 25.9283 2.51214 25.5941C2.66405 24.2087 2.2144 22.9205 1.84374 21.6202C1.77082 20.6723 1.69792 19.7244 1.625 18.7825Z" fill="#96A9B3"/>
<path d="M8.06943 2.07855C9.4913 1.62282 10.9314 1.24609 12.4444 1.24609C14.3888 1.26432 16.1449 1.96919 17.8645 2.77734C18.5329 3.15408 19.2317 3.49434 19.572 4.24781C19.5659 4.3511 19.6145 4.41796 19.7178 4.44834C19.7299 4.55163 19.7421 4.65494 19.7542 4.75824C19.6996 4.819 19.6388 4.87976 19.5841 4.94052C18.9643 5.14104 18.4661 4.87368 17.9921 4.52733C17.506 3.97439 16.8497 3.74348 16.1631 3.57334C16.0173 3.52473 15.8715 3.47004 15.7256 3.42143C15.3367 3.3789 14.9296 3.4093 14.5711 3.21486C14.2369 3.02649 13.9392 2.75306 13.526 2.72268C12.7482 2.44317 11.9704 2.16972 11.1866 2.71051C10.2326 2.64367 9.29079 3.0933 8.33073 2.76518C8.17275 2.67403 8.05729 2.54038 7.98438 2.37632C7.98438 2.27302 8.01475 2.16969 8.06943 2.07855Z" fill="#96A9B3"/>
<path d="M19.5707 4.24781C18.9996 3.75562 18.4345 3.26953 17.8633 2.77734C18.7383 2.90495 19.4674 3.21483 19.5707 4.24781Z" fill="#96A9B3"/>
<path d="M143.447 19.5059C142.098 20.472 140.937 21.6204 140.02 23.0119C140.026 22.8417 140.013 22.6716 140.038 22.5015C140.36 19.5788 140.36 19.5788 143.447 19.5059Z" fill="#96A9B3"/>
<path d="M152.616 20.819C152.258 20.5334 151.905 20.2418 151.547 19.9562C151.687 19.2999 151.899 18.6983 152.616 18.4492C152.616 19.2391 152.616 20.0291 152.616 20.819Z" fill="#96A9B3"/>
<path d="M143.734 33.8379C144.536 34.0445 145.345 34.2511 146.147 34.4577C145.199 34.798 144.324 34.8648 143.734 33.8379Z" fill="#96A9B3"/>
<path d="M146.129 34.459C146.809 34.4651 147.49 34.4651 148.171 34.4711C147.484 35.9052 146.809 34.8357 146.129 34.459Z" fill="#96A9B3"/>
<path d="M150.865 19.5528C150.628 19.4252 150.385 19.2976 150.148 19.17C150.452 19.0303 150.477 18.3315 150.957 18.6657C151.236 18.8541 150.969 19.2551 150.865 19.5528Z" fill="#96A9B3"/>
<path d="M115.973 24.7305C116.471 25.648 116.465 26.2678 116.112 26.8754C116.082 26.9301 115.736 26.9058 115.681 26.8268C115.243 26.1463 115.663 25.6055 115.973 24.7305Z" fill="#96A9B3"/>
<path d="M126.629 34.1868C127.419 33.7919 128.203 33.3969 128.993 33.002C128.573 34.0775 127.996 34.9099 126.635 34.4907C126.513 34.4238 126.477 34.357 126.513 34.2901C126.544 34.2172 126.586 34.1868 126.629 34.1868Z" fill="#96A9B3"/>
<path d="M126.628 34.1855C126.628 34.2888 126.628 34.3861 126.628 34.4894C125.947 34.8053 125.273 34.9512 124.586 34.5015C125.266 34.3922 125.947 34.2888 126.628 34.1855Z" fill="#96A9B3"/>
<path d="M115.292 27.998C115.365 28.0467 115.45 28.0892 115.511 28.15C115.529 28.1682 115.493 28.2836 115.474 28.2836C115.389 28.2897 115.298 28.2776 115.207 28.2715C115.237 28.1803 115.268 28.0892 115.292 27.998Z" fill="#96A9B3"/>
<path d="M69.8796 34.8301C70.1105 34.8301 70.3414 34.8301 70.5723 34.8301C70.5176 35.1278 70.5419 35.5714 70.1469 35.5592C69.673 35.541 69.8249 35.1278 69.8796 34.8301Z" fill="#96A9B3"/>
<path d="M85.8197 24.0762C85.6131 24.2098 85.4916 24.3618 85.3762 24.3557C85.1209 24.3314 85.0055 24.1126 85.0602 23.8817C85.0845 23.7663 85.2607 23.6812 85.364 23.584C85.4977 23.7237 85.6314 23.8696 85.8197 24.0762Z" fill="#96A9B3"/>
<path d="M129.373 18.7153C129.319 18.7943 129.282 18.8793 129.221 18.9401C129.203 18.9583 129.088 18.9219 129.088 18.9097C129.082 18.8246 129.094 18.7335 129.1 18.6484C129.185 18.6667 129.276 18.691 129.373 18.7153Z" fill="#96A9B3"/>
<path d="M20.6864 6.88454C20.7715 6.96353 20.8505 7.04254 20.9355 7.12153C20.8079 7.83246 20.2064 8.04511 19.6838 8.39146C18.262 9.32722 16.8401 10.2751 16.2507 12.0191C15.8314 13.2526 15.8679 14.3584 16.9312 15.2638C17.0406 15.4096 17.0528 15.5615 16.9798 15.7256C16.8462 15.8411 16.6942 15.8957 16.518 15.914C16.0684 15.8289 15.7706 15.5251 15.4851 15.2031C15.2906 14.8202 15.084 14.4435 15.0172 14.0121C14.841 13.1796 14.4521 12.3654 14.8713 11.5025C15.1144 10.98 15.6248 10.6033 15.6856 9.98954C15.7403 9.73434 15.8679 9.52166 16.038 9.33329C17.1318 8.62843 18.025 7.75347 18.5293 6.51998C18.742 6.00349 19.0822 5.56597 19.6473 5.35938C20.4859 5.52951 20.2793 6.41666 20.6864 6.88454Z" fill="#96A9B3"/>
<path d="M16.8847 15.7074C16.9029 15.5616 16.9151 15.4157 16.9333 15.2699C18.2458 15.5555 19.3335 15.2577 20.0626 14.0485C20.1234 12.8394 20.731 11.9522 21.6911 11.2717C22.1103 10.6701 22.0921 9.98347 22.0496 9.29684C22.1407 9.13278 22.2805 9.04167 22.4688 9.02344C22.6511 9.02951 22.8152 9.09632 22.9489 9.21785C23.1251 9.43052 23.2102 9.67966 23.198 9.9531C23.1069 11.3567 22.9853 12.7482 21.8977 13.8176C21.5392 14.1883 21.369 14.6927 21.0105 15.0572C20.4758 16.1145 19.2909 16.0112 18.4402 16.5034C18.2701 16.5338 18.1 16.546 17.9298 16.546C17.6685 16.546 17.4194 16.5216 17.1885 16.3758C16.9819 16.2057 16.8665 15.9869 16.8847 15.7074Z" fill="#96A9B3"/>
<path d="M21.6875 11.271C21.4201 12.3587 20.9887 13.3491 20.059 14.0479C19.7613 13.896 19.4696 13.7502 19.1719 13.5982C19.8463 12.5713 20.5937 11.5809 20.8672 10.3595C20.9705 9.89167 21.3837 9.17468 20.3203 9.23544C20.8429 8.91947 21.1528 9.08961 21.2925 9.65471C21.4201 10.2016 21.5538 10.7363 21.6875 11.271Z" fill="#96A9B3"/>
<path d="M22.7069 9.21093C22.5671 9.21093 22.4274 9.20484 22.2876 9.20484C22.0324 7.9835 23.1444 8.54861 23.5697 8.22656L23.6062 8.25085C24.1895 8.41492 24.8883 8.03816 25.3926 8.60934C25.8483 8.82201 26.3041 9.03471 26.7598 9.24738C27.094 9.50867 27.4221 9.76385 27.7563 10.0251C27.89 10.7057 28.5037 11.0642 28.8197 11.6171C28.8379 11.9574 28.8622 12.2977 28.8804 12.6319C28.7589 12.7413 28.6131 12.8081 28.4429 12.8203C27.1851 12.2734 26.8023 10.6996 25.4473 10.2621C24.5784 9.8064 23.5576 9.72742 22.7069 9.21093Z" fill="#96A9B3"/>
<path d="M25.3997 8.6112C24.8042 8.48967 24.2088 8.37425 23.6133 8.25272C24.2999 7.93067 24.9136 7.95496 25.3997 8.6112Z" fill="#96A9B3"/>
<path d="M23.5837 8.22672C23.207 8.62169 22.3259 8.35432 22.3016 9.20501C22.2166 9.22324 22.1315 9.25359 22.0586 9.29613C22.1072 8.28746 22.806 8.2085 23.5837 8.22672Z" fill="#96A9B3"/>
<path d="M153.567 21.8989C153.36 21.6558 153.16 21.4188 152.953 21.1758C153.36 21.2487 153.877 21.2244 153.567 21.8989Z" fill="#96A9B3"/>
<path d="M17.918 16.1335C18.0395 16.1091 18.1671 16.0909 18.2886 16.0666C19.6193 15.9329 19.9596 16.656 19.9231 17.8349C19.8198 21.2133 20.2938 24.5796 19.9596 27.9641C19.8198 29.3617 19.9414 30.8078 20.2573 32.1811C20.5125 33.2991 20.3606 34.3017 19.9778 35.3165C19.8928 35.7236 19.5829 35.9849 19.3216 36.2765C19.3459 36.3677 19.3277 36.4528 19.2608 36.5196C18.9266 36.7627 18.5742 36.9388 18.1428 36.9085C17.4501 36.6654 16.6966 36.5074 16.4961 35.6324C16.9457 31.9016 16.6966 28.1525 16.6905 24.4155C16.6844 21.9971 17.5473 19.6699 17.2496 17.2333C17.2009 16.8383 17.5048 16.3947 17.918 16.1335Z" fill="#96A9B3"/>
<path d="M28.5164 12.625C28.638 12.625 28.7656 12.6311 28.8871 12.6311C29.8836 15.2196 29.0998 17.7777 28.7291 20.3359C28.6562 20.8402 28.5468 21.3324 28.4557 21.8306C27.9939 23.052 27.5382 24.2673 27.0764 25.4886C25.9401 27.4513 24.8099 29.4139 23.6736 31.3766C23.5703 31.3705 23.467 31.3827 23.3759 31.4191C23.2422 31.5224 23.0964 31.5285 22.9566 31.4373C22.8655 31.3036 22.8168 31.1578 22.8047 30.9938C22.9687 30.538 23.2179 30.1127 23.3151 29.6327C24.7248 28.0285 24.8828 25.7924 26.1163 24.0971C27.0399 21.1987 27.7326 18.2699 27.7022 15.1953C27.6901 14.3081 27.3984 13.2144 28.5164 12.625Z" fill="#96A9B3"/>
<path d="M17.2308 38.9617C16.7569 38.9557 16.5017 39.2838 16.2404 39.6058C14.7821 40.1223 13.4149 41.1796 11.7317 40.3593C11.6163 40.1831 11.5981 40.0008 11.677 39.8063C12.0234 39.2413 12.6007 39.1805 13.1718 39.1136C13.8281 39.2838 14.375 39.3203 14.9765 38.7612C15.6145 38.1658 16.4531 37.7647 17.4192 38.0564C17.4739 38.1232 17.5286 38.1901 17.5832 38.2569C17.4678 38.4878 17.3463 38.7248 17.2308 38.9617Z" fill="#96A9B3"/>
<path d="M23.0573 31.4009C23.1667 31.407 23.2699 31.4131 23.3793 31.4253C22.3828 33.3393 21.2222 35.1136 19.3203 36.2742C19.4175 36.0129 19.5148 35.7577 19.6181 35.4964C19.7639 34.4938 20.4566 33.7403 20.8212 32.835C21.6962 32.5737 21.8116 31.1032 23.0573 31.4009Z" fill="#96A9B3"/>
<path d="M18.2561 36.5306C18.5903 36.5246 18.9245 36.5246 19.2648 36.5185C18.9853 37.3631 18.2257 37.7459 17.5877 38.2503L17.4966 38.1226C17.2961 37.9403 17.1502 37.7338 17.0955 37.4603C16.895 36.4213 17.3204 36.16 18.2561 36.5306Z" fill="#96A9B3"/>
<path d="M11.7574 39.9571C11.7513 40.0908 11.7391 40.2245 11.733 40.3581C11.3077 40.2852 10.8824 40.2123 10.457 40.1394C10.1836 39.8538 9.91015 39.5622 9.63672 39.2766C9.72179 39.1247 9.83723 39.0092 9.98914 38.9302C10.1532 38.8816 10.3173 38.8634 10.4874 38.8877C10.9796 39.1611 11.6298 39.2462 11.7574 39.9571Z" fill="#96A9B3"/>
<path d="M20.6897 6.88453C20.3433 6.4045 19.997 5.92447 19.6506 5.44444C19.5959 5.40798 19.5412 5.36545 19.4805 5.32899C19.3711 5.14062 19.3529 4.94618 19.4744 4.75781C19.5656 4.73958 19.6567 4.73958 19.7478 4.75781C20.2704 5.37152 20.7505 6.00954 20.6897 6.88453Z" fill="#96A9B3"/>
<path d="M10.0299 39.2109C9.89623 39.2352 9.76864 39.2535 9.63496 39.2778C9.12454 38.9193 8.60806 38.5547 8.09764 38.1962C7.95789 37.9835 7.81205 37.7708 7.67229 37.5582C7.1558 36.908 6.61502 36.2761 6.31728 35.4801C6.3112 35.2431 6.29905 35 6.29297 34.7631C6.32943 34.678 6.35981 34.5929 6.39019 34.5079C7.62977 33.9185 7.48393 32.7518 7.49001 31.7006C7.52647 26.4384 7.47785 21.1703 7.52647 15.9082C7.53862 14.9906 7.31378 13.9334 8.35284 13.3075C8.79641 13.1434 9.20353 13.2042 9.58633 13.4715C10.2669 14.1521 10.194 15.0453 10.1879 15.8839C10.1514 23.6616 10.4066 31.4393 10.0299 39.2109Z" fill="#96A9B3"/>
<path d="M6.31681 35.4863C6.9609 36.0575 7.41054 36.7502 7.67182 37.5644C6.9062 37.0722 6.29858 36.4828 6.31681 35.4863Z" fill="#96A9B3"/>
<path d="M8.34501 13.6605C8.34501 19.7308 8.34501 25.795 8.34501 31.8652C8.34501 32.2055 8.38754 32.5518 8.34501 32.886C8.24778 33.6577 9.03162 34.5996 8.31461 35.1282C7.75559 35.5414 7.16011 34.3991 6.38234 34.5145C5.12454 31.2394 5.92662 27.8609 5.87193 24.525C5.8294 21.8149 6.2912 19.0867 5.61065 16.3949C5.42836 13.3263 5.99954 10.2274 5.27038 7.18314C5.2643 6.80033 5.28253 6.42359 5.61065 6.15623C5.03948 5.06857 6.5464 4.55207 6.32157 3.56162C6.74084 2.98437 7.33633 2.65017 7.98042 2.38281C8.12018 2.41319 8.266 2.43751 8.40575 2.46789C8.84325 2.61372 9.33545 2.68058 9.46305 3.24568C8.72174 5.99219 9.12278 8.79943 9.03163 11.5763C9.00125 12.348 9.06809 13.1258 8.34501 13.6605Z" fill="#96A9B3"/>
<path d="M5.6048 6.14844C5.48935 6.48871 5.37998 6.83507 5.26453 7.17534C4.94856 6.69531 5.07616 6.35503 5.6048 6.14844Z" fill="#96A9B3"/>
<path d="M11.1077 1.75676C12.0192 1.76891 12.961 1.55622 13.8239 2.04233C14.4923 2.82618 14.6806 3.77409 14.6016 4.74023C14.4254 6.98847 14.5834 9.22457 14.6928 11.4667C14.7475 12.6152 13.9515 13.7514 14.632 14.9181C14.6685 21.1403 14.6685 27.3564 14.6503 33.5725C14.6442 35.0369 14.7839 36.5195 14.4254 37.9657C13.2709 38.944 12.0192 39.5881 10.4454 39.102C10.1659 38.7981 9.99578 38.4579 10.0322 38.0264C10.4819 32.181 10.2085 26.3234 10.2085 20.4719C10.2085 15.8235 10.494 11.1872 10.3847 6.53276C10.3482 4.98329 10.889 3.35484 11.1077 1.75676Z" fill="#96A9B3"/>
<path d="M11.1046 1.75586C12.1315 2.94682 12.5507 4.17422 11.4509 5.57178C10.9162 6.25233 11.0863 7.09089 11.0863 7.87474C11.0803 16.6611 11.056 25.4536 11.0985 34.24C11.1046 35.9292 10.9041 37.588 10.7339 39.259C10.6185 39.417 10.4909 39.4292 10.3633 39.2833C10.2478 39.2712 10.1384 39.2469 10.0291 39.2104C9.36067 38.4023 9.36067 37.4422 9.36067 36.4639C9.36674 28.8624 9.36675 21.2609 9.36675 13.6594C8.7105 10.6273 9.02648 7.57091 9.18447 4.52059C9.20877 4.01625 9.42143 3.51799 9.02039 3.07441C8.80772 2.86782 8.60113 2.66122 8.39453 2.4607C9.29991 2.22372 10.2053 1.98676 11.1046 1.75586Z" fill="#96A9B3"/>
<path d="M14.1565 14.682C13.719 14.3539 13.4213 13.9103 13.5367 13.3634C14.3449 9.60213 13.5185 5.80444 13.8223 2.03711C14.1626 2.15256 14.5089 2.26798 14.8492 2.38343C15.2259 2.8027 15.8275 2.3409 16.2103 2.72978C16.818 3.86606 17.1825 5.00841 16.4716 6.26014C16.1921 6.74624 16.3318 7.2749 16.6843 7.67593C17.4013 8.48409 17.2129 9.19504 16.5506 9.8999C16.4351 10.0153 16.3258 10.1308 16.2103 10.2462C15.6878 10.55 15.8943 11.2245 15.5237 11.6134C15.5176 12.4094 15.5115 13.2054 15.5115 14.0014C15.4325 14.1047 15.3475 14.208 15.2624 14.3052C15.1044 14.4328 14.9221 14.4936 14.7338 14.5604C14.5454 14.6334 14.357 14.682 14.1565 14.682Z" fill="#96A9B3"/>
<path d="M16.5493 9.90467C16.7499 9.14513 16.5129 8.61041 15.8202 8.19722C15.0363 7.73542 14.933 6.80574 15.3523 6.25887C16.1969 5.15297 15.9356 3.90125 16.2091 2.72852C16.9625 3.08094 17.8132 3.28149 18.2689 4.08356C18.3479 4.91602 19.1986 4.97678 19.6422 5.44466H19.6483C19.551 7.58353 18.3236 8.93246 16.5493 9.90467Z" fill="#96A9B3"/>
<path d="M19.6433 5.45116C19.0478 5.44508 18.4341 5.51193 17.9419 5.03797C17.3525 4.4668 17.6867 4.24197 18.27 4.08398C18.6711 4.30881 19.0721 4.52754 19.4731 4.75237C19.5278 4.98934 19.5886 5.22026 19.6433 5.45116Z" fill="#96A9B3"/>
<path d="M16.2088 2.72917C15.747 2.63195 15.1819 2.97222 14.8477 2.38281C15.3277 2.39497 15.8017 2.4375 16.2088 2.72917Z" fill="#96A9B3"/>
<path d="M14.4908 14.0013C14.7217 13.8251 14.9526 13.8251 15.1835 14.0013C15.5237 14.299 15.4387 14.7912 15.6878 15.1315C15.9126 15.4171 16.2954 15.4657 16.5446 15.7148C16.6539 15.7148 16.7694 15.7148 16.8788 15.7148C16.9881 15.8363 17.0975 15.9518 17.2069 16.0733C17.1157 16.5412 16.7937 16.7782 16.3562 16.8936C14.4239 17.0577 14.0776 16.523 14.4908 14.0013Z" fill="#96A9B3"/>
<path d="M15.5254 11.6133C15.3917 10.9753 15.2034 10.3129 16.2121 10.2461C16.1877 10.8051 16.0055 11.2851 15.5254 11.6133Z" fill="#96A9B3"/>
<path d="M15.5222 15.3672C15.2305 14.954 15.1819 14.4861 15.188 14C15.2974 14 15.4067 14 15.51 14C15.6316 14.3403 15.747 14.6805 15.8685 15.0208C15.8442 15.2274 15.7288 15.3429 15.5222 15.3672Z" fill="#96A9B3"/>
<path d="M15.5195 15.3659C15.635 15.2504 15.7504 15.135 15.8659 15.0195C16.0907 15.2504 16.3216 15.4813 16.5464 15.7122C16.2062 15.5968 15.8598 15.4813 15.5195 15.3659Z" fill="#96A9B3"/>
<path d="M23.7165 30.0404C23.6375 30.4779 23.4127 30.8243 23.0481 31.0795C21.4622 30.7696 21.286 29.6211 21.3832 28.2965C21.7113 23.8121 21.0611 19.3157 21.4561 14.8313C21.4926 14.4364 21.4622 14.0353 21.3285 13.6525C21.7842 12.3947 22.2339 11.143 22.6896 9.88518C23.9656 9.56921 24.634 10.3227 24.6462 11.386C24.6766 14.0839 25.7095 16.7089 25.4239 19.3643C25.0472 22.9432 25.351 26.6559 23.7165 30.0404Z" fill="#96A9B3"/>
<path d="M23.7205 30.0416C24.1944 26.9974 23.7813 23.8681 24.5955 20.8481C24.8811 19.7969 24.9661 18.6424 24.6319 17.652C24.0608 15.9324 24.0121 14.2006 24.079 12.4506C24.1276 11.2779 23.5503 10.5305 22.6875 9.89251C22.6936 9.66768 22.6997 9.44283 22.7057 9.21801C23.8116 8.6043 24.7839 9.16335 25.7804 9.55832C26.8255 12.9854 27.1232 16.4914 26.9713 20.0643C26.9045 21.5895 26.3698 23.0539 26.4609 24.5851C25.914 26.5842 25.0026 28.4071 23.7205 30.0416Z" fill="#96A9B3"/>
<path d="M21.3294 33.4497C20.7582 34.1363 20.1871 34.8169 19.6159 35.5035C19.8407 33.8264 19.2695 32.2041 19.2756 30.5391C19.2938 26.5105 19.2756 22.4758 19.2817 18.4472C19.2817 17.5054 19.2088 16.6182 18.2852 16.0714C19.0751 15.6096 19.865 15.1538 20.6489 14.692C21.6818 14.6677 21.7122 15.3544 21.5785 16.0775C21.141 18.4412 21.2565 20.8109 21.4995 23.1807C21.6454 24.5843 21.6636 25.9576 21.4145 27.3673C21.2383 28.3638 21.2383 29.3907 21.7061 30.3811C22.2226 31.4384 21.8094 32.4653 21.3294 33.4497Z" fill="#96A9B3"/>
<path d="M21.3313 33.4508C21.0518 30.8319 20.4624 28.2859 21.1369 25.5576C21.6108 23.6436 20.3956 21.5958 20.6325 19.5177C20.7662 18.3511 20.4867 17.1358 21.0761 16.0117C21.3617 15.4709 21.1186 15.0273 20.6568 14.687C20.8817 14.3467 21.1065 14.0004 21.3374 13.6602C22.1638 14.1098 22.0119 14.9058 22.018 15.6228C22.0301 19.4327 22.0666 23.2425 21.9997 27.0524C21.9754 28.5289 22.2002 29.8718 23.057 31.081C23.057 31.1904 23.057 31.2937 23.0631 31.403C22.5344 32.1322 22.1395 32.9647 21.3313 33.4508Z" fill="#96A9B3"/>
<path d="M16.5509 16.3946C16.7696 16.2852 16.9945 16.1758 17.2132 16.0664C17.4502 16.0907 17.6811 16.115 17.9181 16.1332C17.4198 22.1427 17.037 28.1523 17.195 34.1921C17.2071 34.7451 17.0005 35.298 16.8912 35.851C16.7271 36.1852 16.4962 36.3735 16.1012 36.1912C15.366 35.7051 15.4146 34.9152 15.3964 34.1982C15.2809 28.8571 15.3174 23.5221 15.7427 18.1931C15.8035 17.4883 15.9615 16.8503 16.5509 16.3946Z" fill="#96A9B3"/>
<path d="M26.4648 24.5856C25.8814 24.0266 25.6688 23.3278 25.8389 22.5622C26.2825 20.5387 25.9726 18.4849 26.1549 16.4554C26.3189 14.6386 25.3467 13.0527 25.3346 11.2845C25.3285 10.6343 25.2981 10.0449 25.7903 9.55273C27.3276 10.0145 28.1115 11.1569 28.5247 12.6213C28.6401 16.3035 28.5429 19.9554 27.1879 23.4614C27.0177 23.8989 26.8476 24.3061 26.4648 24.5856Z" fill="#96A9B3"/>
<path d="M16.5494 36.1957C16.6649 36.0803 16.7803 35.9709 16.8897 35.8555C17.3454 36.0803 17.8011 36.3051 18.2508 36.536C17.552 36.5603 17.4609 36.9978 17.5581 37.5568C16.2517 37.7513 16.0815 37.5204 16.5494 36.1957Z" fill="#96A9B3"/>
<path d="M16.5509 36.1967C16.5509 36.9015 16.721 37.4788 17.5656 37.5578C17.5413 37.7461 17.517 37.9406 17.4988 38.1289C16.1742 38.773 15.0926 39.9458 13.4763 39.9518C12.7714 39.2227 13.4641 38.767 13.8165 38.2505C13.8165 31.8582 13.8287 25.4659 13.8105 19.0735C13.8044 17.597 13.853 16.1387 14.1629 14.6864C14.2783 14.4616 14.3877 14.2307 14.5032 14.0059C14.4242 15.4581 14.886 16.4425 16.557 16.3939C16.484 22.2211 16.0101 28.0422 16.2167 33.8755C16.2349 34.6593 16.1073 35.4675 16.5509 36.1967Z" fill="#96A9B3"/>
<path d="M13.8147 38.2453C14.1914 38.9137 13.5169 39.3694 13.4744 39.9467C12.9032 39.9528 12.332 39.9528 11.7548 39.9588C11.1957 39.9345 10.7096 39.7583 10.3633 39.2844C10.4848 39.2783 10.6124 39.2722 10.7339 39.26C11.5543 38.3 12.49 37.6924 13.8147 38.2453Z" fill="#96A9B3"/>
<path d="M9.02474 3.07422C9.21311 3.28081 9.55945 3.47526 9.56553 3.68793C9.66883 7.01169 10.0456 10.3476 9.36502 13.6592C9.02474 13.6592 8.68446 13.6592 8.33811 13.6592C8.33811 11.3563 8.34418 9.05334 8.33203 6.75648C8.33203 5.35892 8.5994 3.8763 9.02474 3.07422Z" fill="#96A9B3"/>
</svg>
